<svg width="27" height="20" viewBox="0 0 27 20" fill="none" xmlns="http://www.w3.org/2000/svg">
<path opacity="0.6" d="M6.13669 7.97595C5.83653 7.97595 5.54849 8.02137 5.2618 8.06279C5.35467 7.75284 5.45023 7.43754 5.60368 7.15431C5.75712 6.74282 5.99671 6.38611 6.23495 6.02672C6.43416 5.63794 6.78546 5.37475 7.04389 5.04208C7.31444 4.71877 7.68324 4.50367 7.97532 4.23514C8.26202 3.95458 8.63755 3.81429 8.93636 3.61657C9.24863 3.43888 9.52052 3.24248 9.81125 3.14896L10.5367 2.85237L11.1747 2.58918L10.5219 0L9.71838 0.192384C9.4613 0.256512 9.14768 0.331329 8.79099 0.420841C8.42623 0.487641 8.03723 0.670675 7.60382 0.837675C7.1758 1.02739 6.68047 1.15564 6.22014 1.46025C5.75712 1.7515 5.22276 1.99466 4.75166 2.38477C4.29537 2.78691 3.74486 3.1356 3.33837 3.64729C2.89419 4.12558 2.4554 4.62792 2.11486 5.19973C1.72049 5.74482 1.45263 6.34335 1.16997 6.9352C0.914236 7.52705 0.708299 8.13226 0.540049 8.72011C0.221049 9.89846 0.0783735 11.018 0.0231878 11.976C-0.022576 12.9352 0.00434386 13.7328 0.0608756 14.31C0.0810655 14.5825 0.118753 14.847 0.145673 15.0301L0.179323 15.2545L0.214319 15.2465C0.453719 16.3565 1.00483 17.3765 1.80389 18.1886C2.60295 19.0007 3.61732 19.5717 4.72964 19.8354C5.84197 20.0992 7.0068 20.045 8.0894 19.6791C9.17199 19.3133 10.1281 18.6506 10.8471 17.7679C11.5662 16.8852 12.0187 15.8185 12.1525 14.6911C12.2863 13.5638 12.0957 12.4219 11.6029 11.3975C11.1102 10.3731 10.3353 9.50817 9.36795 8.90267C8.40061 8.29717 7.28032 7.97588 6.13669 7.97595ZM20.9426 7.97595C20.6425 7.97595 20.3544 8.02137 20.0677 8.06279C20.1606 7.75284 20.2562 7.43754 20.4096 7.15431C20.5631 6.74282 20.8026 6.38611 21.0409 6.02672C21.2401 5.63794 21.5914 5.37475 21.8498 5.04208C22.1204 4.71877 22.4892 4.50367 22.7812 4.23514C23.0679 3.95458 23.4435 3.81429 23.7423 3.61657C24.0546 3.43888 24.3264 3.24248 24.6172 3.14896L25.3427 2.85237L25.9807 2.58918L25.3279 0L24.5243 0.192384C24.2672 0.256512 23.9536 0.331329 23.5969 0.420841C23.2322 0.487641 22.8432 0.670675 22.4098 0.837675C21.9831 1.02872 21.4864 1.15564 21.0261 1.46159C20.5631 1.75284 20.0287 1.99599 19.5576 2.38611C19.1013 2.78824 18.5508 3.13694 18.1443 3.64729C17.7001 4.12558 17.2613 4.62792 16.9208 5.19973C16.5264 5.74482 16.2586 6.34335 15.9759 6.9352C15.7202 7.52705 15.5142 8.13226 15.346 8.72011C15.027 9.89846 14.8843 11.018 14.8291 11.976C14.7834 12.9352 14.8103 13.7328 14.8668 14.31C14.887 14.5825 14.9247 14.847 14.9516 15.0301L14.9853 15.2545L15.0202 15.2465C15.2596 16.3565 15.8108 17.3765 16.6098 18.1886C17.4089 19.0007 18.4232 19.5717 19.5356 19.8354C20.6479 20.0992 21.8127 20.045 22.8953 19.6791C23.9779 19.3133 24.934 18.6506 25.6531 17.7679C26.3721 16.8852 26.8247 15.8185 26.9584 14.6911C27.0922 13.5638 26.9017 12.4219 26.4089 11.3975C25.9161 10.3731 25.1412 9.50817 24.1739 8.90267C23.2065 8.29717 22.0863 7.97588 20.9426 7.97595Z" fill="#475569"/>
</svg>
