<svg width="27" height="20" viewBox="0 0 27 20" fill="none" xmlns="http://www.w3.org/2000/svg">
<path opacity="0.6" d="M20.8633 12.024C21.1635 12.024 21.4515 11.9786 21.7382 11.9372C21.6453 12.2472 21.5498 12.5625 21.3963 12.8457C21.2429 13.2572 21.0033 13.6139 20.7651 13.9733C20.5658 14.3621 20.2145 14.6253 19.9561 14.9579C19.6856 15.2812 19.3168 15.4963 19.0247 15.7649C18.738 16.0454 18.3625 16.1857 18.0636 16.3834C17.7514 16.5611 17.4795 16.7575 17.1887 16.851L16.4633 17.1476L15.8253 17.4108L16.4781 20L17.2816 19.8076C17.5387 19.7435 17.8523 19.6687 18.209 19.5792C18.5738 19.5124 18.9628 19.3293 19.3962 19.1623C19.8242 18.9726 20.3195 18.8444 20.7799 18.5397C21.2429 18.2485 21.7772 18.0053 22.2483 17.6152C22.7046 17.2131 23.2551 16.8644 23.6616 16.3527C24.1058 15.8744 24.5446 15.3721 24.8851 14.8003C25.2795 14.2552 25.5474 13.6566 25.83 13.0648C26.0858 12.4729 26.2917 11.8677 26.46 11.2799C26.779 10.1015 26.9216 8.98196 26.9768 8.02405C27.0226 7.0648 26.9957 6.2672 26.9391 5.69005C26.9189 5.4175 26.8812 5.15297 26.8543 4.96994L26.8207 4.74549L26.7857 4.75351C26.5463 3.64351 25.9952 2.62348 25.1961 1.81138C24.397 0.999294 23.3827 0.428335 22.2704 0.164564C21.158 -0.0992088 19.9932 -0.0450191 18.9106 0.320864C17.828 0.686747 16.8719 1.34937 16.1529 2.23209C15.4338 3.1148 14.9813 4.18154 14.8475 5.30889C14.7137 6.43624 14.9043 7.57815 15.3971 8.60251C15.8898 9.62687 16.6647 10.4918 17.632 11.0973C18.5994 11.7028 19.7197 12.0241 20.8633 12.024ZM6.05738 12.024C6.35754 12.024 6.64558 11.9786 6.93228 11.9372C6.8394 12.2472 6.74384 12.5625 6.59039 12.8457C6.43695 13.2572 6.19736 13.6139 5.95912 13.9733C5.75991 14.3621 5.40861 14.6253 5.15018 14.9579C4.87963 15.2812 4.51083 15.4963 4.21875 15.7649C3.93206 16.0454 3.55652 16.1857 3.25771 16.3834C2.94544 16.5611 2.67355 16.7575 2.38282 16.851L1.65733 17.1476L1.01933 17.4108L1.67213 20L2.47569 19.8076C2.73278 19.7435 3.04639 19.6687 3.40308 19.5792C3.76784 19.5124 4.15684 19.3293 4.59025 19.1623C5.01693 18.9713 5.5136 18.8444 5.97393 18.5384C6.43695 18.2472 6.97131 18.004 7.44241 17.6139C7.8987 17.2118 8.44921 16.8631 8.8557 16.3527C9.29988 15.8744 9.73867 15.3721 10.0792 14.8003C10.4736 14.2552 10.7414 13.6566 11.0241 13.0648C11.2798 12.4729 11.4858 11.8677 11.654 11.2799C11.973 10.1015 12.1157 8.98196 12.1709 8.02405C12.2166 7.0648 12.1897 6.2672 12.1332 5.69005C12.113 5.4175 12.0753 5.15297 12.0484 4.96994L12.0147 4.74549L11.9798 4.75351C11.7404 3.64351 11.1892 2.62348 10.3902 1.81138C9.59112 0.999294 8.57675 0.428335 7.46443 0.164564C6.3521 -0.0992088 5.18727 -0.0450191 4.10467 0.320864C3.02208 0.686747 2.06596 1.34937 1.34693 2.23209C0.627895 3.1148 0.175325 4.18154 0.0415726 5.30889C-0.0921803 6.43624 0.0983467 7.57815 0.59112 8.60251C1.08389 9.62687 1.85877 10.4918 2.82612 11.0973C3.79346 11.7028 4.91375 12.0241 6.05738 12.024Z" fill="#475569"/>
</svg>
