<svg width="48" height="48" viewBox="0 0 48 48" fill="none" xmlns="http://www.w3.org/2000/svg">
<g clip-path="url(#clip0_1146_218)">
<path d="M13.8998 4.92375C14.46 2.4585 16.35 0.75 18.8595 0.75C23.1398 0.75 23.9993 3.75825 23.9993 6V28.5C23.9993 30.7418 23.139 33.75 18.8595 33.75C16.3493 33.75 14.4593 32.0415 13.8998 29.5763C12.6195 29.421 9.87002 28.8097 8.56952 26.325C7.49927 24.2767 7.76927 22.5398 8.11952 21.5303C7.05977 20.8995 5.99927 19.6567 5.99927 17.25C5.99927 14.8433 7.05902 13.6005 8.11952 12.9697C7.76927 11.9602 7.49927 10.2232 8.56952 8.175C9.86927 5.69025 12.6195 5.079 13.8998 4.92375Z" fill="#075BF9"/>
<path d="M16.7911 16.5368C14.3693 15.753 14.3116 13.464 14.3101 13.3635C14.3078 12.951 13.9726 12.618 13.5601 12.618C13.1476 12.618 12.8101 12.9533 12.8101 13.368C12.8101 14.3228 13.2796 16.1108 14.8883 17.2508C13.2796 18.3908 12.8101 20.178 12.8101 21.1335C12.8101 21.546 13.1431 21.8783 13.5556 21.8813H13.5601C13.9703 21.8813 14.3048 21.549 14.3101 21.138C14.3108 21.0405 14.3671 18.7485 16.7911 17.9648C17.1008 17.865 17.3101 17.5763 17.3101 17.2515C17.3101 16.9268 17.1001 16.638 16.7911 16.5383V16.5368ZM33.6901 21.1373C33.6923 21.5498 34.0276 21.8828 34.4401 21.8828C34.8526 21.8828 35.1901 21.5475 35.1901 21.1328C35.1901 20.178 34.7206 18.39 33.1118 17.25C34.7206 16.11 35.1901 14.3228 35.1901 13.3673C35.1901 12.9548 34.8571 12.6225 34.4446 12.6195H34.4401C34.0298 12.6195 33.6953 12.9518 33.6901 13.3628C33.6893 13.4603 33.6331 15.7523 31.2091 16.536C30.8993 16.6358 30.6901 16.9245 30.6901 17.2493C30.6901 17.574 30.9001 17.8628 31.2091 17.9625C33.6308 18.7463 33.6886 21.0353 33.6901 21.1358V21.1373Z" fill="#0F172A"/>
<path d="M42.75 33C41.3655 33 40.1678 33.7628 39.5175 34.8818L36.4343 33.8535L34.2668 31.326C34.4378 30.987 34.5825 30.627 34.6973 30.2453C36.339 29.9633 38.8088 29.1293 40.0943 26.6715C41.1038 24.7395 41.0528 23.0505 40.7505 21.8393C41.751 21.0713 42.7493 19.6958 42.7493 17.2493C42.7493 14.8028 41.751 13.428 40.7505 12.6593C41.0528 11.448 41.103 9.75902 40.0943 7.82627C38.8088 5.36927 36.3383 4.53527 34.6973 4.25327C33.9075 1.65227 31.7753 -0.000732422 29.1398 -0.000732422C26.688 -0.000732422 24.927 0.942768 23.9993 2.66102C23.0715 0.942768 21.3105 -0.000732422 18.8588 -0.000732422C16.218 -0.000732422 14.0828 1.65977 13.3013 4.25327C11.6595 4.53527 9.18978 5.36927 7.90428 7.82702C6.89478 9.75902 6.94578 11.448 7.24803 12.6593C6.24753 13.4273 5.24929 14.8028 5.24929 17.2493C5.24929 19.6958 6.24753 21.0705 7.24803 21.8393C6.94578 23.0505 6.89553 24.7395 7.90428 26.6723C9.18978 29.1293 11.6603 29.9633 13.3013 30.2453C13.4168 30.6263 13.563 30.9855 13.7333 31.3238L11.5643 33.8535L8.48103 34.8818C7.83153 33.7628 6.63304 33 5.24854 33C3.18079 33 1.49854 34.6823 1.49854 36.75C1.49854 38.8178 3.18079 40.5 5.24854 40.5C7.31629 40.5 8.99854 38.8178 8.99854 36.75C8.99854 36.5978 8.97153 36.4523 8.95354 36.3045L12.2355 35.211C12.3645 35.1683 12.4793 35.091 12.5678 34.9875L14.604 32.6115C15.6038 33.7403 16.995 34.4183 18.5858 34.488L18.0638 37.0988L15.7875 39.0503C15.1523 38.556 14.364 38.2493 13.4993 38.2493C11.4315 38.2493 9.74928 39.9315 9.74928 41.9993C9.74928 44.067 11.4315 45.7493 13.4993 45.7493C15.567 45.7493 17.2493 44.067 17.2493 41.9993C17.2493 41.34 17.0633 40.7288 16.7633 40.1895L19.2375 38.0685C19.365 37.959 19.452 37.8105 19.485 37.647L20.1338 34.4048C21.4328 34.2053 22.482 33.6863 23.25 32.8823V40.5758C21.5408 40.9245 20.25 42.4388 20.25 44.25C20.25 46.3178 21.9323 48 24 48C26.0678 48 27.75 46.3178 27.75 44.25C27.75 42.4395 26.4593 40.9245 24.75 40.5758V32.8823C25.518 33.6863 26.5673 34.2045 27.8663 34.4048L28.515 37.647C28.548 37.8113 28.635 37.9598 28.7625 38.0685L31.2368 40.1895C30.9368 40.7288 30.7508 41.34 30.7508 41.9993C30.7508 44.067 32.433 45.7493 34.5008 45.7493C36.5685 45.7493 38.2508 44.067 38.2508 41.9993C38.2508 39.9315 36.5685 38.2493 34.5008 38.2493C33.6353 38.2493 32.8478 38.556 32.2125 39.0503L29.9363 37.0988L29.4143 34.488C31.0065 34.4175 32.3985 33.7395 33.3975 32.613L35.4323 34.9868C35.5208 35.0903 35.6355 35.1675 35.7645 35.2103L39.0465 36.3038C39.0285 36.4515 39.0015 36.5963 39.0015 36.7493C39.0015 38.817 40.6838 40.4993 42.7515 40.4993C44.8193 40.4993 46.5015 38.817 46.5015 36.7493C46.5015 34.6815 44.8193 32.9993 42.7515 32.9993L42.75 33ZM5.25004 39C4.00954 39 3.00004 37.9905 3.00004 36.75C3.00004 35.5095 4.00954 34.5 5.25004 34.5C6.49054 34.5 7.50004 35.5095 7.50004 36.75C7.50004 37.9905 6.49054 39 5.25004 39ZM13.5 44.25C12.2595 44.25 11.25 43.2405 11.25 42C11.25 40.7595 12.2595 39.75 13.5 39.75C14.7405 39.75 15.75 40.7595 15.75 42C15.75 43.2405 14.7405 44.25 13.5 44.25ZM36.75 42C36.75 43.2405 35.7405 44.25 34.5 44.25C33.2595 44.25 32.25 43.2405 32.25 42C32.25 40.7595 33.2595 39.75 34.5 39.75C35.7405 39.75 36.75 40.7595 36.75 42ZM18.8595 33C16.7858 33 15.126 31.5908 14.6258 29.3903C14.5155 28.962 14.4593 28.4858 14.4593 27.975C14.4593 26.2388 15.0645 25.158 15.5723 24.5573C15.8393 24.2408 15.8003 23.7675 15.4838 23.5005C15.1673 23.2328 14.694 23.2725 14.427 23.589C13.7573 24.381 12.9593 25.785 12.9593 27.975C12.9593 28.2075 12.9795 28.428 12.9983 28.6493C11.7105 28.3388 10.098 27.6278 9.23479 25.9778C8.54403 24.6563 8.47728 23.4915 8.62278 22.5953C9.50704 22.9238 10.2308 22.9485 10.2705 22.95H10.2908C10.6943 22.95 11.0258 22.629 11.0385 22.2233C11.0513 21.81 10.7265 21.465 10.314 21.45C10.305 21.45 9.39003 21.411 8.50428 20.886C7.34103 20.1938 6.75079 18.9705 6.75079 17.25C6.75079 15.5295 7.34104 14.3063 8.50354 13.6148C9.38254 13.0935 10.29 13.0508 10.314 13.05C10.7265 13.0365 11.052 12.693 11.0408 12.2805C11.0303 11.8665 10.692 11.5493 10.2713 11.55C10.2315 11.5508 9.50778 11.5763 8.62354 11.9048C8.47803 11.0085 8.54479 9.84377 9.23554 8.52302C10.0988 6.87227 11.712 6.16127 12.9998 5.85077C12.981 6.07202 12.9608 6.29327 12.9608 6.52502C12.9608 8.71502 13.7588 10.119 14.4285 10.911C14.577 11.0865 14.7885 11.1765 15.0015 11.1765C15.1725 11.1765 15.345 11.1188 15.4853 10.9995C15.8018 10.7325 15.8415 10.2593 15.5738 9.94277C15.066 9.34202 14.4608 8.26202 14.4608 6.52502C14.4608 6.01427 14.517 5.53877 14.6325 5.08952C15.1275 2.90927 16.788 1.50002 18.861 1.50002C21.774 1.50002 23.2515 3.01427 23.2515 6.00002V13.101C22.2135 11.841 20.862 11.0738 19.9523 10.7648C19.5623 10.6335 19.137 10.842 19.0028 11.2328C18.8693 11.6235 19.0778 12.0495 19.4685 12.1853C19.623 12.2385 23.2515 13.5368 23.2515 17.2508C23.2515 20.9648 19.623 22.263 19.47 22.3155C19.0778 22.449 18.8678 22.875 19.0013 23.2673C19.107 23.58 19.3988 23.7765 19.7115 23.7765C19.791 23.7765 19.8728 23.7638 19.9523 23.7368C20.862 23.4278 22.2135 22.6598 23.2515 21.4005V28.5015C23.2515 31.4873 21.7748 33.0015 18.861 33.0015L18.8595 33ZM26.25 44.25C26.25 45.4905 25.2405 46.5 24 46.5C22.7595 46.5 21.75 45.4905 21.75 44.25C21.75 43.0095 22.7595 42 24 42C25.2405 42 26.25 43.0095 26.25 44.25ZM29.1405 33C26.2275 33 24.75 31.4858 24.75 28.5V21.399C25.788 22.659 27.1395 23.4263 28.0493 23.7353C28.1288 23.7623 28.2098 23.775 28.29 23.775C28.602 23.775 28.8923 23.5785 28.9988 23.2673C29.1323 22.8765 28.9238 22.4505 28.533 22.3148C28.3785 22.2615 24.75 20.9633 24.75 17.2493C24.75 13.5353 28.3785 12.237 28.5315 12.1845C28.9238 12.051 29.1338 11.625 29.0003 11.2328C28.8668 10.8405 28.4415 10.6298 28.0493 10.7633C27.1395 11.0723 25.788 11.8403 24.75 13.0995V5.99852C24.75 3.01277 26.2268 1.49852 29.1405 1.49852C31.2143 1.49852 32.874 2.90777 33.3743 5.10827C33.4845 5.53652 33.5408 6.01277 33.5408 6.52352C33.5408 8.25977 32.9355 9.34052 32.4278 9.94127C32.1608 10.2578 32.1998 10.731 32.5163 10.998C32.8328 11.2658 33.306 11.2268 33.573 10.9095C34.2428 10.1175 35.0408 8.71352 35.0408 6.52352C35.0408 6.29102 35.0205 6.07052 35.0018 5.84927C36.2895 6.15977 37.902 6.87077 38.7653 8.52077C39.456 9.84227 39.5228 11.007 39.3773 11.9033C38.493 11.5748 37.7693 11.55 37.7295 11.5485C37.3005 11.5553 36.975 11.8628 36.9623 12.2753C36.9495 12.6885 37.2743 13.0335 37.6868 13.0485C37.6958 13.0485 38.6108 13.0875 39.4965 13.6125C40.6598 14.3048 41.25 15.528 41.25 17.2485C41.25 18.969 40.6598 20.1923 39.4973 20.8838C38.6183 21.405 37.7108 21.4478 37.6868 21.4485C37.2743 21.462 36.9488 21.8055 36.96 22.218C36.9705 22.6253 37.3043 22.9485 37.7093 22.9485H37.7295C37.7693 22.9478 38.493 22.9223 39.3773 22.5938C39.5228 23.49 39.456 24.6548 38.7653 25.9755C37.902 27.6263 36.2888 28.3373 35.001 28.6478C35.0198 28.4265 35.04 28.2053 35.04 27.9735C35.04 25.7835 34.242 24.3795 33.5723 23.5875C33.3053 23.271 32.8313 23.2305 32.5155 23.499C32.199 23.766 32.1593 24.2393 32.427 24.5558C32.9348 25.1565 33.54 26.2365 33.54 27.9735C33.54 28.4843 33.4838 28.9598 33.3683 29.409C32.8733 31.5893 31.2128 32.9985 29.1398 32.9985L29.1405 33ZM42.75 39C41.5095 39 40.5 37.9905 40.5 36.75C40.5 35.5095 41.5095 34.5 42.75 34.5C43.9905 34.5 45 35.5095 45 36.75C45 37.9905 43.9905 39 42.75 39Z" fill="#0F172A"/>
</g>
<defs>
<clipPath id="clip0_1146_218">
<rect width="48" height="48" fill="white"/>
</clipPath>
</defs>
</svg>
