<svg width="68" height="68" viewBox="0 0 68 68" fill="none" xmlns="http://www.w3.org/2000/svg">
<g clip-path="url(#clip0_1953_142)">
<path d="M14.5526 26.3675C15.5806 21.7296 20.0763 17.4796 24.7274 16.5778C27.5616 16.0121 35.4639 15.3121 40.6928 15.3692C45.9203 15.3121 53.8239 16.0121 56.6582 16.5778C61.3066 17.4796 65.805 21.7296 66.8316 26.3675C67.4173 29.1831 67.9911 33.0081 68.0004 38.2435C68.0096 43.479 67.4173 47.304 66.8316 50.121C66.4579 51.7024 65.763 53.1901 64.7903 54.4918C65.8917 57.8201 66.9126 61.1727 67.8529 64.5497C68.5489 67.02 66.3282 68.817 64.0585 67.6203C59.8244 65.4068 55.6656 63.0573 51.5821 60.572C48.1422 60.9027 43.9108 61.1537 40.6914 61.1192C35.4626 61.1763 27.5589 60.4764 24.7261 59.9092C20.0776 59.0074 15.5793 54.7588 14.5513 50.121C13.9669 47.304 13.3918 43.4737 13.3839 38.2435C13.3759 33.0134 13.9682 29.1831 14.5526 26.3675Z" fill="#3A92FF"/>
<path d="M53.4478 11.0009C52.4199 6.36311 47.9242 2.11444 43.2731 1.21264C40.4389 0.64553 32.5392 -0.0543918 27.3077 6.13551e-05C22.0802 -0.0543918 14.1765 0.64553 11.3423 1.21264C6.69386 2.11444 2.1955 6.36311 1.16886 11.0009C0.583155 13.8126 0.0094049 17.6482 0.000108027 22.8783C-0.00918885 28.1085 0.583155 31.9388 1.16886 34.7544C1.54207 36.3361 2.23694 37.8239 3.21019 39.1253C2.10961 42.4536 1.08873 45.8066 0.14753 49.1845C-0.548408 51.6535 1.67222 53.4505 3.94198 52.2551C8.17605 50.0416 12.3348 47.6917 16.4184 45.2055C19.8582 45.5362 24.0896 45.7885 27.309 45.7526C32.5378 45.8097 40.4415 45.1098 43.2744 44.544C47.9228 43.6423 52.4212 39.3936 53.4492 34.7544C54.0335 31.9388 54.6086 28.1138 54.6166 22.8783C54.6246 17.6429 54.0322 13.8126 53.4478 11.0009Z" fill="#FFA351"/>
<path d="M3.21019 39.1253C6.75948 40.3932 10.5005 41.0405 14.2695 41.0391C32.4515 41.0391 47.191 26.2969 47.191 8.11756C47.1912 6.23154 47.0303 4.34896 46.7103 2.4903C45.6376 1.88996 44.478 1.46026 43.2731 1.21662C40.4389 0.64553 32.5392 -0.0543918 27.3077 6.13555e-05C22.0802 -0.0543918 14.1765 0.64553 11.3423 1.21264C6.69386 2.11444 2.1955 6.36311 1.16886 11.0009C0.583155 13.8126 0.0094049 17.6482 0.000108027 22.8783C-0.00918885 28.1085 0.583155 31.9388 1.16886 34.7544C1.54207 36.3361 2.23694 37.8239 3.21019 39.1253Z" fill="#FFC14B"/>
<path d="M41.2064 19.1133H13.4141C12.7448 19.1133 12.103 18.8474 11.6297 18.3742C11.1565 17.9009 10.8906 17.2591 10.8906 16.5898C10.8906 15.9206 11.1565 15.2787 11.6297 14.8055C12.103 14.3323 12.7448 14.0664 13.4141 14.0664H41.2064C41.8757 14.0664 42.5175 14.3323 42.9907 14.8055C43.464 15.2787 43.7298 15.9206 43.7298 16.5898C43.7298 17.2591 43.464 17.9009 42.9907 18.3742C42.5175 18.8474 41.8757 19.1133 41.2064 19.1133ZM29.325 31.9018H13.4141C12.7448 31.9018 12.103 31.6359 11.6297 31.1627C11.1565 30.6895 10.8906 30.0476 10.8906 29.3784C10.8906 28.7091 11.1565 28.0673 11.6297 27.594C12.103 27.1208 12.7448 26.8549 13.4141 26.8549H29.325C29.9943 26.8549 30.6361 27.1208 31.1093 27.594C31.5826 28.0673 31.8484 28.7091 31.8484 29.3784C31.8484 30.0476 31.5826 30.6895 31.1093 31.1627C30.6361 31.6359 29.9943 31.9018 29.325 31.9018Z" fill="white"/>
</g>
<defs>
<clipPath id="clip0_1953_142">
<rect width="68" height="68" fill="white"/>
</clipPath>
</defs>
</svg>
