<svg width="76" height="72" viewBox="0 0 76 72" fill="none" xmlns="http://www.w3.org/2000/svg">
<path d="M57.1562 0H10.6562C4.77097 0 0 4.77097 0 10.6562V53.2812C0 59.1665 4.77097 63.9375 10.6562 63.9375H57.1562C63.0415 63.9375 67.8125 59.1665 67.8125 53.2812V10.6562C67.8125 4.77097 63.0415 0 57.1562 0Z" fill="#FFC14B"/>
<path d="M67.8125 10.6562V21.3125H0V10.6562C0 4.76625 4.76625 0 10.6562 0H57.1562C63.0462 0 67.8125 4.76625 67.8125 10.6562Z" fill="#FFA351"/>
<path d="M53.2812 71.6875C65.5868 71.6875 75.5625 61.7118 75.5625 49.4062C75.5625 37.1007 65.5868 27.125 53.2812 27.125C40.9757 27.125 31 37.1007 31 49.4062C31 61.7118 40.9757 71.6875 53.2812 71.6875Z" fill="#3A92FF"/>
<path d="M57.1562 56.1875C56.4122 56.1875 55.6682 55.9046 55.1025 55.335L51.2275 51.46C50.6811 50.9136 50.375 50.1774 50.375 49.4062V41.6562C50.375 40.052 51.677 38.75 53.2812 38.75C54.8855 38.75 56.1875 40.052 56.1875 41.6562V48.2011L59.21 51.2236C60.3454 52.359 60.3454 54.1996 59.21 55.335C58.6443 55.9008 57.9002 56.1875 57.1562 56.1875Z" fill="white"/>
</svg>
