<svg width="48" height="48" viewBox="0 0 48 48" fill="none" xmlns="http://www.w3.org/2000/svg">
<path d="M8.67013 11.4478H19.5937C20.5319 11.4478 21.2926 12.2084 21.2926 13.1467V34.8533C21.2926 35.7916 20.532 36.5523 19.5937 36.5523H8.67013C7.73188 36.5523 6.97119 35.7917 6.97119 34.8533V13.1467C6.97119 12.2084 7.73179 11.4478 8.67013 11.4478ZM36.8743 35.7276L41.0665 38.1447C41.3032 38.2812 41.4491 38.5337 41.4491 38.807V43.6486C41.4491 43.9219 41.3032 44.1743 41.0665 44.3108L36.8743 46.728C36.6379 46.8642 36.3469 46.8642 36.1106 46.728L31.9183 44.3108C31.6815 44.1743 31.5357 43.9219 31.5357 43.6486V38.807C31.5357 38.5337 31.6815 38.2812 31.9183 38.1447L36.1106 35.7276C36.3469 35.5912 36.6379 35.5912 36.8743 35.7276ZM36.8743 1.27209L41.0665 3.68924C41.3032 3.82574 41.4491 4.07821 41.4491 4.35149V9.19312C41.4491 9.4664 41.3032 9.71887 41.0665 9.85537L36.8743 12.2725C36.6379 12.4087 36.3469 12.4087 36.1106 12.2725L31.9183 9.85537C31.6815 9.71887 31.5357 9.4664 31.5357 9.19312V4.35149C31.5357 4.07821 31.6815 3.82574 31.9183 3.68924L36.1106 1.27209C36.3469 1.13587 36.6379 1.13587 36.8743 1.27209Z" fill="#075BF9"/>
<path d="M41.3376 20.885V27.4211C41.3376 28.2923 40.6315 28.9984 39.7604 28.9984H33.2242C32.3531 28.9984 31.647 28.2923 31.647 27.4211V20.885C31.647 20.0139 32.3531 19.3077 33.2242 19.3077H39.7604C40.6315 19.3077 41.3376 20.0139 41.3376 20.885Z" fill="#FEFDFE"/>
<path d="M19.3835 10.8406H8.45996C7.18843 10.8406 6.15381 11.8752 6.15381 13.1469V34.8532C6.15381 36.1249 7.18843 37.1596 8.45996 37.1596H19.3835C20.6551 37.1596 21.6896 36.1249 21.6896 34.8532V13.1469C21.6897 11.8752 20.6551 10.8406 19.3835 10.8406ZM20.4753 34.8532C20.4753 35.4552 19.9856 35.9452 19.3836 35.9452H8.45996C7.858 35.9452 7.36825 35.4552 7.36825 34.8532V13.1469C7.36825 12.5449 7.858 12.0549 8.45996 12.0549H19.3835C19.9855 12.0549 20.4752 12.5449 20.4752 13.1469V34.8532H20.4753ZM29.0081 24.607C29.3434 24.607 29.6153 24.3352 29.6153 23.9998C29.6153 23.6643 29.3435 23.3926 29.0081 23.3926H26.0547V10.5787C26.0547 8.91699 27.3006 7.54805 28.9526 7.3943C29.2865 7.36346 29.5321 7.06749 29.5009 6.73355C29.4699 6.40008 29.1729 6.15962 28.8402 6.18521C26.5599 6.39774 24.8403 8.28615 24.8403 10.5787V23.3926H23.5096C23.1742 23.3926 22.9023 23.6644 22.9023 23.9999C22.9023 24.3353 23.1741 24.6071 23.5096 24.6071H24.8403V37.4215C24.8403 39.7141 26.5599 41.6026 28.8402 41.815C28.8594 41.8164 28.8783 41.8173 28.8971 41.8173C29.2071 41.8173 29.4718 41.5811 29.5009 41.2666C29.532 40.9327 29.2865 40.6366 28.9526 40.6059C27.3006 40.4522 26.0547 39.0832 26.0547 37.4215V24.607H29.0081ZM41.1599 37.6187L36.9675 35.2014H36.9672C36.545 34.958 36.0198 34.958 35.5972 35.2014L31.4045 37.6187C30.9814 37.8631 30.7184 38.3184 30.7184 38.807V43.6484C30.7184 44.1375 30.9814 44.5928 31.4048 44.8371L35.5975 47.254C35.8086 47.3759 36.0455 47.4366 36.2822 47.4366C36.5192 47.4366 36.7562 47.3759 36.9675 47.254L41.1602 44.8371C41.5832 44.5928 41.8463 44.1375 41.8463 43.6484V38.807C41.8462 38.3185 41.5832 37.8631 41.1599 37.6187ZM40.6319 43.6484C40.6319 43.7048 40.6018 43.757 40.5531 43.785L36.361 46.2018C36.3128 46.2293 36.2526 46.2299 36.204 46.2018L32.0118 43.785C31.963 43.7569 31.9329 43.7048 31.9329 43.6484V38.807C31.9329 38.7511 31.963 38.6988 32.0117 38.6709L36.2038 36.2536C36.228 36.2398 36.2552 36.2326 36.2825 36.2326C36.3095 36.2326 36.3368 36.2398 36.361 36.2536H36.3607L40.5528 38.6709C40.6017 38.6989 40.6318 38.7511 40.6318 38.807L40.6319 43.6484ZM41.1599 3.16299L36.9675 0.746115C36.9672 0.746115 36.9672 0.746115 36.9672 0.746115C36.545 0.502271 36.0198 0.502271 35.5972 0.746115L31.4045 3.16299C30.9814 3.4073 30.7184 3.86265 30.7184 4.35174V9.19308C30.7184 9.68171 30.9814 10.1371 31.4048 10.3814L35.5975 12.7987C35.8086 12.9206 36.0455 12.9813 36.2822 12.9813C36.5192 12.9813 36.7562 12.9206 36.9675 12.7987L41.1602 10.3814C41.5832 10.1371 41.8463 9.68171 41.8463 9.19308V4.35174C41.8462 3.86274 41.5832 3.4073 41.1599 3.16299ZM40.6319 9.19308C40.6319 9.24905 40.6018 9.30127 40.5531 9.32921L36.361 11.7466C36.3128 11.774 36.2526 11.774 36.204 11.7466L32.0118 9.32921C31.963 9.30118 31.9329 9.24905 31.9329 9.19308V4.35174C31.9329 4.2953 31.963 4.24308 32.0117 4.21515L36.2038 1.79827C36.228 1.78449 36.2552 1.77737 36.2825 1.77737C36.3095 1.77737 36.3368 1.78449 36.361 1.79827H36.3607L40.5528 4.21515C40.6017 4.24318 40.6318 4.2953 40.6318 4.35174L40.6319 9.19308ZM33.0143 29.6054H39.5503C40.7547 29.6054 41.7347 28.6253 41.7347 27.4209V20.8851C41.7347 19.6807 40.7547 18.7006 39.5503 18.7006H33.0143C31.8099 18.7006 30.8298 19.6807 30.8298 20.8851V27.4209C30.8299 28.6253 31.81 29.6054 33.0143 29.6054ZM32.0443 20.8852C32.0443 20.3501 32.4795 19.9152 33.0143 19.9152H39.5503C40.0851 19.9152 40.5203 20.3502 40.5203 20.8852V27.421C40.5203 27.9561 40.0851 28.391 39.5503 28.391H33.0143C32.4795 28.391 32.0443 27.956 32.0443 27.421V20.8852Z" fill="#0F172A"/>
</svg>
