<svg width="44" height="48" viewBox="0 0 44 48" fill="none" xmlns="http://www.w3.org/2000/svg">
<path d="M26.3456 16.0662C25.9485 15.7721 25.5221 15.5147 25.0735 15.3088C24.1026 14.8531 23.0431 14.6171 21.9706 14.6176C20.0588 14.6176 18.3235 15.3456 17.0221 16.5515C16.6471 16.8897 16.3088 17.2721 16.0221 17.6765C15.1241 18.9278 14.6454 20.4314 14.6546 21.9716C14.6639 23.5118 15.1606 25.0095 16.0735 26.25C16.7508 27.1785 17.6381 27.9337 18.663 28.4538C19.6879 28.9739 20.8213 29.2442 21.9706 29.2426C23.7592 29.2401 25.4851 28.5827 26.8221 27.3946C28.1592 26.2066 29.015 24.5701 29.2279 22.7941C29.3793 21.5184 29.1927 20.2254 28.6868 19.0445C28.1809 17.8637 27.3735 16.8366 26.3456 16.0662ZM22.7059 39.0809V30.6765C22.4559 30.7059 22.2132 30.7132 21.9706 30.7132C21.7206 30.7132 21.4779 30.7059 21.2353 30.6765V39.0809C19.3603 39.4265 17.9412 41.0662 17.9412 43.0368C17.9412 45.25 19.75 47.0588 21.9706 47.0588C24.1838 47.0588 25.9926 45.25 25.9926 43.0368C25.9926 41.0662 24.5735 39.4265 22.7059 39.0809ZM39.9118 20.6471C38.9911 20.6477 38.0983 20.9631 37.3814 21.5408C36.6646 22.1186 36.1668 22.924 35.9706 23.8235L30.6765 23.0147C30.625 23.4926 30.5221 23.9853 30.375 24.4632L35.9412 25.3088C36.2426 27.2279 37.9118 28.6912 39.9118 28.6912C42.1324 28.6912 43.9338 26.8897 43.9338 24.6691C43.9338 22.4485 42.1324 20.6471 39.9118 20.6471ZM8.97059 10.8971C9.63235 10.8971 10.2647 10.7353 10.8162 10.4485L15.125 16.4265C15.3971 16.0809 15.7059 15.7574 16.0368 15.4632C16.0809 15.4265 16.1176 15.3897 16.1618 15.3529L11.9706 9.54412C12.6103 8.83823 12.9926 7.89706 12.9926 6.86765C12.9926 4.65441 11.1912 2.84559 8.97059 2.84559C6.75 2.84559 4.94853 4.65441 4.94853 6.86765C4.94853 9.08823 6.75 10.8971 8.97059 10.8971ZM27.1765 14.8529L31.9926 7.79412C32.4191 7.95588 32.8824 8.04412 33.3603 8.04412C35.5809 8.04412 37.3897 6.24265 37.3897 4.02206C37.3897 1.80147 35.5809 0 33.3603 0C31.1471 0 29.3382 1.80147 29.3382 4.02206C29.3382 5.22794 29.875 6.30882 30.7206 7.04412L25.9118 14.0809C26.3382 14.2941 26.7721 14.5515 27.1765 14.8529ZM13.9853 25.5956L7.25735 28.6985C6.88737 28.1871 6.40102 27.771 5.83847 27.4846C5.27592 27.1982 4.65331 27.0497 4.02206 27.0515C1.80882 27.0515 0 28.8603 0 31.0735C0 33.2941 1.80882 35.0956 4.02206 35.0956C6.24265 35.0956 8.05147 33.2941 8.05147 31.0735C8.05147 30.7059 8 30.3603 7.90441 30.0221L14.7132 26.875C14.4265 26.4485 14.1838 26.0221 13.9853 25.5956Z" fill="#3A92FF"/>
<path d="M26.3456 16.0661C25.9485 15.772 25.522 15.5147 25.0735 15.3088C24.1026 14.8531 23.0431 14.6171 21.9706 14.6176C20.0588 14.6176 18.3235 15.3455 17.0221 16.5514C16.6471 16.8897 16.3088 17.272 16.0221 17.6764C15.1241 18.9278 14.6454 20.4314 14.6546 21.9715C14.6639 23.5117 15.1606 25.0095 16.0735 26.25C16.7508 27.1785 17.6381 27.9336 18.663 28.4538C19.6879 28.9739 20.8213 29.2442 21.9706 29.2426C23.7592 29.24 25.4851 28.5827 26.8221 27.3946C28.1592 26.2065 29.015 24.57 29.2279 22.7941C29.3793 21.5184 29.1927 20.2253 28.6868 19.0445C28.1809 17.8637 27.3735 16.8366 26.3456 16.0661Z" fill="#FFC14B"/>
</svg>
