<svg width="44" height="44" viewBox="0 0 44 44" fill="none" xmlns="http://www.w3.org/2000/svg">
<path d="M2.61834 15.9653C2.7602 16.4543 3.19747 16.7826 3.70646 16.7826H5.17055V17.8079C5.17055 18.7354 5.85367 19.5005 6.74207 19.6418V33.2306C5.85367 33.3719 5.17055 34.1371 5.17055 35.0646V36.0895H4.25936C3.06445 36.0895 2.09229 37.062 2.09229 38.2569V40.0995C2.09229 40.3674 2.30966 40.5848 2.57758 40.5848H39.9313C40.1992 40.5848 40.4166 40.3674 40.4166 40.0995V38.2569C40.4166 37.062 39.4445 36.0895 38.2495 36.0895H37.3384V35.0646C37.3384 34.1371 36.6553 33.3721 35.7668 33.2306V19.6418C36.6553 19.5003 37.3384 18.7353 37.3384 17.8079V16.7826H38.8012C39.3105 16.7826 39.7478 16.454 39.8896 15.9649C40.0312 15.4759 39.8372 14.9643 39.4069 14.6923L21.8554 3.59152C21.4876 3.35741 21.0115 3.35772 20.6437 3.59121L3.10047 14.6923C2.67047 14.965 2.47679 15.4765 2.61834 15.9653ZM6.14114 17.8079V16.7826H12.9643V17.8079C12.9643 18.3001 12.5637 18.7007 12.0715 18.7007C11.0436 18.7007 8.67727 18.7007 7.03401 18.7007C6.54176 18.7007 6.14114 18.3001 6.14114 17.8079ZM16.872 16.7826V17.8079C16.872 18.7353 17.555 19.5003 18.4435 19.6418V33.2306C17.555 33.3721 16.872 34.1371 16.872 35.0646V36.0895H13.9349V35.0646C13.9349 34.1371 13.2518 33.3719 12.3634 33.2306V19.6418C13.2518 19.5005 13.9349 18.7354 13.9349 17.8079V16.7826H16.872ZM28.5737 16.7826V17.8079C28.5737 18.7353 29.2568 19.5003 30.1452 19.6418V33.2306C29.2568 33.3721 28.5737 34.1371 28.5737 35.0646V36.0895H25.6366V35.0646C25.6366 34.1371 24.9536 33.3721 24.0651 33.2306V19.6418C24.9536 19.5003 25.6366 18.7353 25.6366 17.8079V16.7826H28.5737ZM34.7962 33.2011H31.1158V19.6713H34.7962V33.2011ZM23.0945 33.2011H19.4141V19.6713H23.0945V33.2011ZM18.7357 34.1717C19.7631 34.1717 22.1297 34.1717 23.7729 34.1717C24.2654 34.1717 24.666 34.5723 24.666 35.0646V36.0895H17.8425V35.0646C17.8425 34.5723 18.2432 34.1717 18.7357 34.1717ZM24.666 17.8079C24.666 18.3001 24.2654 18.7007 23.7729 18.7007C23.652 18.7007 18.4661 18.7007 18.7357 18.7007C18.2432 18.7007 17.8425 18.3001 17.8425 17.8079V16.7826H24.666V17.8079ZM7.71266 19.6713H11.3928V33.2011H7.71266V19.6713ZM6.14114 35.0646C6.14114 34.5723 6.54176 34.1717 7.03401 34.1717C8.06185 34.1717 10.4282 34.1717 12.0715 34.1717C12.5637 34.1717 12.9643 34.5723 12.9643 35.0646V36.0895H6.14114V35.0646ZM39.446 38.2569V39.6142H3.06287V38.2569C3.06287 37.5972 3.59967 37.0601 4.25936 37.0601C15.5995 37.0601 26.9535 37.0601 38.2495 37.0601C38.9092 37.0601 39.446 37.5972 39.446 38.2569ZM36.3678 35.0646V36.0895H29.5443V35.0646C29.5443 34.5723 29.9449 34.1717 30.4374 34.1717H30.6305H35.2815H35.4746C35.9671 34.1717 36.3678 34.5723 36.3678 35.0646ZM36.3678 17.8079C36.3678 18.3001 35.9671 18.7007 35.4746 18.7007C35.3537 18.7007 30.1679 18.7007 30.4374 18.7007C29.9449 18.7007 29.5443 18.3001 29.5443 17.8079V16.7826H36.3678V17.8079ZM3.61957 15.5125L21.1625 4.41141C21.1891 4.39466 21.2191 4.38645 21.2494 4.38645C21.2797 4.38645 21.3097 4.39466 21.3363 4.41141L38.8881 15.5125C38.9734 15.5665 38.9727 15.6414 38.9573 15.6948C38.9418 15.7482 38.902 15.812 38.8012 15.812C22.7637 15.812 18.4405 15.812 3.70646 15.812C3.60567 15.812 3.56618 15.7485 3.5507 15.6951C3.53521 15.6414 3.53458 15.5665 3.61957 15.5125Z" fill="white"/>
</svg>
