<svg width="32" height="32" viewBox="0 0 32 32" fill="none" xmlns="http://www.w3.org/2000/svg">
<path d="M30.5 19.0299V26.9699L24 30.5799L17.5 26.9699V19.0299L24 15.4199L30.5 19.0299Z" fill="#EFF3F9"/>
<path d="M24 30.58L17.5 26.97V19.03L24 22.72V30.58Z" fill="#CFE0F3"/>
<path d="M30.5 19.03V26.97L24 30.58V22.72L30.5 19.03Z" fill="#075BF9"/>
<path d="M22.5 5.11V13.05L16 16.66L9.5 13.05V5.11L16 1.5L22.5 5.11Z" fill="#EFF3F9"/>
<path d="M16 16.6601L9.5 13.0501V5.11011L16 8.80011V16.6601Z" fill="#CFE0F3"/>
<path d="M22.5 5.11011V13.0501L16 16.6601V8.80011L22.5 5.11011Z" fill="#075BF9"/>
<path d="M14.5 19.0299V26.9699L8 30.5799L1.5 26.9699V19.0299L8 15.4199L14.5 19.0299Z" fill="#EFF3F9"/>
<path d="M8 30.58L1.5 26.97V19.03L8 22.72V30.58Z" fill="#CFE0F3"/>
<path d="M14.5 19.03V26.97L8 30.58V22.72L14.5 19.03Z" fill="#075BF9"/>
<path d="M17.5 23.5H14.5C14.22 23.5 14 23.28 14 23C14 22.72 14.22 22.5 14.5 22.5H17.5C17.78 22.5 18 22.72 18 23C18 23.28 17.78 23.5 17.5 23.5Z" fill="#1E2637"/>
<path d="M21.38 17.41C21.29 17.41 21.2 17.39 21.11 17.33L18.38 15.62C18.15 15.47 18.08 15.16 18.22 14.93C18.37 14.7 18.68 14.63 18.91 14.77L21.64 16.48C21.87 16.63 21.94 16.94 21.8 17.17C21.71 17.33 21.55 17.41 21.38 17.41Z" fill="#1E2637"/>
<path d="M10.66 17.41C10.49 17.41 10.33 17.33 10.24 17.18C10.09 16.95 10.16 16.64 10.4 16.49L13.13 14.78C13.37 14.63 13.67 14.7 13.82 14.94C13.97 15.17 13.9 15.48 13.66 15.63L10.93 17.34C10.84 17.39 10.75 17.41 10.66 17.41Z" fill="#1E2637"/>
<path d="M16 9.29983C15.83 9.29983 15.66 9.20983 15.57 9.04983C15.43 8.80983 15.52 8.50983 15.76 8.36983L22.25 4.65983C22.49 4.51983 22.79 4.59983 22.93 4.84983C23.07 5.08983 22.98 5.38983 22.74 5.52983L16.25 9.23983C16.17 9.27983 16.09 9.29983 16 9.29983Z" fill="#1E2637"/>
<path d="M16 17.08C15.72 17.08 15.5 16.86 15.5 16.58V9.08995L9.26 5.51995C9.02 5.38995 8.94 5.07995 9.08 4.83995C9.21 4.59995 9.52 4.51995 9.76 4.65995L16.25 8.36995C16.41 8.45995 16.5 8.61995 16.5 8.79995V16.58C16.5 16.86 16.28 17.08 16 17.08Z" fill="#1E2637"/>
<path d="M7.99997 23.22C7.82997 23.22 7.65997 23.13 7.56997 22.97C7.42997 22.73 7.51997 22.43 7.75997 22.29L14.25 18.58C14.49 18.44 14.79 18.52 14.93 18.77C15.07 19.01 14.98 19.31 14.74 19.45L8.24997 23.16C8.16997 23.2 8.08997 23.22 7.99997 23.22Z" fill="#1E2637"/>
<path d="M8 31C7.72 31 7.5 30.78 7.5 30.5V23.01L1.26 19.45C1.02 19.31 0.939997 19 1.08 18.76C1.22 18.52 1.53 18.44 1.76 18.57L8.25 22.28C8.41 22.37 8.5 22.53 8.5 22.71V30.49C8.5 30.78 8.28 31 8 31Z" fill="#1E2637"/>
<path d="M24 23.22C23.83 23.22 23.66 23.13 23.57 22.97C23.43 22.73 23.52 22.43 23.76 22.29L30.25 18.58C30.49 18.44 30.79 18.52 30.93 18.77C31.07 19.01 30.98 19.31 30.74 19.45L24.25 23.16C24.17 23.2 24.09 23.22 24 23.22Z" fill="#1E2637"/>
<path d="M24 31C23.72 31 23.5 30.78 23.5 30.5V23.01L17.26 19.45C17.02 19.31 16.94 19.01 17.07 18.77C17.21 18.53 17.51 18.45 17.75 18.58L24.24 22.29C24.4 22.38 24.49 22.54 24.49 22.72V30.5C24.5 30.78 24.28 31 24 31Z" fill="#1E2637"/>
<path d="M20.36 14.75C20.19 14.75 20.02 14.66 19.92 14.49C19.79 14.25 19.87 13.94 20.11 13.81L22 12.77V5.4L16 2.07L10 5.4V12.76L11.91 13.81C12.15 13.94 12.24 14.25 12.11 14.49C11.98 14.73 11.67 14.82 11.43 14.69L9.26 13.5C9.1 13.41 9 13.24 9 13.06V5.11C9 4.93 9.1 4.76 9.26 4.67L15.76 1.06C15.91 0.98 16.09 0.98 16.25 1.06L22.75 4.67C22.9 4.76 23 4.93 23 5.11V13.06C23 13.24 22.9 13.41 22.74 13.5L20.6 14.69C20.53 14.73 20.44 14.75 20.36 14.75Z" fill="#1E2637"/>
<path d="M16 17.17C15.92 17.17 15.83 17.15 15.75 17.11L13.13 15.64C12.89 15.5 12.8 15.2 12.94 14.96C13.08 14.72 13.38 14.63 13.62 14.77L16 16.1L18.41 14.77C18.65 14.64 18.96 14.72 19.09 14.97C19.22 15.21 19.14 15.52 18.89 15.65L16.23 17.12C16.17 17.15 16.08 17.17 16 17.17Z" fill="#1E2637"/>
<path d="M17.5 21.5C17.22 21.5 17 21.28 17 21V19.03C17 18.85 17.1 18.68 17.26 18.59L19.37 17.46C19.61 17.33 19.92 17.42 20.05 17.66C20.18 17.9 20.09 18.21 19.85 18.34L18 19.33V21C18 21.28 17.78 21.5 17.5 21.5Z" fill="#1E2637"/>
<path d="M24 31.0801C23.92 31.0801 23.83 31.0601 23.76 31.0201L17.26 27.4101C17.1 27.3201 17 27.1501 17 26.9701V23.0001C17 22.7201 17.22 22.5001 17.5 22.5001C17.78 22.5001 18 22.7201 18 23.0001V26.6801L24 30.0101L30 26.6801V19.3301L24 16.0001L21.63 17.3501C21.39 17.4901 21.09 17.4001 20.95 17.1601C20.81 16.9201 20.9 16.6101 21.14 16.4801L23.76 14.9901C23.91 14.9001 24.1 14.9001 24.25 14.9901L30.75 18.6001C30.9 18.6801 31 18.8501 31 19.0301V26.9701C31 27.1501 30.9 27.3201 30.74 27.4101L24.24 31.0201C24.17 31.0601 24.08 31.0801 24 31.0801Z" fill="#1E2637"/>
<path d="M14.5 23.4999C14.22 23.4999 14 23.2799 14 22.9999V19.3299L12.14 18.3299C11.9 18.1999 11.81 17.8999 11.94 17.6499C12.07 17.4099 12.38 17.3199 12.62 17.4499L14.75 18.5899C14.9 18.6799 15 18.8499 15 19.0299V22.9999C15 23.2799 14.78 23.4999 14.5 23.4999Z" fill="#1E2637"/>
<path d="M8 31.0799C7.92 31.0799 7.83 31.0599 7.76 31.0199L1.26 27.4099C1.1 27.3199 1 27.1499 1 26.9699V19.0299C1 18.8499 1.1 18.6799 1.26 18.5899L7.76 14.9799C7.91 14.8999 8.1 14.8999 8.25 14.9799L10.91 16.4699C11.15 16.6099 11.24 16.9099 11.1 17.1499C10.97 17.3899 10.66 17.4799 10.42 17.3399L8 15.9899L2 19.3199V26.6699L8 29.9999L14 26.6699V24.9999C14 24.7199 14.22 24.4999 14.5 24.4999C14.78 24.4999 15 24.7199 15 24.9999V26.9699C15 27.1499 14.9 27.3199 14.74 27.4099L8.24 31.0199C8.17 31.0599 8.08 31.0799 8 31.0799Z" fill="#1E2637"/>
</svg>
