<svg width="16" height="16" viewBox="0 0 16 16" fill="none" xmlns="http://www.w3.org/2000/svg">
<g clip-path="url(#clip0_1760_2890)">
<path d="M8 16C6.41775 16 4.87103 15.5308 3.55544 14.6518C2.23984 13.7727 1.21446 12.5233 0.608962 11.0615C0.00346088 9.59966 -0.154964 7.99113 0.153716 6.43928C0.462399 4.88743 1.22432 3.46197 2.34314 2.34315C3.46196 1.22433 4.88743 0.462403 6.43928 0.153721C7.99113 -0.15496 9.59966 0.00346629 11.0615 0.608967C12.5233 1.21447 13.7727 2.23985 14.6518 3.55544C15.5308 4.87104 16 6.41775 16 8C16 10.1217 15.1571 12.1566 13.6569 13.6569C12.1566 15.1571 10.1217 16 8 16ZM10.5667 7.76667L6.9 4.1C6.85341 4.05432 6.79444 4.02332 6.73039 4.01084C6.66635 3.99836 6.60005 4.00495 6.53972 4.02979C6.47938 4.05464 6.42767 4.09664 6.39098 4.1506C6.35429 4.20456 6.33425 4.2681 6.33333 4.33334V5.33334C6.33458 5.42126 6.37053 5.50513 6.43333 5.56667L8.86 8L6.42667 10.4333C6.36386 10.4949 6.32792 10.5787 6.32666 10.6667V11.6667C6.32758 11.7319 6.34763 11.7955 6.38431 11.8494C6.421 11.9034 6.47272 11.9454 6.53305 11.9702C6.59338 11.9951 6.65968 12.0016 6.72373 11.9892C6.78777 11.9767 6.84674 11.9457 6.89333 11.9L10.56 8.23334C10.622 8.1719 10.6574 8.08862 10.6586 8.00137C10.6599 7.91411 10.6269 7.82985 10.5667 7.76667Z" fill="#19AAE9"/>
</g>
<defs>
<clipPath id="clip0_1760_2890">
<rect width="16" height="16" fill="white" transform="matrix(-1 0 0 1 16 0)"/>
</clipPath>
</defs>
</svg>
