<svg width="38" height="38" viewBox="0 0 38 38" fill="none" xmlns="http://www.w3.org/2000/svg">
<path d="M19.9499 32.7752C19.7916 32.7752 19.6332 32.6169 19.4749 32.4586C17.7332 29.9252 13.7749 25.6502 7.28324 25.6502C6.96657 25.6502 6.6499 25.3336 6.6499 25.0169V5.70023C6.6499 5.38356 6.96657 5.06689 7.28324 5.06689C14.4082 5.06689 18.6832 9.65856 20.5832 12.5086C20.5832 12.6669 20.7416 12.8252 20.7416 12.8252V32.1419C20.7416 32.4586 20.5832 32.6169 20.2666 32.7752H19.9499ZM7.91657 24.3836C13.4582 24.5419 17.0999 27.5502 19.3166 30.0836V13.1419C17.5749 10.6086 13.9332 6.80856 7.91657 6.49189V24.3836Z" fill="white"/>
<path d="M19.9499 32.775C19.9499 32.775 19.7916 32.775 19.6332 32.6167C16.9416 30.7167 10.6082 28.5 4.59157 30.7167C4.27491 30.875 3.79991 30.7167 3.79991 30.2417C3.64157 29.925 3.79991 29.45 4.11657 29.45C10.7666 27.075 17.4166 29.2917 20.4249 31.5084C20.7416 31.825 20.7416 32.1417 20.5832 32.4584C20.4249 32.6167 20.2666 32.775 19.9499 32.775ZM4.43324 11.0834C4.11657 11.0834 3.79991 10.925 3.79991 10.6084C3.64157 10.2917 3.79991 9.8167 4.11657 9.8167L6.96657 8.8667C7.28324 8.8667 7.59991 9.02503 7.75824 9.3417C7.91657 9.8167 7.59991 10.1334 7.28324 10.2917C6.33324 10.45 5.38324 10.7667 4.59157 11.0834H4.43324Z" fill="white"/>
<path d="M4.43314 30.8752C3.95814 30.8752 3.7998 30.5586 3.7998 30.2419V10.4502C3.7998 10.1336 4.11647 9.81689 4.43314 9.81689C4.7498 9.81689 5.06647 10.1336 5.06647 10.4502V30.0836C5.06647 30.5586 4.7498 30.8752 4.43314 30.8752ZM19.9498 32.7752C19.4748 32.6169 19.3165 32.4586 19.3165 32.1419V12.8252C19.3165 12.6669 19.3165 12.5086 19.4748 12.5086C21.3748 9.81689 25.8081 5.06689 32.9331 5.06689C33.2498 5.06689 33.5665 5.38356 33.5665 5.70023V25.0169C33.5665 25.3336 33.2498 25.6502 32.9331 25.6502C26.4415 25.6502 22.4831 29.9252 20.7415 32.4586C20.4248 32.6169 20.2665 32.7752 19.9498 32.7752ZM20.7415 13.1419V30.0836C22.9581 27.5502 26.5998 24.5419 32.1415 24.3836V6.49189C26.1248 6.65023 22.4831 10.6086 20.7415 13.1419Z" fill="white"/>
<path d="M19.9501 32.775C19.7918 32.775 19.6334 32.6167 19.4751 32.4584C19.3168 32.1417 19.3168 31.6667 19.6334 31.5084C22.4834 29.45 29.4501 27.075 35.9418 29.45C36.2584 29.6084 36.4168 29.925 36.2584 30.2417C36.1001 30.5584 35.7834 30.7167 35.3084 30.7167C29.2918 28.5 22.9584 30.5584 20.2668 32.6167C20.2668 32.775 20.1084 32.775 19.9501 32.775ZM35.6251 11.0834H35.3084C34.5168 10.7667 33.5668 10.45 32.6168 10.2917C32.1418 10.2917 31.9834 9.81669 31.9834 9.50002C32.1418 9.18336 32.4584 8.86669 32.7751 9.02502C33.8834 9.34169 34.6751 9.50003 35.6251 9.97503C35.9418 10.1334 36.1001 10.45 35.9418 10.7667C36.2584 10.925 35.9418 11.0834 35.6251 11.0834Z" fill="white"/>
<path d="M35.625 30.8752C35.3084 30.8752 34.9917 30.5586 34.9917 30.2419V10.4502C34.9917 10.1336 35.3084 9.81689 35.625 9.81689C35.9417 9.81689 36.2584 10.1336 36.2584 10.4502V30.0836C36.4167 30.5586 36.1 30.8752 35.625 30.8752Z" fill="white"/>
</svg>
