<svg width="32" height="32" viewBox="0 0 32 32" fill="none" xmlns="http://www.w3.org/2000/svg">
<g clip-path="url(#clip0_937_4121)">
<path d="M9.2665 3.2825C9.64 1.639 10.9 0.5 12.573 0.5C15.4265 0.5 15.9995 2.5055 15.9995 4V19C15.9995 20.4945 15.426 22.5 12.573 22.5C10.8995 22.5 9.6395 21.361 9.2665 19.7175C8.413 19.614 6.58 19.2065 5.713 17.55C4.9995 16.1845 5.1795 15.0265 5.413 14.3535C4.7065 13.933 3.9995 13.1045 3.9995 11.5C3.9995 9.8955 4.706 9.067 5.413 8.6465C5.1795 7.9735 4.9995 6.8155 5.713 5.45C6.5795 3.7935 8.413 3.386 9.2665 3.2825Z" fill="#075BF9"/>
<path d="M11.194 11.0246C9.57949 10.5021 9.54099 8.97611 9.53999 8.90911C9.53849 8.63411 9.31499 8.41211 9.03999 8.41211C8.76499 8.41211 8.53999 8.63561 8.53999 8.91211C8.53999 9.54861 8.85299 10.7406 9.92549 11.5006C8.85299 12.2606 8.53999 13.4521 8.53999 14.0891C8.53999 14.3641 8.76199 14.5856 9.03699 14.5876H9.03999C9.31349 14.5876 9.53649 14.3661 9.53999 14.0921C9.54049 14.0271 9.57799 12.4991 11.194 11.9766C11.4005 11.9101 11.54 11.7176 11.54 11.5011C11.54 11.2846 11.4 11.0921 11.194 11.0256V11.0246ZM22.46 14.0916C22.4615 14.3666 22.685 14.5886 22.96 14.5886C23.235 14.5886 23.46 14.3651 23.46 14.0886C23.46 13.4521 23.147 12.2601 22.0745 11.5001C23.147 10.7401 23.46 9.54861 23.46 8.91161C23.46 8.63661 23.238 8.41511 22.963 8.41311H22.96C22.6865 8.41311 22.4635 8.63461 22.46 8.90861C22.4595 8.97361 22.422 10.5016 20.806 11.0241C20.5995 11.0906 20.46 11.2831 20.46 11.4996C20.46 11.7161 20.6 11.9086 20.806 11.9751C22.4205 12.4976 22.459 14.0236 22.46 14.0906V14.0916Z" fill="#0F172A"/>
<path d="M28.5 22C27.577 22 26.7785 22.5085 26.345 23.2545L24.2895 22.569L22.8445 20.884C22.9585 20.658 23.055 20.418 23.1315 20.1635C24.226 19.9755 25.8725 19.4195 26.7295 17.781C27.4025 16.493 27.3685 15.367 27.167 14.5595C27.834 14.0475 28.4995 13.1305 28.4995 11.4995C28.4995 9.86851 27.834 8.95201 27.167 8.43951C27.3685 7.63201 27.402 6.50601 26.7295 5.21751C25.8725 3.57951 24.2255 3.02351 23.1315 2.83551C22.605 1.10151 21.1835 -0.000488281 19.4265 -0.000488281C17.792 -0.000488281 16.618 0.628512 15.9995 1.77401C15.381 0.628512 14.207 -0.000488281 12.5725 -0.000488281C10.812 -0.000488281 9.38849 1.10651 8.86749 2.83551C7.77299 3.02351 6.12649 3.57951 5.26949 5.21801C4.59649 6.50601 4.63049 7.63201 4.83199 8.43951C4.16499 8.95151 3.49949 9.86851 3.49949 11.4995C3.49949 13.1305 4.16499 14.047 4.83199 14.5595C4.63049 15.367 4.59699 16.493 5.26949 17.7815C6.12649 19.4195 7.77349 19.9755 8.86749 20.1635C8.94449 20.4175 9.04199 20.657 9.15549 20.8825L7.70949 22.569L5.65399 23.2545C5.22099 22.5085 4.42199 22 3.49899 22C2.12049 22 0.998993 23.1215 0.998993 24.5C0.998993 25.8785 2.12049 27 3.49899 27C4.87749 27 5.99899 25.8785 5.99899 24.5C5.99899 24.3985 5.98099 24.3015 5.96899 24.203L8.15699 23.474C8.24299 23.4455 8.31949 23.394 8.37849 23.325L9.73599 21.741C10.4025 22.4935 11.33 22.9455 12.3905 22.992L12.0425 24.7325L10.525 26.0335C10.1015 25.704 9.57599 25.4995 8.99949 25.4995C7.62099 25.4995 6.49949 26.621 6.49949 27.9995C6.49949 29.378 7.62099 30.4995 8.99949 30.4995C10.378 30.4995 11.4995 29.378 11.4995 27.9995C11.4995 27.56 11.3755 27.1525 11.1755 26.793L12.825 25.379C12.91 25.306 12.968 25.207 12.99 25.098L13.4225 22.9365C14.2885 22.8035 14.988 22.4575 15.5 21.9215V27.0505C14.3605 27.283 13.5 28.2925 13.5 29.5C13.5 30.8785 14.6215 32 16 32C17.3785 32 18.5 30.8785 18.5 29.5C18.5 28.293 17.6395 27.283 16.5 27.0505V21.9215C17.012 22.4575 17.7115 22.803 18.5775 22.9365L19.01 25.098C19.032 25.2075 19.09 25.3065 19.175 25.379L20.8245 26.793C20.6245 27.1525 20.5005 27.56 20.5005 27.9995C20.5005 29.378 21.622 30.4995 23.0005 30.4995C24.379 30.4995 25.5005 29.378 25.5005 27.9995C25.5005 26.621 24.379 25.4995 23.0005 25.4995C22.4235 25.4995 21.8985 25.704 21.475 26.0335L19.9575 24.7325L19.6095 22.992C20.671 22.945 21.599 22.493 22.265 21.742L23.6215 23.3245C23.6805 23.3935 23.757 23.445 23.843 23.4735L26.031 24.2025C26.019 24.301 26.001 24.3975 26.001 24.4995C26.001 25.878 27.1225 26.9995 28.501 26.9995C29.8795 26.9995 31.001 25.878 31.001 24.4995C31.001 23.121 29.8795 21.9995 28.501 21.9995L28.5 22ZM3.49999 26C2.67299 26 1.99999 25.327 1.99999 24.5C1.99999 23.673 2.67299 23 3.49999 23C4.32699 23 4.99999 23.673 4.99999 24.5C4.99999 25.327 4.32699 26 3.49999 26ZM8.99999 29.5C8.17299 29.5 7.49999 28.827 7.49999 28C7.49999 27.173 8.17299 26.5 8.99999 26.5C9.82699 26.5 10.5 27.173 10.5 28C10.5 28.827 9.82699 29.5 8.99999 29.5ZM24.5 28C24.5 28.827 23.827 29.5 23 29.5C22.173 29.5 21.5 28.827 21.5 28C21.5 27.173 22.173 26.5 23 26.5C23.827 26.5 24.5 27.173 24.5 28ZM12.573 22C11.1905 22 10.084 21.0605 9.75049 19.5935C9.67699 19.308 9.63949 18.9905 9.63949 18.65C9.63949 17.4925 10.043 16.772 10.3815 16.3715C10.5595 16.1605 10.5335 15.845 10.3225 15.667C10.1115 15.4885 9.79599 15.515 9.61799 15.726C9.17149 16.254 8.63949 17.19 8.63949 18.65C8.63949 18.805 8.65299 18.952 8.66549 19.0995C7.80699 18.8925 6.73199 18.4185 6.15649 17.3185C5.69599 16.4375 5.65149 15.661 5.74849 15.0635C6.33799 15.2825 6.82049 15.299 6.84699 15.3H6.86049C7.12949 15.3 7.35049 15.086 7.35899 14.8155C7.36749 14.54 7.15099 14.31 6.87599 14.3C6.86999 14.3 6.25999 14.274 5.66949 13.924C4.89399 13.4625 4.50049 12.647 4.50049 11.5C4.50049 10.353 4.89399 9.53751 5.66899 9.07651C6.25499 8.72901 6.85999 8.70051 6.87599 8.70001C7.15099 8.69101 7.36799 8.46201 7.36049 8.18701C7.35349 7.91101 7.12799 7.69951 6.84749 7.70001C6.82099 7.70051 6.33849 7.71751 5.74899 7.93651C5.65199 7.33901 5.69649 6.56251 6.15699 5.68201C6.73249 4.58151 7.80799 4.10751 8.66649 3.90051C8.65399 4.04801 8.64049 4.19551 8.64049 4.35001C8.64049 5.81001 9.17249 6.74601 9.61899 7.27401C9.71799 7.39101 9.85899 7.45101 10.001 7.45101C10.115 7.45101 10.23 7.41251 10.3235 7.33301C10.5345 7.15501 10.561 6.83951 10.3825 6.62851C10.044 6.22801 9.64049 5.50801 9.64049 4.35001C9.64049 4.00951 9.67799 3.69251 9.75499 3.39301C10.085 1.93951 11.192 1.00001 12.574 1.00001C14.516 1.00001 15.501 2.00951 15.501 4.00001V8.73401C14.809 7.89401 13.908 7.38251 13.3015 7.17651C13.0415 7.08901 12.758 7.22801 12.6685 7.48851C12.5795 7.74901 12.7185 8.03301 12.979 8.12351C13.082 8.15901 15.501 9.02451 15.501 11.5005C15.501 13.9765 13.082 14.842 12.98 14.877C12.7185 14.966 12.5785 15.25 12.6675 15.5115C12.738 15.72 12.9325 15.851 13.141 15.851C13.194 15.851 13.2485 15.8425 13.3015 15.8245C13.908 15.6185 14.809 15.1065 15.501 14.267V19.001C15.501 20.9915 14.5165 22.001 12.574 22.001L12.573 22ZM17.5 29.5C17.5 30.327 16.827 31 16 31C15.173 31 14.5 30.327 14.5 29.5C14.5 28.673 15.173 28 16 28C16.827 28 17.5 28.673 17.5 29.5ZM19.427 22C17.485 22 16.5 20.9905 16.5 19V14.266C17.192 15.106 18.093 15.6175 18.6995 15.8235C18.7525 15.8415 18.8065 15.85 18.86 15.85C19.068 15.85 19.2615 15.719 19.3325 15.5115C19.4215 15.251 19.2825 14.967 19.022 14.8765C18.919 14.841 16.5 13.9755 16.5 11.4995C16.5 9.02351 18.919 8.15801 19.021 8.12301C19.2825 8.03401 19.4225 7.75001 19.3335 7.48851C19.2445 7.22701 18.961 7.08651 18.6995 7.17551C18.093 7.38151 17.192 7.89351 16.5 8.73301V3.99901C16.5 2.00851 17.4845 0.999012 19.427 0.999012C20.8095 0.999012 21.916 1.93851 22.2495 3.40551C22.323 3.69101 22.3605 4.00851 22.3605 4.34901C22.3605 5.50651 21.957 6.22701 21.6185 6.62751C21.4405 6.83851 21.4665 7.15401 21.6775 7.33201C21.8885 7.51051 22.204 7.48451 22.382 7.27301C22.8285 6.74501 23.3605 5.80901 23.3605 4.34901C23.3605 4.19401 23.347 4.04701 23.3345 3.89951C24.193 4.10651 25.268 4.58051 25.8435 5.68051C26.304 6.56151 26.3485 7.33801 26.2515 7.93551C25.662 7.71651 25.1795 7.70001 25.153 7.69901C24.867 7.70351 24.65 7.90851 24.6415 8.18351C24.633 8.45901 24.8495 8.68901 25.1245 8.69901C25.1305 8.69901 25.7405 8.72501 26.331 9.07501C27.1065 9.53651 27.5 10.352 27.5 11.499C27.5 12.646 27.1065 13.4615 26.3315 13.9225C25.7455 14.27 25.1405 14.2985 25.1245 14.299C24.8495 14.308 24.6325 14.537 24.64 14.812C24.647 15.0835 24.8695 15.299 25.1395 15.299H25.153C25.1795 15.2985 25.662 15.2815 26.2515 15.0625C26.3485 15.66 26.304 16.4365 25.8435 17.317C25.268 18.4175 24.1925 18.8915 23.334 19.0985C23.3465 18.951 23.36 18.8035 23.36 18.649C23.36 17.189 22.828 16.253 22.3815 15.725C22.2035 15.514 21.8875 15.487 21.677 15.666C21.466 15.844 21.4395 16.1595 21.618 16.3705C21.9565 16.771 22.36 17.491 22.36 18.649C22.36 18.9895 22.3225 19.3065 22.2455 19.606C21.9155 21.0595 20.8085 21.999 19.4265 21.999L19.427 22ZM28.5 26C27.673 26 27 25.327 27 24.5C27 23.673 27.673 23 28.5 23C29.327 23 30 23.673 30 24.5C30 25.327 29.327 26 28.5 26Z" fill="#0F172A"/>
</g>
<defs>
<clipPath id="clip0_937_4121">
<rect width="32" height="32" fill="white"/>
</clipPath>
</defs>
</svg>
