<svg width="38" height="38" viewBox="0 0 38 38" fill="none" xmlns="http://www.w3.org/2000/svg">
<g clip-path="url(#clip0_1760_2965)">
<path d="M36.7334 6.175H27.7876V0.791667C27.7876 0.316667 27.4709 0 26.9959 0H11.0043C10.5293 0 10.2126 0.316667 10.2126 0.791667V18.1292H1.26676C0.791764 18.1292 0.475098 18.4458 0.475098 18.9208V37.2083C0.475098 37.6833 0.791764 38 1.26676 38H36.7334C37.2084 38 37.5251 37.6833 37.5251 37.2083V6.96667C37.5251 6.49167 37.2084 6.175 36.7334 6.175ZM2.05843 19.7125H10.2918V36.4167H2.05843V19.7125ZM11.7959 18.9208V1.58333H26.1251V36.4167H22.1668V30.0042C22.1668 29.5292 21.8501 29.2125 21.3751 29.2125H16.5459C16.0709 29.2125 15.7543 29.5292 15.7543 30.0042V36.4167H11.7959V18.9208ZM17.3376 36.4167V30.7958H20.5834V36.4167H17.3376ZM35.9418 36.4167H27.7876V7.75833H36.0209V36.4167H35.9418Z" fill="white"/>
<path d="M31.2708 13.1415H32.4583C32.9333 13.1415 33.25 12.8248 33.25 12.3498C33.25 11.8748 32.9333 11.5582 32.4583 11.5582H31.2708C30.7958 11.5582 30.4792 11.8748 30.4792 12.3498C30.4792 12.8248 30.7958 13.1415 31.2708 13.1415ZM31.2708 19.6332H32.4583C32.9333 19.6332 33.25 19.3165 33.25 18.8415C33.25 18.3665 32.9333 18.0498 32.4583 18.0498H31.2708C30.7958 18.0498 30.4792 18.3665 30.4792 18.8415C30.4792 19.3165 30.7958 19.6332 31.2708 19.6332ZM31.2708 26.1248H32.4583C32.9333 26.1248 33.25 25.8082 33.25 25.3332C33.25 24.8582 32.9333 24.5415 32.4583 24.5415H31.2708C30.7958 24.5415 30.4792 24.8582 30.4792 25.3332C30.4792 25.8082 30.7958 26.1248 31.2708 26.1248ZM31.2708 32.6165H32.4583C32.9333 32.6165 33.25 32.2998 33.25 31.8248C33.25 31.3498 32.9333 31.0332 32.4583 31.0332H31.2708C30.7958 31.0332 30.4792 31.3498 30.4792 31.8248C30.4792 32.2998 30.7958 32.6165 31.2708 32.6165ZM6.72917 24.0665H5.54167C5.06667 24.0665 4.75 24.3832 4.75 24.8582C4.75 25.3332 5.06667 25.6498 5.54167 25.6498H6.72917C7.20417 25.6498 7.52083 25.3332 7.52083 24.8582C7.52083 24.3832 7.125 24.0665 6.72917 24.0665ZM6.72917 30.5582H5.54167C5.06667 30.5582 4.75 30.8748 4.75 31.3498C4.75 31.8248 5.06667 32.1415 5.54167 32.1415H6.72917C7.20417 32.1415 7.52083 31.8248 7.52083 31.3498C7.52083 30.8748 7.125 30.5582 6.72917 30.5582ZM15.0417 7.12484H17.3375C17.8125 7.12484 18.1292 6.80817 18.1292 6.33317C18.1292 5.85817 17.8125 5.5415 17.3375 5.5415H15.0417C14.5667 5.5415 14.25 5.85817 14.25 6.33317C14.25 6.80817 14.5667 7.12484 15.0417 7.12484ZM20.7417 7.12484H22.9583C23.4333 7.12484 23.75 6.80817 23.75 6.33317C23.75 5.85817 23.4333 5.5415 22.9583 5.5415H20.6625C20.1875 5.5415 19.8708 5.85817 19.8708 6.33317C19.8708 6.80817 20.2667 7.12484 20.7417 7.12484ZM15.0417 13.2998H17.3375C17.8125 13.2998 18.1292 12.9832 18.1292 12.5082C18.1292 12.0332 17.8125 11.7165 17.3375 11.7165H15.0417C14.5667 11.7165 14.25 12.0332 14.25 12.5082C14.25 12.9832 14.5667 13.2998 15.0417 13.2998ZM20.7417 13.2998H22.9583C23.4333 13.2998 23.75 12.9832 23.75 12.5082C23.75 12.0332 23.4333 11.7165 22.9583 11.7165H20.6625C20.1875 11.7165 19.8708 12.0332 19.8708 12.5082C19.8708 12.9832 20.2667 13.2998 20.7417 13.2998ZM15.0417 19.4748H17.3375C17.8125 19.4748 18.1292 19.1582 18.1292 18.6832C18.1292 18.2082 17.8125 17.8915 17.3375 17.8915H15.0417C14.5667 17.8915 14.25 18.2082 14.25 18.6832C14.25 19.1582 14.5667 19.4748 15.0417 19.4748ZM20.7417 19.4748H22.9583C23.4333 19.4748 23.75 19.1582 23.75 18.6832C23.75 18.2082 23.4333 17.8915 22.9583 17.8915H20.6625C20.1875 17.8915 19.8708 18.2082 19.8708 18.6832C19.8708 19.1582 20.2667 19.4748 20.7417 19.4748ZM17.2583 25.6498C17.7333 25.6498 18.05 25.3332 18.05 24.8582C18.05 24.3832 17.7333 24.0665 17.2583 24.0665H15.0417C14.5667 24.0665 14.25 24.3832 14.25 24.8582C14.25 25.3332 14.5667 25.6498 15.0417 25.6498H17.2583ZM20.7417 25.6498H22.9583C23.4333 25.6498 23.75 25.3332 23.75 24.8582C23.75 24.3832 23.4333 24.0665 22.9583 24.0665H20.6625C20.1875 24.0665 19.8708 24.3832 19.8708 24.8582C19.8708 25.3332 20.2667 25.6498 20.7417 25.6498Z" fill="white"/>
</g>
<defs>
<clipPath id="clip0_1760_2965">
<rect width="38" height="38" fill="white"/>
</clipPath>
</defs>
</svg>
