<svg width="42" height="42" viewBox="0 0 42 42" fill="none" xmlns="http://www.w3.org/2000/svg">
<path d="M0.697266 18.8768V18.8153C0.697266 18.249 1.15639 17.7899 1.72266 17.7899C2.28892 17.7899 2.74805 18.249 2.74805 18.8153V18.8768C2.74805 19.4431 2.28892 19.9022 1.72266 19.9022C1.15639 19.9022 0.697266 19.4432 0.697266 18.8768ZM23.0683 6.86269V35.1376C23.0683 35.8925 22.6503 36.5743 21.9776 36.9168C21.6897 37.0633 21.3791 37.1356 21.0701 37.1356C20.6567 37.1356 20.2462 37.0061 19.8968 36.7519L9.11925 28.9097C8.44184 30.4641 6.89128 31.5537 5.09037 31.5537C2.66798 31.5538 0.697266 29.583 0.697266 27.1607V22.8525C0.697266 22.2863 1.15639 21.8272 1.72266 21.8272C2.28892 21.8272 2.74805 22.2863 2.74805 22.8525V27.1607C2.74805 28.4522 3.79879 29.5031 5.09037 29.5031C6.38195 29.5031 7.43277 28.4522 7.43277 27.1607V14.8396C7.43277 13.548 6.38195 12.4972 5.09037 12.4972C3.79879 12.4972 2.74805 13.548 2.74805 14.8396C2.74805 15.4058 2.28892 15.865 1.72266 15.865C1.15639 15.865 0.697266 15.4058 0.697266 14.8396C0.697266 12.4172 2.66798 10.4464 5.09037 10.4464C6.89128 10.4464 8.44184 11.5361 9.11925 13.0903L19.8968 5.24815C20.5073 4.80412 21.3044 4.7407 21.9773 5.0831C22.6504 5.42599 23.0683 6.10776 23.0683 6.86269ZM21.0175 6.96917L9.48355 15.3616V26.6387L21.0175 35.0312V6.96917ZM31.1999 10.7289C30.7995 10.3285 30.1503 10.3285 29.7498 10.7289C29.3494 11.1294 29.3494 11.7786 29.7498 12.1791C32.106 14.5352 33.4037 17.668 33.4037 21.0001C33.4037 24.3322 32.106 27.465 29.7499 29.8212C29.3495 30.2217 29.3495 30.8709 29.7499 31.2713C29.9501 31.4715 30.2125 31.5717 30.4749 31.5717C30.7374 31.5717 30.9998 31.4715 31.2 31.2713C33.9435 28.5278 35.4545 24.88 35.4545 21.0001C35.4545 17.1202 33.9435 13.4724 31.1999 10.7289ZM35.3353 6.59354C34.9348 6.19315 34.2856 6.19315 33.8851 6.59354C33.4847 6.99402 33.4847 7.64322 33.8851 8.04369C37.346 11.5044 39.252 16.1058 39.252 21.0001C39.252 25.8944 37.346 30.4958 33.8852 33.9565C33.4848 34.357 33.4848 35.0062 33.8852 35.4067C34.0855 35.6068 34.3479 35.707 34.6103 35.707C34.8727 35.707 35.1351 35.6068 35.3354 35.4067C39.1835 31.5585 41.3027 26.4422 41.3027 21.0001C41.3027 15.558 39.1835 10.4417 35.3353 6.59354ZM27.2947 14.6342C26.8942 14.2339 26.245 14.2339 25.8446 14.6342C25.4441 15.0346 25.4442 15.6839 25.8446 16.0843C27.1576 17.3973 27.8807 19.1431 27.8807 21.0001C27.8807 22.8571 27.1576 24.6029 25.8445 25.9159C25.4441 26.3164 25.4441 26.9656 25.8445 27.3661C26.0448 27.5662 26.3072 27.6664 26.5696 27.6664C26.832 27.6664 27.0944 27.5662 27.2947 27.3661C28.9951 25.6657 29.9315 23.4049 29.9315 21.0001C29.9315 18.5953 28.995 16.3345 27.2947 14.6342Z" fill="#141414"/>
<path d="M31.2 10.7286C30.7996 10.3282 30.1504 10.3282 29.7499 10.7286C29.3495 11.1291 29.3495 11.7783 29.7499 12.1788C32.1062 14.535 33.4038 17.6677 33.4038 20.9998C33.4038 24.3319 32.1062 27.4647 29.75 29.8209C29.3496 30.2214 29.3496 30.8706 29.75 31.2711C29.9502 31.4712 30.2126 31.5714 30.475 31.5714C30.7375 31.5714 30.9999 31.4712 31.2001 31.2711C33.9437 28.5275 35.4546 24.8798 35.4546 20.9998C35.4546 17.1199 33.9436 13.4722 31.2 10.7286ZM35.3354 6.59326C34.9349 6.19287 34.2857 6.19287 33.8852 6.59326C33.4848 6.99374 33.4848 7.64294 33.8852 8.04341C37.3461 11.5041 39.2521 16.1055 39.2521 20.9998C39.2521 25.8942 37.3461 30.4955 33.8853 33.9563C33.4849 34.3567 33.4849 35.0059 33.8853 35.4064C34.0856 35.6066 34.348 35.7067 34.6104 35.7067C34.8728 35.7067 35.1352 35.6066 35.3355 35.4064C39.1836 31.5582 41.3028 26.442 41.3028 20.9998C41.3028 15.5577 39.1836 10.4414 35.3354 6.59326ZM27.2948 14.6339C26.8943 14.2336 26.2451 14.2336 25.8447 14.6339C25.4442 15.0344 25.4443 15.6836 25.8447 16.084C27.1577 17.397 27.8808 19.1428 27.8808 20.9998C27.8808 22.8569 27.1577 24.6027 25.8446 25.9156C25.4442 26.3161 25.4442 26.9653 25.8446 27.3658C26.0449 27.566 26.3073 27.6661 26.5697 27.6661C26.8321 27.6661 27.0945 27.566 27.2948 27.3658C28.9952 25.6654 29.9316 23.4047 29.9316 20.9998C29.9316 18.595 28.9951 16.3342 27.2948 14.6339Z" fill="#075BF9"/>
</svg>
