<svg width="42" height="42" viewBox="0 0 42 42" fill="none" xmlns="http://www.w3.org/2000/svg">
<g clip-path="url(#clip0_1760_2819)">
<path d="M18.375 0.65625C16.5424 0.65625 14.8986 1.75214 14.1763 3.38859C13.8322 3.31713 13.4804 3.28125 13.125 3.28125C10.2302 3.28125 7.875 5.63645 7.875 8.53125C7.875 8.76228 7.88974 8.99204 7.91922 9.2189C4.94879 9.52588 2.625 12.0435 2.625 15.0938C2.625 15.5529 2.67915 16.0118 2.7865 16.4633C1.44484 17.5762 0.65625 19.2392 0.65625 21C0.65625 22.6727 1.37851 24.2755 2.61218 25.3909C2.18985 26.2667 1.96875 27.2337 1.96875 28.2188C1.96875 31.6285 4.58286 34.4393 7.91217 34.7524C8.22331 37.3527 10.4423 39.375 13.125 39.375C13.5919 39.375 14.0475 39.3144 14.4859 39.1943C15.3193 40.5164 16.7889 41.3438 18.375 41.3438C20.908 41.3438 22.9688 39.283 22.9688 36.75V25.5938C22.9688 25.2313 22.6749 24.9375 22.3125 24.9375C21.9501 24.9375 21.6562 25.2313 21.6562 25.5938V36.75C21.6562 38.5592 20.1842 40.0312 18.375 40.0312C17.099 40.0312 15.9291 39.2818 15.3943 38.1221C15.2472 37.8045 14.8775 37.6572 14.5516 37.7889C14.1039 37.9705 13.6239 38.0625 13.125 38.0625C10.9537 38.0625 9.1875 36.2963 9.1875 34.125C9.1875 33.7626 8.89366 33.4688 8.53125 33.4688C5.63645 33.4688 3.28125 31.1136 3.28125 28.2188C3.28125 27.2783 3.53279 26.3599 4.00896 25.5627C4.18167 25.273 4.10701 24.8997 3.83593 24.6991C2.64935 23.8195 1.96876 22.4714 1.96876 21C1.96876 19.5087 2.69614 18.1074 3.91443 17.2519C4.14963 17.0869 4.24993 16.7882 4.16213 16.5146C4.01313 16.0493 3.9375 15.5712 3.9375 15.0937C3.9375 12.5607 5.99822 10.5 8.53125 10.5C8.57483 10.5 8.61424 10.499 8.65782 10.5032C8.87732 10.5263 9.08913 10.4362 9.22787 10.2677C9.36694 10.0991 9.41276 9.87258 9.3506 9.66333C9.24229 9.29868 9.18749 8.91768 9.18749 8.53124C9.18749 6.35997 10.9537 4.59374 13.125 4.59374C13.5537 4.59374 13.9745 4.66359 14.3753 4.80106C14.5458 4.86002 14.7342 4.8456 14.8941 4.761C15.054 4.67673 15.1723 4.53029 15.2206 4.35597C15.6112 2.95055 16.9084 1.96873 18.375 1.96873C20.1842 1.96873 21.6562 3.4408 21.6562 5.24998V22.9687C21.6562 23.3311 21.9501 23.625 22.3125 23.625C22.6749 23.625 22.9687 23.3311 22.9687 22.9687V5.25C22.9687 2.71697 20.908 0.65625 18.375 0.65625ZM37.4062 17.0625C35.459 17.0625 33.8419 18.4845 33.528 20.3438H25.7053V10.6602L28.5659 7.79962C29.2097 8.2584 29.9947 8.53125 30.8438 8.53125C33.015 8.53125 34.7812 6.76501 34.7812 4.59375C34.7812 2.42249 33.015 0.65625 30.8438 0.65625C28.6725 0.65625 26.9062 2.42249 26.9062 4.59375C26.9062 5.44282 27.1791 6.22785 27.6379 6.87164L24.585 9.9245C24.462 10.0475 24.3928 10.2145 24.3928 10.3885V31.6115C24.3928 31.7855 24.462 31.9525 24.585 32.0755L27.6379 35.1284C27.1791 35.7722 26.9062 36.5572 26.9062 37.4062C26.9062 39.5775 28.6725 41.3438 30.8438 41.3438C33.015 41.3438 34.7812 39.5775 34.7812 37.4062C34.7812 35.235 33.015 33.4688 30.8438 33.4688C29.9947 33.4688 29.2097 33.7416 28.5659 34.2004L25.7053 31.3398V21.6562H33.528C33.8419 23.5155 35.459 24.9375 37.4062 24.9375C39.5775 24.9375 41.3438 23.1713 41.3438 21C41.3438 18.8287 39.5775 17.0625 37.4062 17.0625ZM30.8438 1.96875C32.2912 1.96875 33.4688 3.14634 33.4688 4.59375C33.4688 6.04116 32.2912 7.21875 30.8438 7.21875C29.3963 7.21875 28.2188 6.04116 28.2188 4.59375C28.2188 3.14634 29.3963 1.96875 30.8438 1.96875ZM33.4688 37.4062C33.4688 38.8537 32.2912 40.0312 30.8438 40.0312C29.3963 40.0312 28.2188 38.8537 28.2188 37.4062C28.2188 35.9588 29.3963 34.7812 30.8438 34.7812C32.2912 34.7812 33.4688 35.9588 33.4688 37.4062ZM37.4062 23.625C35.9588 23.625 34.7812 22.4474 34.7812 21C34.7812 19.5526 35.9588 18.375 37.4062 18.375C38.8537 18.375 40.0312 19.5526 40.0312 21C40.0312 22.4474 38.8537 23.625 37.4062 23.625Z" fill="#141414"/>
<path d="M37.4061 17.0625C35.4588 17.0625 33.8417 18.4845 33.5278 20.3438H25.7051V10.6602L28.5657 7.79962C29.2095 8.2584 29.9945 8.53125 30.8436 8.53125C33.0148 8.53125 34.7811 6.76501 34.7811 4.59375C34.7811 2.42249 33.0148 0.65625 30.8436 0.65625C28.6723 0.65625 26.9061 2.42249 26.9061 4.59375C26.9061 5.44282 27.1789 6.22785 27.6377 6.87164L24.5848 9.9245C24.4618 10.0475 24.3926 10.2145 24.3926 10.3885V31.6115C24.3926 31.7855 24.4618 31.9525 24.5848 32.0755L27.6377 35.1284C27.1789 35.7722 26.9061 36.5572 26.9061 37.4062C26.9061 39.5775 28.6723 41.3438 30.8436 41.3438C33.0148 41.3438 34.7811 39.5775 34.7811 37.4062C34.7811 35.235 33.0148 33.4688 30.8436 33.4688C29.9945 33.4688 29.2095 33.7416 28.5657 34.2004L25.7051 31.3398V21.6562H33.5278C33.8417 23.5155 35.4588 24.9375 37.4061 24.9375C39.5773 24.9375 41.3436 23.1713 41.3436 21C41.3436 18.8287 39.5773 17.0625 37.4061 17.0625ZM30.8436 1.96875C32.291 1.96875 33.4686 3.14634 33.4686 4.59375C33.4686 6.04116 32.291 7.21875 30.8436 7.21875C29.3962 7.21875 28.2186 6.04116 28.2186 4.59375C28.2186 3.14634 29.3962 1.96875 30.8436 1.96875ZM33.4686 37.4062C33.4686 38.8537 32.291 40.0312 30.8436 40.0312C29.3962 40.0312 28.2186 38.8537 28.2186 37.4062C28.2186 35.9588 29.3962 34.7812 30.8436 34.7812C32.291 34.7812 33.4686 35.9588 33.4686 37.4062ZM37.4061 23.625C35.9587 23.625 34.7811 22.4474 34.7811 21C34.7811 19.5526 35.9587 18.375 37.4061 18.375C38.8535 18.375 40.0311 19.5526 40.0311 21C40.0311 22.4474 38.8535 23.625 37.4061 23.625Z" fill="#075BF9"/>
<path d="M15.7502 30.1875C16.1126 30.1875 16.4064 29.8937 16.4064 29.5312C16.4064 29.1688 16.1126 28.875 15.7502 28.875C13.5789 28.875 11.8127 27.1088 11.8127 24.9375C11.8127 24.7972 11.759 24.6743 11.684 24.5676C12.7606 24.3919 13.7541 23.8913 14.5406 23.1046C14.7969 22.8483 14.7969 22.4327 14.5406 22.1766C14.2842 21.9203 13.8689 21.9203 13.6126 22.1766C12.8689 22.9204 11.88 23.3299 10.8283 23.3299C9.77666 23.3299 8.78779 22.9204 8.04406 22.1766C7.78772 21.9203 7.37243 21.9203 7.11609 22.1766C6.85974 22.4327 6.85974 22.8483 7.11609 23.1046C8.05004 24.0389 9.27521 24.5713 10.5865 24.6306C10.5362 24.7234 10.5002 24.8245 10.5002 24.9375C10.5002 27.8323 12.8554 30.1875 15.7502 30.1875ZM18.3752 17.0625C18.3752 17.4249 18.669 17.7188 19.0314 17.7188C19.3939 17.7188 19.6877 17.4249 19.6877 17.0625C19.6877 15.4657 18.5398 14.1353 17.0267 13.844C16.7306 11.2279 14.5066 9.1875 11.8127 9.1875C11.4503 9.1875 11.1564 9.48134 11.1564 9.84375C11.1564 10.2062 11.4503 10.5 11.8127 10.5C13.7878 10.5 15.4229 11.9629 15.7032 13.8614C14.2315 14.1848 13.1252 15.4952 13.1252 17.0625C13.1252 17.4249 13.419 17.7188 13.7814 17.7188C14.1439 17.7188 14.4377 17.4249 14.4377 17.0625C14.4377 15.9769 15.3208 15.0938 16.4064 15.0938C17.4921 15.0938 18.3752 15.9769 18.3752 17.0625Z" fill="#141414"/>
</g>
<defs>
<clipPath id="clip0_1760_2819">
<rect width="42" height="42" fill="white"/>
</clipPath>
</defs>
</svg>
