<svg width="42" height="42" viewBox="0 0 42 42" fill="none" xmlns="http://www.w3.org/2000/svg">
<g clip-path="url(#clip0_1760_2835)">
<path d="M36.6242 32.0879C35.2802 31.7519 33.9362 32.0039 32.9282 32.5919L24.0242 22.0919C24.6962 21.2519 25.1162 20.1599 25.1162 18.9839C25.1162 18.2279 24.9482 17.4719 24.6122 16.7999L33.3482 10.2479C34.4402 11.3399 36.1202 11.8439 37.8002 11.4239C39.5642 11.0039 40.9922 9.57589 41.3282 7.81189C42.0842 4.28389 39.0602 1.25989 35.5322 2.01589C33.6842 2.43589 32.2562 3.86389 31.8362 5.62789C31.5842 6.80389 31.7522 7.89589 32.2562 8.90389L23.5202 15.4559C22.6802 14.6159 21.5042 14.1119 20.2442 14.1119C19.1522 14.1119 18.0602 14.5319 17.3042 15.1199L12.6842 10.9199C13.6922 9.49189 14.1122 7.64389 13.7762 5.71189C13.2722 3.10789 11.0882 1.00789 8.48423 0.503886C3.78023 -0.336114 -0.335774 3.77989 0.588226 8.48389C1.09223 11.0879 3.10823 13.1039 5.62823 13.6919C7.89623 14.1959 9.99623 13.5239 11.5082 12.2639L16.1282 16.4639C14.8682 18.4799 15.2882 21.1679 17.0522 22.6799L11.7602 31.5839C10.8362 31.2479 9.82823 31.1639 8.73623 31.4999C7.05623 32.0039 5.71223 33.4319 5.37623 35.1959C4.70423 38.6399 7.81223 41.6639 11.2562 40.8239C13.0202 40.4039 14.4482 38.9759 14.8682 37.1279C15.2882 35.2799 14.5322 33.5159 13.2722 32.4239L18.6482 23.5199C19.1522 23.6879 19.7402 23.8559 20.3282 23.8559C21.2522 23.8559 22.0082 23.6039 22.7642 23.1839L31.6682 33.6839C30.7442 34.7759 30.3242 36.2039 30.6602 37.7159C30.9962 39.5639 32.5082 41.0759 34.2722 41.4119C37.8002 42.1679 40.8242 39.1439 40.0682 35.6159C39.7322 33.9359 38.3882 32.5079 36.6242 32.0879ZM11.0882 39.1439C10.5517 39.3032 9.98208 39.3146 9.43957 39.177C8.89706 39.0394 8.40178 38.7579 8.00602 38.3621C7.61026 37.9663 7.32871 37.4711 7.1911 36.9285C7.0535 36.386 7.06494 35.8164 7.22423 35.2799C7.47623 34.1879 8.31623 33.3479 9.40823 33.0959C9.94477 32.9366 10.5144 32.9252 11.0569 33.0628C11.5994 33.2004 12.0947 33.4819 12.4904 33.8777C12.8862 34.2734 13.1677 34.7687 13.3054 35.3112C13.443 35.8537 13.4315 36.4233 13.2722 36.9599C12.9362 37.9679 12.0962 38.8079 11.0882 39.1439ZM35.7842 3.69589C38.2202 3.02389 40.3202 5.20789 39.7322 7.55989C39.4802 8.65189 38.6402 9.49189 37.5482 9.74389C35.1122 10.4159 33.0122 8.31589 33.6002 5.87989C33.9362 4.87189 34.7762 3.94789 35.7842 3.69589ZM8.31623 12.0119C4.62023 12.8519 1.42823 9.65989 2.26823 5.96389C2.68823 4.11589 4.20023 2.60389 6.04823 2.18389C9.74423 1.34389 12.9362 4.53589 12.0962 8.23189C11.6762 10.0799 10.1642 11.5919 8.31623 12.0119ZM17.3042 19.8239C17.1449 19.2873 17.1335 18.7177 17.2711 18.1752C17.4087 17.6327 17.6903 17.1374 18.086 16.7417C18.4818 16.3459 18.9771 16.0644 19.5196 15.9268C20.0621 15.7892 20.6317 15.8006 21.1682 15.9599C22.2602 16.2119 23.1002 17.0519 23.3522 18.1439C24.4442 22.2599 18.3122 23.6879 17.3042 19.8239ZM36.2042 39.8159C35.6677 39.9752 35.0981 39.9866 34.5556 39.849C34.0131 39.7114 33.5178 39.4299 33.122 39.0341C32.7263 38.6383 32.4447 38.1431 32.3071 37.6005C32.1695 37.058 32.1809 36.4884 32.3402 35.9519C32.5922 34.8599 33.4322 34.0199 34.5242 33.7679C35.0608 33.6086 35.6304 33.5972 36.1729 33.7348C36.7154 33.8724 37.2107 34.1539 37.6064 34.5497C38.0022 34.9454 38.2837 35.4407 38.4213 35.9832C38.559 36.5257 38.5475 37.0953 38.3882 37.6319C38.1362 38.6399 37.2962 39.4799 36.2042 39.8159Z" fill="black"/>
<path d="M11.0877 39.1441C10.5512 39.3034 9.98159 39.3149 9.43908 39.1773C8.89657 39.0397 8.40129 38.7581 8.00553 38.3623C7.60977 37.9666 7.32822 37.4713 7.19061 36.9288C7.05301 36.3863 7.06445 35.8167 7.22374 35.2801C7.47574 34.1881 8.31574 33.3481 9.40774 33.0961C9.94428 32.9368 10.5139 32.9254 11.0564 33.063C11.5989 33.2006 12.0942 33.4822 12.4899 33.8779C12.8857 34.2737 13.1673 34.769 13.3049 35.3115C13.4425 35.854 13.431 36.4236 13.2717 36.9601C12.9357 37.9681 12.0957 38.8081 11.0877 39.1441ZM35.7837 3.69613C38.2197 3.02413 40.3197 5.20813 39.7317 7.56013C39.4797 8.65213 38.6397 9.49213 37.5477 9.74413C35.1117 10.4161 33.0117 8.31613 33.5997 5.88013C33.9357 4.87213 34.7757 3.94813 35.7837 3.69613ZM8.31574 12.0121C4.61974 12.8521 1.42774 9.66013 2.26774 5.96413C2.68774 4.11613 4.19974 2.60413 6.04774 2.18413C9.74374 1.34413 12.9357 4.53613 12.0957 8.23213C11.6757 10.0801 10.1637 11.5921 8.31574 12.0121ZM36.2037 39.8161C35.6672 39.9754 35.0976 39.9869 34.5551 39.8493C34.0126 39.7117 33.5173 39.4301 33.1215 39.0343C32.7258 38.6386 32.4442 38.1433 32.3066 37.6008C32.169 37.0583 32.1805 36.4887 32.3397 35.9521C32.5917 34.8601 33.4317 34.0201 34.5237 33.7681C35.0603 33.6088 35.6299 33.5974 36.1724 33.735C36.7149 33.8726 37.2102 34.1542 37.6059 34.5499C38.0017 34.9457 38.2833 35.441 38.4209 35.9835C38.5585 36.526 38.547 37.0956 38.3877 37.6321C38.1357 38.6401 37.2957 39.4801 36.2037 39.8161Z" fill="#075BF9"/>
</g>
<defs>
<clipPath id="clip0_1760_2835">
<rect width="42" height="42" fill="white"/>
</clipPath>
</defs>
</svg>
