<svg width="42" height="42" viewBox="0 0 42 42" fill="none" xmlns="http://www.w3.org/2000/svg">
<g clip-path="url(#clip0_1760_2803)">
<path d="M41.2423 28.3513C40.8753 26.2526 38.9924 24.7326 36.8374 24.7837C34.8017 24.8496 32.7784 24.5821 30.8369 23.9992C28.7354 23.369 26.5458 24.3302 25.6296 26.287C25.5094 26.4623 25.2207 27.6605 23.8747 28.0434C23.206 28.2334 22.5225 28.1321 21.9493 27.7571C18.897 25.7609 16.229 23.0928 14.2327 20.0409C13.8583 19.4686 13.7568 18.7848 13.9464 18.1164C14.141 17.432 14.6213 16.867 15.266 16.565C15.326 16.5019 18.7211 14.9855 17.6114 11.3257C16.9981 9.30604 16.7235 7.20481 16.7942 5.08078C16.8663 2.93525 15.3331 1.04024 13.2279 0.673565C13.1602 0.678651 7.5791 -0.468638 3.49542 3.79641C1.02628 6.37482 0.00786406 9.9933 0.771985 13.4753C3.80148 27.2953 14.689 38.1836 28.5094 41.2146C32.0027 41.9793 35.6183 40.9542 38.1914 38.4892C42.7499 34.1228 41.2334 28.4991 41.2423 28.3513ZM36.8829 37.1232C34.7284 39.1872 31.8245 40.0053 28.9145 39.3667C15.8133 36.4937 5.49165 26.1716 2.61916 13.0701C1.98186 10.162 2.79898 7.25871 4.86108 5.10457C8.37218 1.43818 12.8389 2.5415 12.9021 2.53691C14.0837 2.74289 14.9445 3.80937 14.9039 5.01745C14.8257 7.34927 15.1275 9.65648 15.8011 11.875C16.4353 13.9648 14.5232 14.7897 14.4631 14.8527C13.3227 15.3866 12.4711 16.3875 12.1269 17.5996C11.7901 18.7861 11.9804 20.0536 12.6503 21.0764C14.7875 24.3447 17.6452 27.2024 20.9135 29.3403C21.9375 30.0099 23.2041 30.1999 24.3919 29.8631C26.6083 29.233 27.2643 27.1987 27.3431 27.0885C27.8579 25.9894 29.0968 25.4516 30.2931 25.8109C32.4292 26.4525 34.6446 26.7441 36.8952 26.6748C38.1138 26.6403 39.1697 27.4798 39.3791 28.6766C39.3688 28.8578 40.7344 33.4337 36.8829 37.1232ZM38.0516 15.9133C38.0516 16.4358 38.4752 16.8591 38.9974 16.8591C39.5196 16.8591 39.9432 16.4358 39.9432 15.9133C39.9432 13.9922 39.5516 12.1213 38.7801 10.3523C38.5713 9.87353 38.0141 9.65558 37.535 9.86369C37.056 10.0727 36.8374 10.6303 37.0461 11.109C37.7135 12.6379 38.0516 14.2542 38.0516 15.9133ZM26.0717 3.9334C29.316 3.9334 32.359 5.21629 34.6391 7.54598C35.0045 7.9193 35.6042 7.92554 35.9764 7.56017C36.3502 7.19505 36.3563 6.59622 35.9912 6.22282C33.3521 3.52678 29.8288 2.04193 26.0716 2.04193C25.5494 2.04193 25.1257 2.46529 25.1257 2.98775C25.1257 3.51021 25.5495 3.9334 26.0717 3.9334ZM32.8393 15.9124C32.8393 16.4349 33.2629 16.8582 33.7851 16.8582C34.3073 16.8582 34.731 16.4349 34.731 15.9124C34.731 11.1389 30.8474 7.2551 26.0736 7.2551C25.5515 7.2551 25.1278 7.67846 25.1278 8.20092C25.1278 8.72337 25.5514 9.14674 26.0736 9.14674C29.8042 9.14657 32.8393 12.1816 32.8393 15.9124Z" fill="black"/>
<path d="M38.0521 15.913C38.0521 16.4355 38.4757 16.8588 38.9979 16.8588C39.5201 16.8588 39.9438 16.4355 39.9438 15.913C39.9438 13.9919 39.5521 12.121 38.7806 10.352C38.5719 9.87323 38.0146 9.65527 37.5356 9.86339C37.0565 10.0724 36.8379 10.63 37.0467 11.1087C37.7141 12.6376 38.0521 14.2539 38.0521 15.913ZM26.0722 3.9331C29.3165 3.9331 32.3596 5.21599 34.6396 7.54568C35.0051 7.919 35.6047 7.92524 35.977 7.55987C36.3507 7.19475 36.3569 6.59592 35.9917 6.22251C33.3526 3.52647 29.8294 2.04163 26.0721 2.04163C25.55 2.04163 25.1263 2.46499 25.1263 2.98745C25.1263 3.5099 25.5501 3.9331 26.0722 3.9331ZM32.8398 15.9121C32.8398 16.4346 33.2635 16.8579 33.7857 16.8579C34.3079 16.8579 34.7315 16.4346 34.7315 15.9121C34.7315 11.1386 30.848 7.25479 26.0742 7.25479C25.552 7.25479 25.1283 7.67816 25.1283 8.20061C25.1283 8.72307 25.5519 9.14643 26.0742 9.14643C29.8048 9.14627 32.8398 12.1813 32.8398 15.9121Z" fill="#075BF9"/>
<path d="M25.1274 13.4156C25.1274 13.938 25.5511 14.3614 26.0733 14.3614C26.9285 14.3614 27.6243 15.0572 27.6243 15.9121C27.6243 16.4346 28.0479 16.8579 28.5701 16.8579C29.0923 16.8579 29.516 16.4346 29.516 15.9121C29.516 14.0141 27.9716 12.4698 26.0733 12.4698C25.5511 12.4698 25.1274 12.8931 25.1274 13.4156Z" fill="#075BF9"/>
</g>
<defs>
<clipPath id="clip0_1760_2803">
<rect width="42" height="42" fill="white"/>
</clipPath>
</defs>
</svg>
