<svg width="68" height="68" viewBox="0 0 68 68" fill="none" xmlns="http://www.w3.org/2000/svg">
<path d="M64.2707 46.2369C63.0196 45.5888 59.5226 44.0283 57.1811 43.072C54.8397 42.1158 51.2152 40.7571 49.834 40.3387C47.5894 39.6946 44.4418 40.3494 42.6076 42.0029C41.5265 43.0309 40.97 43.6285 39.4347 45.8199L39.4082 45.8571C38.1053 47.7683 35.4025 48.3168 33.0571 46.99C27.3368 43.8583 24.148 40.6694 21.0163 34.9479C19.6882 32.6037 20.238 29.901 22.1492 28.5981L22.1864 28.5716C24.3711 27.0362 24.9754 26.4798 25.9968 25.3987C27.6503 23.5645 28.305 20.4155 27.6609 18.1723C27.2425 16.7911 25.8879 13.16 24.9276 10.8252C23.9674 8.49031 22.4108 4.98141 21.7627 3.73563C20.6736 1.72617 18.1874 0.0620318 15.9588 -0.000390028C14.0981 -0.00547528 12.242 0.186851 10.4218 0.57336L10.2333 0.617188C4.89419 1.60133 0.603018 7.19406 0.0531739 17.2307C-0.459482 27.0084 2.6045 40.7385 14.9468 53.0529C27.2572 65.3951 40.9913 68.4591 50.769 67.9465C60.8056 67.3966 66.3983 63.1055 67.3825 57.7664L67.4263 57.5778C67.8128 55.7576 68.0051 53.9016 68 52.0409C67.9376 49.8123 66.2735 47.326 64.2707 46.2369Z" fill="#FFA351"/>
<path d="M64.8046 9.63556e-06C64.3856 -0.00101778 63.9706 0.080564 63.5832 0.240089C63.1957 0.399613 62.8436 0.633951 62.5468 0.929697L46.5801 16.9084V8.16267C46.5801 7.31729 46.2443 6.50654 45.6465 5.90876C45.0487 5.31099 44.238 4.97517 43.3926 4.97517C42.5472 4.97517 41.7364 5.31099 41.1387 5.90876C40.5409 6.50654 40.2051 7.31729 40.2051 8.16267V24.6035C40.2051 25.4489 40.5409 26.2597 41.1387 26.8574C41.7364 27.4552 42.5472 27.791 43.3926 27.791H59.8321C60.6775 27.791 61.4882 27.4552 62.086 26.8574C62.6838 26.2597 63.0196 25.4489 63.0196 24.6035C63.0196 23.7581 62.6838 22.9474 62.086 22.3496C61.4882 21.7519 60.6775 21.416 59.8321 21.416H51.0877L67.0584 5.44532C67.5058 4.99951 67.8106 4.43086 67.9343 3.81151C68.0579 3.19216 67.9948 2.55005 67.7529 1.96664C67.511 1.38323 67.1012 0.884839 66.5756 0.534699C66.05 0.184559 65.4322 -0.00154293 64.8006 9.63556e-06H64.8046Z" fill="#3A92FF"/>
<path d="M10.2333 0.617188C4.89419 1.60133 0.603018 7.19406 0.0531739 17.2307C-0.459482 27.0084 2.6045 40.7385 14.9468 53.0529L15.1181 53.2229C15.4156 53.23 15.7135 53.2335 16.0119 53.2335C22.8844 53.2439 29.6222 51.328 35.461 47.7032C34.615 47.6515 33.7923 47.4051 33.0571 46.9834C27.3368 43.8516 24.148 40.6628 21.0163 34.9412C19.6882 32.5971 20.238 29.8944 22.1492 28.5915L22.1864 28.5649C24.3711 27.0296 24.9754 26.4731 25.9968 25.392C27.6503 23.5579 28.305 20.4089 27.6609 18.1657C27.2425 16.7845 25.8879 13.1534 24.9276 10.8185C23.9674 8.48367 22.4108 4.97477 21.7627 3.72899C20.6736 1.72617 18.1874 0.0620318 15.9588 -0.000390028C14.0981 -0.00547528 12.242 0.186851 10.4218 0.57336L10.2333 0.617188Z" fill="#FFC14B"/>
</svg>
