<svg width="46" height="46" viewBox="0 0 46 46" fill="none" xmlns="http://www.w3.org/2000/svg">
<path d="M20.8438 22.6406C20.8438 20.8581 19.3919 19.4062 17.6094 19.4062C15.8269 19.4062 14.375 20.8581 14.375 22.6406C14.375 24.4231 15.8269 25.875 17.6094 25.875C19.3919 25.875 20.8438 24.4231 20.8438 22.6406ZM17.6094 24.4375C16.6175 24.4375 15.8125 23.6325 15.8125 22.6406C15.8125 21.6488 16.6175 20.8438 17.6094 20.8438C18.6012 20.8438 19.4062 21.6488 19.4062 22.6406C19.4062 23.6325 18.6012 24.4375 17.6094 24.4375ZM28.3906 19.4062C26.6081 19.4062 25.1562 20.8581 25.1562 22.6406C25.1562 24.4231 26.6081 25.875 28.3906 25.875C30.1731 25.875 31.625 24.4231 31.625 22.6406C31.625 20.8581 30.1731 19.4062 28.3906 19.4062ZM28.3906 24.4375C27.3988 24.4375 26.5938 23.6325 26.5938 22.6406C26.5938 21.6488 27.3988 20.8438 28.3906 20.8438C29.3825 20.8438 30.1875 21.6488 30.1875 22.6406C30.1875 23.6325 29.3825 24.4375 28.3906 24.4375ZM26.5938 30.9062C26.5938 31.3016 26.2703 31.625 25.875 31.625H20.125C19.7297 31.625 19.4062 31.3016 19.4062 30.9062C19.4062 30.5109 19.7297 30.1875 20.125 30.1875H25.875C26.2703 30.1875 26.5938 30.5109 26.5938 30.9062ZM39.2078 20.1861L37.3462 20.143C37.0372 16.5169 33.9466 13.6562 30.1839 13.6562L23.7188 13.6814V11.4281C25.3575 11.0939 26.5938 9.64203 26.5938 7.90625C26.5938 5.92609 24.9802 4.3125 23 4.3125C21.0198 4.3125 19.4062 5.92609 19.4062 7.90625C19.4062 9.64203 20.6425 11.0939 22.2812 11.4281V13.6886L15.7047 13.7137C11.7336 13.7137 8.625 16.8223 8.625 20.7934V20.9013H6.81016C5.43375 20.9013 4.3125 22.0225 4.3125 23.3989V28.4086C4.3125 29.785 5.43375 30.9062 6.81016 30.9062H8.625V40.9688C8.625 41.2347 8.77234 41.4791 9.00594 41.6012C9.11016 41.6588 9.22875 41.6875 9.34375 41.6875C9.48391 41.6875 9.62047 41.648 9.74266 41.5653L16.0317 37.375L30.2414 37.3211C34.1766 37.3211 37.375 34.1191 37.375 30.1875V30.1516L39.1898 30.1947C40.5662 30.1947 41.6875 29.0123 41.6875 27.5605V22.8203C41.6875 21.3648 40.5662 20.1861 39.2078 20.1861ZM20.8438 7.90625C20.8438 6.71672 21.8105 5.75 23 5.75C24.1895 5.75 25.1562 6.71672 25.1562 7.90625C25.1562 9.09578 24.1895 10.0625 23 10.0625C21.8105 10.0625 20.8438 9.09578 20.8438 7.90625ZM6.81016 29.4688C6.22438 29.4688 5.75 28.9944 5.75 28.4086V23.3989C5.75 22.8131 6.22438 22.3388 6.81016 22.3388H8.625V29.4688H6.81016ZM35.9375 30.1875C35.9375 33.3284 33.3823 35.8836 30.2378 35.8836L15.8089 35.9375C15.6688 35.9375 15.5286 35.9806 15.4136 36.0597L10.0625 39.6247V30.1875V21.6164V20.7898C10.0625 17.6273 12.5422 15.1477 15.7083 15.1477L30.1875 15.0938C33.3572 15.0938 35.9375 17.6238 35.9375 20.7359V20.8438V29.4148V30.1875ZM40.25 27.5569C40.25 28.2181 39.7756 28.7536 39.2042 28.7536L37.375 28.7105V21.5805L39.1898 21.6236C39.7756 21.6236 40.25 22.1591 40.25 22.8203V27.5569Z" fill="black"/>
<path d="M20.8438 22.6406C20.8438 20.8581 19.3919 19.4062 17.6094 19.4062C15.8269 19.4062 14.375 20.8581 14.375 22.6406C14.375 24.4231 15.8269 25.875 17.6094 25.875C19.3919 25.875 20.8438 24.4231 20.8438 22.6406ZM17.6094 24.4375C16.6175 24.4375 15.8125 23.6325 15.8125 22.6406C15.8125 21.6488 16.6175 20.8438 17.6094 20.8438C18.6013 20.8438 19.4062 21.6488 19.4062 22.6406C19.4062 23.6325 18.6013 24.4375 17.6094 24.4375ZM28.3906 19.4062C26.6081 19.4062 25.1562 20.8581 25.1562 22.6406C25.1562 24.4231 26.6081 25.875 28.3906 25.875C30.1731 25.875 31.625 24.4231 31.625 22.6406C31.625 20.8581 30.1731 19.4062 28.3906 19.4062ZM28.3906 24.4375C27.3988 24.4375 26.5938 23.6325 26.5938 22.6406C26.5938 21.6488 27.3988 20.8438 28.3906 20.8438C29.3825 20.8438 30.1875 21.6488 30.1875 22.6406C30.1875 23.6325 29.3825 24.4375 28.3906 24.4375ZM26.5938 30.9062C26.5938 31.3016 26.2703 31.625 25.875 31.625H20.125C19.7297 31.625 19.4062 31.3016 19.4062 30.9062C19.4062 30.5109 19.7297 30.1875 20.125 30.1875H25.875C26.2703 30.1875 26.5938 30.5109 26.5938 30.9062Z" fill="#075BF9"/>
</svg>
