<svg width="42" height="42" viewBox="0 0 42 42" fill="none" xmlns="http://www.w3.org/2000/svg">
<g clip-path="url(#clip0_1760_2811)">
<path d="M29.6133 24.2812C29.6133 29.0382 25.757 32.8945 21 32.8945C16.243 32.8945 12.3867 29.0382 12.3867 24.2812C12.3867 22.8133 12.3867 10.9841 12.3867 9.51562C12.3867 4.75863 16.243 0.902344 21 0.902344C25.757 0.902344 29.6133 4.75773 29.6133 9.51562C29.6133 10.9841 29.6133 22.8133 29.6133 24.2812Z" fill="white"/>
<path d="M0.902344 13.207C0.449285 13.207 0.0820312 13.5743 0.0820312 14.0273V27.9727C0.0820312 28.4257 0.449285 28.793 0.902344 28.793C1.3554 28.793 1.72266 28.4257 1.72266 27.9727V14.0273C1.72266 13.5743 1.3554 13.207 0.902344 13.207ZM32.8945 16.4883H30.4336V9.51562C30.4336 4.31394 26.2017 0.0820312 21 0.0820312C15.7983 0.0820312 11.5664 4.31394 11.5664 9.51562V16.4883H9.10547C8.65241 16.4883 8.28516 16.8555 8.28516 17.3086V24.2812C8.28516 31.0166 13.5496 36.5446 20.1797 36.9689V40.2773H17.3086C16.8555 40.2773 16.4883 40.6446 16.4883 41.0977C16.4883 41.5507 16.8555 41.918 17.3086 41.918H24.6914C25.1445 41.918 25.5117 41.5507 25.5117 41.0977C25.5117 40.6446 25.1445 40.2773 24.6914 40.2773H21.8203V36.9689C28.4504 36.5445 33.7148 31.0166 33.7148 24.2812V17.3086C33.7148 16.8555 33.3476 16.4883 32.8945 16.4883ZM13.207 9.51562C13.207 5.21858 16.703 1.72266 21 1.72266C25.297 1.72266 28.793 5.21858 28.793 9.51562V24.2812C28.793 28.5783 25.297 32.0742 21 32.0742C16.703 32.0742 13.207 28.5783 13.207 24.2812V9.51562ZM32.0742 24.2812C32.0742 30.3876 27.1063 35.3555 21 35.3555C14.8937 35.3555 9.92578 30.3876 9.92578 24.2812V18.1289H11.5664V24.2812C11.5664 29.4829 15.7983 33.7148 21 33.7148C26.2017 33.7148 30.4336 29.4829 30.4336 24.2812V18.1289H32.0742V24.2812ZM4.18359 17.3086C3.73054 17.3086 3.36328 17.6758 3.36328 18.1289V23.8711C3.36328 24.3242 3.73054 24.6914 4.18359 24.6914C4.63665 24.6914 5.00391 24.3242 5.00391 23.8711V18.1289C5.00391 17.6758 4.63665 17.3086 4.18359 17.3086ZM37.8164 17.3086C37.3633 17.3086 36.9961 17.6758 36.9961 18.1289V23.8711C36.9961 24.3242 37.3633 24.6914 37.8164 24.6914C38.2695 24.6914 38.6367 24.3242 38.6367 23.8711V18.1289C38.6367 17.6758 38.2695 17.3086 37.8164 17.3086ZM41.0977 13.207C40.6446 13.207 40.2773 13.5743 40.2773 14.0273V27.9727C40.2773 28.4257 40.6446 28.793 41.0977 28.793C41.5507 28.793 41.918 28.4257 41.918 27.9727V14.0273C41.918 13.5743 41.5507 13.207 41.0977 13.207Z" fill="#141414"/>
<path d="M16.4883 11.5664H25.5117C25.9648 11.5664 26.332 11.1992 26.332 10.7461C26.332 10.293 25.9648 9.92578 25.5117 9.92578H16.4883C16.0352 9.92578 15.668 10.293 15.668 10.7461C15.668 11.1992 16.0352 11.5664 16.4883 11.5664ZM16.4883 15.668H25.5117C25.9648 15.668 26.332 15.3007 26.332 14.8477C26.332 14.3946 25.9648 14.0273 25.5117 14.0273H16.4883C16.0352 14.0273 15.668 14.3946 15.668 14.8477C15.668 15.3007 16.0352 15.668 16.4883 15.668ZM16.4883 19.7695H25.5117C25.9648 19.7695 26.332 19.4023 26.332 18.9492C26.332 18.4962 25.9648 18.1289 25.5117 18.1289H16.4883C16.0352 18.1289 15.668 18.4962 15.668 18.9492C15.668 19.4023 16.0352 19.7695 16.4883 19.7695ZM16.4883 23.8711H25.5117C25.9648 23.8711 26.332 23.5038 26.332 23.0508C26.332 22.5977 25.9648 22.2305 25.5117 22.2305H16.4883C16.0352 22.2305 15.668 22.5977 15.668 23.0508C15.668 23.5038 16.0352 23.8711 16.4883 23.8711Z" fill="#075BF9"/>
</g>
<defs>
<clipPath id="clip0_1760_2811">
<rect width="42" height="42" fill="white"/>
</clipPath>
</defs>
</svg>
