<svg width="40" height="40" viewBox="0 0 40 40" fill="none" xmlns="http://www.w3.org/2000/svg">
<path d="M34.7414 28.6109C33.918 27.2375 30.7641 25.8086 27.732 25.4359C25.1643 25.1442 22.5819 25.0007 19.9977 25.0063C17.4134 25.0008 14.831 25.1442 12.2633 25.4359C9.23125 25.8094 6.07734 27.2375 5.25391 28.6109C4.79063 29.4531 4.31641 30.5813 4.30469 32.1133C4.31328 33.6445 4.79063 34.7695 5.25391 35.6149C6.07734 36.9883 9.23125 38.4172 12.2633 38.7899C14.831 39.0816 17.4134 39.225 19.9977 39.2195C22.5819 39.225 25.1643 39.0816 27.732 38.7899C30.7641 38.4172 33.918 36.9883 34.7414 35.6149C35.2047 34.7727 35.6789 33.6445 35.6906 32.1133C35.682 30.5813 35.2047 29.4531 34.7414 28.6109Z" fill="url(#paint0_radial_1779_107)"/>
<path d="M32.344 7.65626C32.0401 7.35217 31.6793 7.11094 31.2822 6.94636C30.8851 6.78177 30.4594 6.69706 30.0295 6.69706C29.5996 6.69706 29.174 6.78177 28.7768 6.94636C28.3797 7.11094 28.0189 7.35217 27.7151 7.65626L20.0002 15.3711L12.2893 7.65626C11.675 7.04191 10.8419 6.69673 9.97316 6.69666C9.10441 6.69658 8.27122 7.04162 7.65687 7.65587C7.04252 8.27011 6.69734 9.10325 6.69727 9.972C6.69719 10.8407 7.04223 11.6739 7.65648 12.2883L15.3713 20L7.65648 27.7125C7.04233 28.3269 6.6974 29.16 6.69754 30.0287C6.69769 30.8974 7.04291 31.7304 7.65726 32.3445C8.27161 32.9587 9.10476 33.3036 9.97343 33.3035C10.8421 33.3033 11.6751 32.9581 12.2893 32.3438L20.0002 24.6297L27.7127 32.3438C28.3269 32.9579 29.1598 33.3029 30.0284 33.3029C30.8969 33.3029 31.7298 32.9579 32.344 32.3438C32.9581 31.7296 33.3031 30.8967 33.3031 30.0281C33.3031 29.1596 32.9581 28.3266 32.344 27.7125L24.6299 20L32.344 12.2883C32.6485 11.9844 32.8902 11.6234 33.055 11.226C33.2199 10.8286 33.3047 10.4025 33.3047 9.97227C33.3047 9.54202 33.2199 9.11599 33.055 8.71858C32.8902 8.32116 32.6485 7.96017 32.344 7.65626Z" fill="url(#paint1_linear_1779_107)"/>
<defs>
<radialGradient id="paint0_radial_1779_107" cx="0" cy="0" r="1" gradientUnits="userSpaceOnUse" gradientTransform="translate(20.0008 33.2556) scale(15.6898 7.06043)">
<stop stop-color="#EF3739" stop-opacity="0.6"/>
<stop offset="1" stop-color="#EF3739" stop-opacity="0"/>
</radialGradient>
<linearGradient id="paint1_linear_1779_107" x1="32.3416" y1="32.3414" x2="7.6596" y2="7.65938" gradientUnits="userSpaceOnUse">
<stop stop-color="#EF3739"/>
<stop offset="0.54" stop-color="#EF3739"/>
<stop offset="1" stop-color="#FF8C8B"/>
</linearGradient>
</defs>
</svg>
