<svg width="40" height="40" viewBox="0 0 40 40" fill="none" xmlns="http://www.w3.org/2000/svg">
<path d="M35.8335 28.3335H10.8335C9.45278 28.3335 8.3335 27.2142 8.3335 25.8335C8.3335 24.4528 9.45278 23.3335 10.8335 23.3335H29.1066C31.2168 23.3404 33.0607 21.9094 33.5776 19.8635L36.6408 7.70362C36.7542 7.25867 36.4854 6.80599 36.0403 6.69257C35.9727 6.67538 35.9032 6.66673 35.8335 6.66683H10.6516L10.6073 6.48942C10.1451 4.63324 8.47713 3.33126 6.56429 3.3335H4.16683C3.70662 3.3335 3.3335 3.70663 3.3335 4.16683C3.3335 4.62704 3.70662 5.00017 4.16683 5.00017H6.56429C7.71175 4.99854 8.71242 5.77958 8.98942 6.89307L12.6825 21.6668H10.8335C8.53227 21.6668 6.66683 23.5323 6.66683 25.8335C6.66683 28.1347 8.53227 30.0002 10.8335 30.0002H12.5209C11.97 30.7174 11.6699 31.5957 11.6668 32.5002C11.6668 34.8014 13.5323 36.6668 15.8335 36.6668C18.1347 36.6668 20.0002 34.8014 20.0002 32.5002C19.9971 31.5957 19.697 30.7174 19.1461 30.0002H25.8542C25.3033 30.7174 25.0032 31.5957 25.0002 32.5002C25.0002 34.8014 26.8656 36.6668 29.1668 36.6668C31.4681 36.6668 33.3335 34.8014 33.3335 32.5002C33.3304 31.5957 33.0304 30.7174 32.4794 30.0002H35.8335C36.2937 30.0002 36.6668 29.627 36.6668 29.1668C36.6668 28.7066 36.2937 28.3335 35.8335 28.3335ZM11.0695 8.3335H34.7642L31.9614 19.4565C31.6303 20.7615 30.4529 21.6731 29.1066 21.6668H14.4272L11.0695 8.3335ZM15.8335 35.0002C14.4528 35.0002 13.3335 33.8809 13.3335 32.5002C13.3335 31.1194 14.4528 30.0002 15.8335 30.0002C17.2142 30.0002 18.3335 31.1194 18.3335 32.5002C18.332 33.8803 17.2136 34.9986 15.8335 35.0002ZM29.1668 35.0002C27.7861 35.0002 26.6668 33.8809 26.6668 32.5002C26.6668 31.1194 27.7861 30.0002 29.1668 30.0002C30.5475 30.0002 31.6668 31.1194 31.6668 32.5002C31.6653 33.8803 30.5469 34.9986 29.1668 35.0002Z" fill="white"/>
</svg>
