<svg width="32" height="32" viewBox="0 0 32 32" fill="none" xmlns="http://www.w3.org/2000/svg">
<path d="M3.4999 1.00148C3.17184 1.00098 2.8469 1.0652 2.54369 1.19046C2.24048 1.31571 1.96495 1.49955 1.73289 1.73144C1.50082 1.96333 1.31678 2.23871 1.19129 2.54183C1.0658 2.84495 1.00134 3.16984 1.00159 3.4979V13.4987C1.00159 14.884 2.11657 15.9989 3.50179 15.9989H4.31441V20.1225L11.4579 15.9989H20.4401C20.7686 15.9997 21.0941 15.9355 21.3978 15.8101C21.7014 15.6848 21.9773 15.5006 22.2097 15.2683C22.442 15.036 22.6261 14.7601 22.7515 14.4564C22.8769 14.1527 22.941 13.8273 22.9403 13.4987V3.49979C22.9408 3.17125 22.8764 2.84585 22.7508 2.54226C22.6252 2.23868 22.4408 1.9629 22.2083 1.73077C21.9758 1.49863 21.6998 1.3147 21.396 1.18955C21.0922 1.06439 20.7667 1.00048 20.4382 1.00148H3.4999Z" fill="#FFC14B"/>
<path d="M14.2737 4.56763C13.6066 4.59975 13.6538 5.60135 14.3209 5.56922H15.9121C16.5792 5.56922 16.5792 4.56763 15.9121 4.56763H14.2737ZM14.3209 8.25651C14.2527 8.25231 14.1843 8.26213 14.12 8.28535C14.0557 8.30857 13.9969 8.34469 13.9471 8.39152C13.8973 8.43835 13.8576 8.49487 13.8305 8.55762C13.8034 8.62036 13.7894 8.688 13.7894 8.75636C13.7894 8.82471 13.8034 8.89235 13.8305 8.95509C13.8576 9.01784 13.8973 9.07436 13.9471 9.12119C13.9969 9.16802 14.0557 9.20414 14.12 9.22736C14.1843 9.25059 14.2527 9.2604 14.3209 9.2562H15.9121C16.0449 9.2562 16.1723 9.20346 16.2662 9.10954C16.3602 9.01562 16.4129 8.88825 16.4129 8.75543C16.4129 8.62261 16.3602 8.49519 16.2662 8.40127C16.1723 8.30735 16.0449 8.25461 15.9121 8.25461L14.3209 8.25651ZM18.452 4.56763C17.7849 4.59975 17.8322 5.60135 18.4993 5.56922H20.0905C20.7576 5.56922 20.7576 4.56763 20.0905 4.56763H18.452ZM18.4993 8.25651C18.431 8.25231 18.3627 8.26213 18.2984 8.28535C18.2341 8.30857 18.1752 8.34469 18.1254 8.39152C18.0756 8.43835 18.036 8.49487 18.0088 8.55762C17.9817 8.62036 17.9677 8.688 17.9677 8.75636C17.9677 8.82471 17.9817 8.89235 18.0088 8.95509C18.036 9.01784 18.0756 9.07436 18.1254 9.12119C18.1752 9.16802 18.2341 9.20414 18.2984 9.22736C18.3627 9.25059 18.431 9.2604 18.4993 9.2562H20.0905C20.2233 9.2562 20.3507 9.20346 20.4446 9.10954C20.5385 9.01562 20.5913 8.88825 20.5913 8.75543C20.5913 8.62261 20.5385 8.49519 20.4446 8.40127C20.3507 8.30735 20.2233 8.25461 20.0905 8.25461L18.4993 8.25651ZM3.8344 4.56763C3.1673 4.59975 3.21644 5.60135 3.88354 5.56922H5.47286C6.13996 5.56922 6.13996 4.56763 5.47286 4.56763H3.8344ZM3.88354 8.25651C3.81531 8.25231 3.74695 8.26213 3.68266 8.28535C3.61837 8.30857 3.55951 8.34469 3.50971 8.39152C3.45992 8.43835 3.42023 8.49487 3.39311 8.55762C3.36598 8.62036 3.35199 8.688 3.35199 8.75636C3.35199 8.82471 3.36598 8.89235 3.39311 8.95509C3.42023 9.01784 3.45992 9.07436 3.50971 9.12119C3.55951 9.16802 3.61837 9.20414 3.68266 9.22736C3.74695 9.25059 3.81531 9.2604 3.88354 9.2562H5.47286C5.60568 9.2562 5.73306 9.20346 5.82698 9.10954C5.92089 9.01562 5.97366 8.88825 5.97366 8.75543C5.97366 8.62261 5.92089 8.49519 5.82698 8.40127C5.73306 8.30735 5.60568 8.25461 5.47286 8.25461L3.88354 8.25651ZM8.01275 4.56763C7.34565 4.59975 7.39479 5.60135 8.06189 5.56922H9.65121C10.3183 5.56922 10.3183 4.56763 9.65121 4.56763H8.01275ZM8.06189 8.25651C7.99366 8.25231 7.9253 8.26213 7.86101 8.28535C7.79672 8.30857 7.73786 8.34469 7.68806 8.39152C7.63827 8.43835 7.59858 8.49487 7.57146 8.55762C7.54433 8.62036 7.53034 8.688 7.53034 8.75636C7.53034 8.82471 7.54433 8.89235 7.57146 8.95509C7.59858 9.01784 7.63827 9.07436 7.68806 9.12119C7.73786 9.16802 7.79672 9.20414 7.86101 9.22736C7.9253 9.25059 7.99366 9.2604 8.06189 9.2562H9.65121C9.78403 9.2562 9.91141 9.20346 10.0053 9.10954C10.0992 9.01562 10.152 8.88825 10.152 8.75543C10.152 8.62261 10.0992 8.49519 10.0053 8.40127C9.91141 8.30735 9.78403 8.25461 9.65121 8.25461L8.06189 8.25651Z" fill="#4D4D4D"/>
<path d="M16.9491 10.2715C14.3261 10.2715 12.9366 12.126 12.8991 14.5665V16H14.7656V14.375C14.7656 12.99 15.6151 12.156 17.0001 12.156H22.9377V10.2715H16.9491Z" fill="#FFA351"/>
<path d="M28.4377 11.8755C29.823 11.8755 30.9379 12.9905 30.9379 14.3738V24.3746C30.9387 24.7032 30.8745 25.0286 30.7491 25.3323C30.6238 25.636 30.4396 25.9119 30.2073 26.1442C29.975 26.3765 29.6991 26.5607 29.3954 26.686C29.0917 26.8114 28.7663 26.8756 28.4377 26.8748H27.0015V31.0003L19.8561 26.8748H17.0007C16.6721 26.8756 16.3467 26.8114 16.043 26.686C15.7393 26.5607 15.4634 26.3765 15.2311 26.1442C14.9988 25.9119 14.8146 25.636 14.6892 25.3323C14.5639 25.0286 14.4997 24.7032 14.5004 24.3746V14.3738C14.5004 12.9905 15.6154 11.8755 17.0007 11.8755H28.4377Z" fill="#3A92FF"/>
<path d="M19.6464 16.7567C18.9812 16.7907 19.0322 17.7905 19.6993 17.7565H21.2905C21.9557 17.7565 21.9557 16.7549 21.2905 16.7549L19.6464 16.7567ZM19.6993 20.4419C19.5665 20.4419 19.4391 20.4946 19.3452 20.5885C19.2513 20.6824 19.1985 20.8098 19.1985 20.9426C19.1985 21.0755 19.2513 21.2029 19.3452 21.2968C19.4391 21.3907 19.5665 21.4435 19.6993 21.4435H21.2905C21.4233 21.4435 21.5507 21.3907 21.6446 21.2968C21.7385 21.2029 21.7913 21.0755 21.7913 20.9426C21.7913 20.8098 21.7385 20.6824 21.6446 20.5885C21.5507 20.4946 21.4233 20.4419 21.2905 20.4419H19.6993ZM23.8247 16.7567C23.1595 16.7907 23.2105 17.7905 23.8776 17.7565H25.4689C26.1341 17.7565 26.1341 16.7549 25.4689 16.7549L23.8247 16.7567Z" fill="white"/>
<path d="M29.3952 21.9467C29.3952 22.7667 29.3867 23.5872 29.4067 24.4067C29.4067 24.8732 29.0557 25.3527 28.4317 25.3527H27.0367C26.0867 25.3527 25.5522 26.0402 25.4867 26.9912C25.4817 28.1717 25.4782 29.0627 25.4787 30.1212L27.0002 31.0002V26.8752H28.4377C29.8227 26.8752 30.9377 25.7602 30.9377 24.3752V21.0921C30.2467 20.6971 29.4057 21.2802 29.3952 21.9467Z" fill="#1B66E8"/>
<path d="M23.8776 20.4438C23.7448 20.4438 23.6174 20.4966 23.5235 20.5905C23.4296 20.6844 23.3768 20.8118 23.3768 20.9446C23.3768 21.0774 23.4296 21.2048 23.5235 21.2987C23.6174 21.3926 23.7448 21.4454 23.8776 21.4454H25.4688C25.6017 21.4454 25.729 21.3926 25.823 21.2987C25.9169 21.2048 25.9696 21.0774 25.9696 20.9446C25.9696 20.8118 25.9169 20.6844 25.823 20.5905C25.729 20.4966 25.6017 20.4438 25.4688 20.4438H23.8776Z" fill="white"/>
</svg>
