<svg width="36" height="36" viewBox="0 0 36 36" fill="none" xmlns="http://www.w3.org/2000/svg">
<path d="M34.3893 22.5308C33.492 21.0201 30.0554 19.4484 26.7515 19.0385C23.9535 18.7176 21.1396 18.5598 18.3236 18.5658C15.5077 18.5598 12.6937 18.7176 9.89579 19.0385C6.59191 19.4492 3.15523 21.0201 2.25796 22.5308C1.75314 23.4572 1.2364 24.6981 1.22363 26.3833C1.233 28.0676 1.75314 29.305 2.25796 30.2348C3.15523 31.7456 6.59191 33.3173 9.89579 33.7272C12.6937 34.0481 15.5077 34.2059 18.3236 34.1998C21.1396 34.2059 23.9535 34.0481 26.7515 33.7272C30.0554 33.3173 33.492 31.7456 34.3893 30.2348C34.8941 29.3085 35.4109 28.0676 35.4236 26.3833C35.4143 24.6981 34.8941 23.4572 34.3893 22.5308Z" fill="url(#paint0_radial_1779_115)"/>
<path d="M31.6989 2.78056C31.0106 2.12569 30.0929 1.77356 29.1475 1.8016C28.2021 1.82964 27.3065 2.23556 26.6575 2.93009L15.0058 15.4008L10.0546 9.82973C9.74162 9.47781 9.363 9.19157 8.94039 8.98735C8.51778 8.78314 8.05946 8.66495 7.5916 8.63954C6.64672 8.58821 5.72034 8.91788 5.01625 9.55603C4.31216 10.1942 3.88804 11.0885 3.83719 12.0424C3.78634 12.9962 4.11293 13.9313 4.74511 14.642L12.2859 23.1272C12.616 23.4969 13.0184 23.7935 13.4678 23.9982C13.9172 24.2029 14.4038 24.3113 14.8968 24.3165H14.9419C15.4279 24.3164 15.9087 24.2162 16.3549 24.0219C16.8011 23.8276 17.2032 23.5433 17.5367 23.1865L31.847 7.86786C32.4952 7.17319 32.8437 6.24717 32.8159 5.29326C32.7882 4.33936 32.3864 3.4356 31.6989 2.78056Z" fill="url(#paint1_linear_1779_115)"/>
<defs>
<radialGradient id="paint0_radial_1779_115" cx="0" cy="0" r="1" gradientUnits="userSpaceOnUse" gradientTransform="translate(18.327 27.6398) scale(17.0966 7.76617)">
<stop stop-color="#13B601" stop-opacity="0.6"/>
<stop offset="1" stop-color="#13B601" stop-opacity="0"/>
</radialGradient>
<linearGradient id="paint1_linear_1779_115" x1="24.8349" y1="15.8236" x2="11.6953" y2="2.80703" gradientUnits="userSpaceOnUse">
<stop stop-color="#13B601"/>
<stop offset="0.57" stop-color="#13B601"/>
<stop offset="1" stop-color="#CBF4B4"/>
</linearGradient>
</defs>
</svg>
