<svg width="45" height="39" viewBox="0 0 45 39" fill="none" xmlns="http://www.w3.org/2000/svg">
<path d="M26.3422 7.19469L23.2588 10.2781C24.2958 10.9548 25.0867 11.9481 25.5138 13.1103C25.941 14.2726 25.9815 15.5417 25.6294 16.7288C25.2773 17.9159 24.5514 18.9577 23.5596 19.6991C22.5678 20.4405 21.3633 20.842 20.125 20.8438H10.0625C8.53751 20.8438 7.07497 20.2379 5.99664 19.1596C4.9183 18.0813 4.3125 16.6187 4.3125 15.0938C4.3125 13.5688 4.9183 12.1062 5.99664 11.0279C7.07497 9.94955 8.53751 9.34375 10.0625 9.34375H15.0938V14.375L22.2812 7.1875L15.0938 0V5.03125H10.0625C7.39376 5.03125 4.83432 6.0914 2.94724 7.97849C1.06015 9.86557 0 12.425 0 15.0938C0 17.7625 1.06015 20.3219 2.94724 22.209C4.83432 24.0961 7.39376 25.1562 10.0625 25.1562H20.125C22.2169 25.158 24.2572 24.5072 25.9617 23.2946C27.6662 22.0819 28.95 20.3678 29.6342 18.391C30.3185 16.4142 30.3691 14.2732 29.779 12.2663C29.1889 10.2594 27.9875 8.48652 26.3422 7.19469Z" fill="#FDC42E"/>
<path d="M22.2812 7.1875L15.0938 14.375V12.2188L20.125 7.1875H22.2812Z" fill="#FDC42E"/>
<path d="M21.3038 28.5344L18.2203 31.6178C16.1897 30.0249 14.8512 27.7107 14.4828 25.1563C14.4104 24.6805 14.3744 24.2 14.375 23.7188C14.3737 22.397 14.6331 21.0879 15.1383 19.8664C15.6435 18.645 16.3846 17.5352 17.3193 16.6005C18.2539 15.6659 19.3638 14.9247 20.5852 14.4195C21.8066 13.9143 23.1157 13.6549 24.4375 13.6563H25.6953C25.8138 14.1263 25.8742 14.609 25.875 15.0938C25.8764 16.1041 25.6085 17.0965 25.0988 17.9688H24.4375C23.4291 17.9693 22.4385 18.2352 21.5655 18.7399C20.6924 19.2446 19.9675 19.9702 19.4638 20.8438C18.954 21.716 18.6861 22.7085 18.6875 23.7188C18.6883 24.2035 18.7487 24.6862 18.8672 25.1563C19.2336 26.5449 20.1017 27.7485 21.3038 28.5344Z" fill="#3A92FF"/>
<path d="M44.5625 23.7188C44.5596 26.3866 43.4986 28.9444 41.6121 30.8309C39.7256 32.7173 37.1679 33.7784 34.5 33.7812H29.4688V38.8125L22.2813 31.625L29.4688 24.4375V29.4688H34.5C36.025 29.4688 37.4875 28.8629 38.5659 27.7846C39.6442 26.7063 40.25 25.2437 40.25 23.7188C40.25 22.1938 39.6442 20.7312 38.5659 19.6529C37.4875 18.5746 36.025 17.9688 34.5 17.9688H29.7706C30.0487 17.0358 30.1892 16.0673 30.1875 15.0938C30.1882 14.6125 30.1521 14.132 30.0797 13.6562H34.5C37.1679 13.6591 39.7256 14.7202 41.6121 16.6066C43.4986 18.4931 44.5596 21.0509 44.5625 23.7188ZM21.3038 28.5344L19.7513 30.0869C18.4097 29.0997 17.4141 27.7141 16.9066 26.1277C16.3991 24.5413 16.4056 22.8351 16.9252 21.2526C17.4447 19.6701 18.4507 18.2921 19.7998 17.3152C21.1488 16.3383 22.7719 15.8124 24.4375 15.8125H25.8319C25.7354 16.5733 25.486 17.3068 25.0988 17.9688H24.4375C23.4291 17.9693 22.4385 18.2352 21.5655 18.7399C20.6924 19.2446 19.9675 19.9702 19.4638 20.8438C18.954 21.716 18.6861 22.7085 18.6875 23.7188C18.6883 24.2035 18.7487 24.6862 18.8672 25.1562C19.2336 26.5449 20.1017 27.7485 21.3038 28.5344Z" fill="#3A92FF"/>
</svg>
