<svg width="48" height="41" viewBox="0 0 48 41" fill="none" xmlns="http://www.w3.org/2000/svg">
<path d="M42.4824 13.2444C41.9803 14.3599 40.8635 15.1415 39.5632 15.1415C39.2869 15.1415 39.0632 14.9179 39.0632 14.6415C39.0632 14.3652 39.2869 14.1415 39.5632 14.1415C40.6453 14.1415 41.5432 13.3567 41.7288 12.3273C41.553 9.7168 39.6597 7.57159 37.2478 7.35345C37.2323 7.35205 37.2196 7.34387 37.2046 7.34113C36.1206 7.49835 35.2792 8.37671 35.2698 9.49408C35.2673 9.76898 35.0442 9.99017 34.7698 9.99017H34.7659C34.4895 9.98773 34.2673 9.76215 34.2698 9.48627C34.282 7.97833 35.3423 6.72583 36.7505 6.39771C36.5349 3.64374 34.4468 1.4765 31.8821 1.4765C29.1741 1.4765 26.9709 3.88324 26.9709 6.84174V34.0908C26.9709 37.0414 29.1741 39.4423 31.8821 39.4423C34.5896 39.4423 36.7927 37.0414 36.7927 34.0908C36.7927 33.9056 36.7852 33.7456 36.7739 33.5951C36.5771 33.6323 36.3799 33.6542 36.1843 33.6542C34.8708 33.6542 33.636 32.8408 33.1658 31.5356C33.072 31.2758 33.2068 30.9897 33.4666 30.8959C33.7258 30.8002 34.0129 30.9365 34.1062 31.1967C34.5183 32.3403 35.7834 32.936 36.9285 32.5239C36.9961 32.4989 37.0654 32.4913 37.1328 32.496C37.1428 32.4948 37.1512 32.4884 37.1614 32.4877C39.7415 32.3159 41.7629 29.977 41.7629 27.1635C41.7629 26.9013 41.9656 26.6625 42.2268 26.644C45.4636 26.4096 47.9988 23.4599 47.9988 19.9282C47.9988 16.4903 45.5951 13.6119 42.4824 13.2444ZM21.1199 6.25V5.31C21.1199 3.67999 19.7999 2.35999 18.1699 2.35999H13.33C13.1 1.02002 11.9299 0 10.52 0C8.93994 0 7.65991 1.27997 7.65991 2.85999C7.65991 4.44 8.93994 5.71997 10.52 5.71997C11.9299 5.71997 13.1 4.70001 13.33 3.35999H18.1699C19.24 3.35999 20.1199 4.23999 20.1199 5.31V6.25C20.1199 7.88 21.4399 9.20001 23.0699 9.20001H25.97V8.20001H23.0699C21.99 8.20001 21.1199 7.32001 21.1199 6.25ZM16.52 15.06V14.13C16.52 12.5 15.2 11.18 13.5699 11.18H5.66992C5.43994 9.84003 4.27002 8.82001 2.85986 8.82001C1.28003 8.82001 0 10.1 0 11.68C0 13.25 1.28003 14.54 2.85986 14.54C4.27002 14.54 5.43994 13.52 5.66992 12.18H13.5699C14.6499 12.18 15.52 13.05 15.52 14.13V15.06C15.52 16.69 16.85 18.02 18.47 18.02H25.97V17.02H18.47C17.3999 17.02 16.52 16.14 16.52 15.06ZM20.1199 34.67V35.61C20.1199 36.68 19.24 37.56 18.1699 37.56H13.33C13.1 36.22 11.9299 35.2 10.52 35.2C8.93994 35.2 7.65991 36.48 7.65991 38.06C7.65991 39.63 8.93994 40.92 10.52 40.92C11.9299 40.92 13.1 39.9 13.33 38.56H18.1699C19.7999 38.56 21.1199 37.23 21.1199 35.61V34.67C21.1199 33.59 21.99 32.72 23.0699 32.72H25.97V31.72H23.0699C21.4399 31.72 20.1199 33.04 20.1199 34.67ZM15.52 25.85V26.79C15.52 27.87 14.6499 28.74 13.5699 28.74H5.66992C5.43994 27.4 4.27002 26.38 2.85986 26.38C1.28003 26.38 0 27.66 0 29.24C0 30.82 1.28003 32.1 2.85986 32.1C4.27002 32.1 5.43994 31.08 5.66992 29.74H13.5699C15.2 29.74 16.52 28.42 16.52 26.79V25.85C16.52 24.78 17.3999 23.9 18.47 23.9H25.97V22.9H18.47C16.85 22.9 15.52 24.23 15.52 25.85Z" fill="#FFC14B"/>
<path d="M42.4824 13.2445C41.9803 14.3599 40.8635 15.1416 39.5632 15.1416C39.2869 15.1416 39.0632 14.918 39.0632 14.6416C39.0632 14.3652 39.2869 14.1416 39.5632 14.1416C40.6453 14.1416 41.5432 13.3568 41.7288 12.3274C41.553 9.71686 39.6597 7.57166 37.2478 7.35352C37.2323 7.35211 37.2196 7.34393 37.2046 7.34119C36.1206 7.49841 35.2792 8.37677 35.2698 9.49414C35.2673 9.76904 35.0442 9.99023 34.7698 9.99023H34.7659C34.4895 9.98779 34.2673 9.76221 34.2698 9.48633C34.282 7.97839 35.3423 6.72589 36.7505 6.39777C36.5349 3.6438 34.4468 1.47656 31.8821 1.47656C29.1741 1.47656 26.9709 3.8833 26.9709 6.8418V34.0908C26.9709 37.0415 29.1741 39.4424 31.8821 39.4424C34.5896 39.4424 36.7927 37.0415 36.7927 34.0908C36.7927 33.9057 36.7852 33.7457 36.7739 33.5952C36.5771 33.6323 36.3799 33.6543 36.1843 33.6543C34.8708 33.6543 33.636 32.8408 33.1658 31.5356C33.072 31.2759 33.2068 30.9897 33.4666 30.896C33.7258 30.8003 34.0129 30.9365 34.1062 31.1968C34.5183 32.3403 35.7834 32.936 36.9285 32.5239C36.9961 32.499 37.0654 32.4913 37.1328 32.4961C37.1428 32.4948 37.1512 32.4885 37.1614 32.4878C39.7415 32.3159 41.7629 29.9771 41.7629 27.1636C41.7629 26.9014 41.9656 26.6626 42.2268 26.644C45.4636 26.4097 47.9988 23.46 47.9988 19.9282C47.9988 16.4904 45.5951 13.6119 42.4824 13.2445Z" fill="#3A92FF"/>
</svg>
