<svg width="42" height="42" viewBox="0 0 42 42" fill="none" xmlns="http://www.w3.org/2000/svg">
<path d="M34.125 5.25H7.875C6.71503 5.25116 5.60291 5.71247 4.78269 6.53269C3.96247 7.35291 3.50116 8.46503 3.5 9.625V32.375C3.50116 33.535 3.96247 34.6471 4.78269 35.4673C5.60291 36.2875 6.71503 36.7488 7.875 36.75H34.125C35.285 36.7488 36.3971 36.2875 37.2173 35.4673C38.0375 34.6471 38.4988 33.535 38.5 32.375V9.625C38.4988 8.46503 38.0375 7.35291 37.2173 6.53269C36.3971 5.71247 35.285 5.25116 34.125 5.25ZM7.875 7H34.125C34.8209 7.00081 35.4882 7.27763 35.9803 7.76974C36.4724 8.26185 36.7492 8.92906 36.75 9.625V10.5H5.25V9.625C5.25081 8.92906 5.52763 8.26185 6.01974 7.76974C6.51185 7.27763 7.17906 7.00081 7.875 7ZM34.125 35H7.875C7.17906 34.9992 6.51185 34.7224 6.01974 34.2303C5.52763 33.7382 5.25081 33.0709 5.25 32.375V12.25H36.75V32.375C36.7492 33.0709 36.4724 33.7382 35.9803 34.2303C35.4882 34.7224 34.8209 34.9992 34.125 35Z" fill="#0F172A"/>
<path d="M14.875 17.5C13.6636 17.5 12.4794 17.8592 11.4721 18.5322C10.4649 19.2053 9.67983 20.1619 9.21624 21.2811C8.75265 22.4003 8.63136 23.6318 8.86769 24.8199C9.10403 26.0081 9.68738 27.0994 10.544 27.956C11.4006 28.8126 12.4919 29.396 13.6801 29.6323C14.8682 29.8686 16.0997 29.7473 17.2189 29.2838C18.3381 28.8202 19.2947 28.0351 19.9678 27.0279C20.6408 26.0206 21 24.8364 21 23.625C20.998 22.0012 20.3521 20.4444 19.2039 19.2961C18.0556 18.1479 16.4988 17.502 14.875 17.5ZM19.1616 22.75H15.75V19.3384C16.5899 19.5114 17.3606 19.9267 17.967 20.533C18.5733 21.1394 18.9886 21.9101 19.1616 22.75ZM14.875 28C13.7908 28 12.7452 27.5975 11.9409 26.8704C11.1367 26.1433 10.631 25.1434 10.5221 24.0647C10.4131 22.986 10.7085 21.9053 11.3511 21.032C11.9937 20.1587 12.9377 19.5552 14 19.3384V23.625C13.9999 23.7399 14.0225 23.8537 14.0665 23.9599C14.1104 24.0661 14.1749 24.1626 14.2562 24.2438C14.3374 24.3251 14.4339 24.3896 14.5401 24.4335C14.6463 24.4775 14.7601 24.5001 14.875 24.5H19.1616C18.9588 25.4875 18.4217 26.3748 17.6408 27.0124C16.8599 27.65 15.8831 27.9988 14.875 28ZM25.375 23.625C25.2601 23.6249 25.1463 23.6475 25.0401 23.6915C24.9339 23.7354 24.8374 23.7999 24.7562 23.8812C24.6749 23.9624 24.6104 24.0589 24.5665 24.1651C24.5225 24.2713 24.4999 24.3851 24.5 24.5V28C24.5 28.2321 24.5922 28.4546 24.7563 28.6187C24.9204 28.7828 25.1429 28.875 25.375 28.875C25.6071 28.875 25.8296 28.7828 25.9937 28.6187C26.1578 28.4546 26.25 28.2321 26.25 28V24.5C26.2501 24.3851 26.2275 24.2713 26.1835 24.1651C26.1396 24.0589 26.0751 23.9624 25.9938 23.8812C25.9126 23.7999 25.8161 23.7354 25.7099 23.6915C25.6037 23.6475 25.4899 23.6249 25.375 23.625ZM28.875 21C28.7601 20.9999 28.6463 21.0225 28.5401 21.0665C28.4339 21.1104 28.3374 21.1749 28.2562 21.2562C28.1749 21.3374 28.1104 21.4339 28.0665 21.5401C28.0225 21.6463 27.9999 21.7601 28 21.875V28C28 28.2321 28.0922 28.4546 28.2563 28.6187C28.4204 28.7828 28.6429 28.875 28.875 28.875C29.1071 28.875 29.3296 28.7828 29.4937 28.6187C29.6578 28.4546 29.75 28.2321 29.75 28V21.875C29.7501 21.7601 29.7275 21.6463 29.6835 21.5401C29.6396 21.4339 29.5751 21.3374 29.4938 21.2562C29.4126 21.1749 29.3161 21.1104 29.2099 21.0665C29.1037 21.0225 28.9899 20.9999 28.875 21ZM32.375 18.375C32.2601 18.3749 32.1463 18.3975 32.0401 18.4415C31.9339 18.4854 31.8374 18.5499 31.7562 18.6312C31.6749 18.7124 31.6104 18.8089 31.5665 18.9151C31.5225 19.0213 31.4999 19.1351 31.5 19.25V28C31.5 28.2321 31.5922 28.4546 31.7563 28.6187C31.9204 28.7828 32.1429 28.875 32.375 28.875C32.6071 28.875 32.8296 28.7828 32.9937 28.6187C33.1578 28.4546 33.25 28.2321 33.25 28V19.25C33.2501 19.1351 33.2275 19.0213 33.1835 18.9151C33.1396 18.8089 33.0751 18.7124 32.9938 18.6312C32.9126 18.5499 32.8161 18.4854 32.7099 18.4415C32.6037 18.3975 32.4899 18.3749 32.375 18.375Z" fill="#0F172A"/>
</svg>
