<svg width="28" height="31" viewBox="0 0 28 31" fill="none" xmlns="http://www.w3.org/2000/svg">
<path d="M8.21496 0C8.21496 2.92352 5.57869 6.38375 2.28855 7.56865C1.55153 7.83323 0.780488 7.98252 0 7.98252V11.3653C0 19.2949 8.23764 30.0365 13.5971 30.0365C18.9566 30.0365 27.1942 19.2949 27.1942 11.3653V7.98252C26.4125 7.97731 25.6375 7.83664 24.9038 7.56676C21.6155 6.38375 18.9793 2.92352 18.9793 0H8.21496Z" fill="#3A92FF"/>
<path d="M22.6077 14.9483C22.6077 16.1315 22.3746 17.3032 21.9218 18.3964C21.469 19.4897 20.8053 20.483 19.9686 21.3197C19.1318 22.1564 18.1385 22.8201 17.0453 23.2729C15.9521 23.7258 14.7804 23.9588 13.5971 23.9588C12.4137 23.9591 11.2418 23.7262 10.1483 23.2735C9.05491 22.8208 8.06137 22.1571 7.22446 21.3204C6.38755 20.4836 5.72367 19.4902 5.27073 18.3969C4.81778 17.3035 4.58466 16.1317 4.58466 14.9483C4.58441 13.7646 4.81735 12.5926 5.27018 11.499C5.72301 10.4055 6.38686 9.41186 7.22379 8.57493C8.06072 7.73799 9.05435 7.07415 10.1479 6.62132C11.2415 6.16849 12.4135 5.93554 13.5971 5.93579C14.7806 5.93579 15.9524 6.16892 17.0457 6.62186C18.1391 7.0748 19.1325 7.73869 19.9692 8.57559C20.806 9.4125 21.4696 10.406 21.9223 11.4995C22.3751 12.5929 22.6079 13.7648 22.6077 14.9483Z" fill="#D1DCFF"/>
<path d="M19.9034 14.9482C19.9029 16.6204 19.2383 18.2239 18.0557 19.4062C16.8731 20.5884 15.2694 21.2526 13.5972 21.2526C11.9253 21.2526 10.3218 20.5887 9.13929 19.4068C7.95675 18.225 7.2919 16.6219 7.29089 14.9501C7.29089 13.2775 7.9553 11.6735 9.13796 10.4909C10.3206 9.30821 11.9246 8.6438 13.5972 8.6438C15.2697 8.6438 16.8737 9.30821 18.0564 10.4909C19.239 11.6735 19.9034 13.2756 19.9034 14.9482Z" fill="#FFC14B"/>
<path d="M18.2952 15.6739C17.6262 18.8639 14.2359 20.9503 11.1082 18.9641C10.9639 18.8432 10.7884 18.7655 10.6019 18.7398C10.4154 18.7142 10.2255 18.7416 10.0539 18.8189C9.88225 18.8962 9.73589 19.0204 9.63158 19.1771C9.52727 19.3338 9.46923 19.5167 9.46411 19.7049C10.3764 20.4958 11.4966 21.0083 12.6916 21.1813C13.8866 21.3543 15.1061 21.1806 16.2053 20.6809C17.3044 20.1812 18.237 19.3764 18.8923 18.3622C19.5475 17.348 19.8978 16.167 19.9015 14.9595C19.2325 14.5249 18.367 15.0276 18.2952 15.672V15.6739Z" fill="#FFAB61"/>
<path d="M24.7694 15.9754C23.2344 20.7364 18.8033 26.9995 13.5963 28.578C12.6098 28.8425 11.6563 28.022 10.6033 27.368C9.97278 26.936 9.11027 27.3415 9.04077 28.103C10.6233 29.3105 12.2068 30.037 13.5963 30.037C18.0363 30.037 24.4464 22.6659 26.5174 15.6289C25.8134 14.9754 24.9479 15.3204 24.7694 15.9744V15.9754Z" fill="#1B66E8"/>
</svg>
