<svg width="41" height="41" viewBox="0 0 41 41" fill="none" xmlns="http://www.w3.org/2000/svg">
<path d="M30.1769 26.8986C29.9745 26.5456 29.487 26.4918 29.2121 26.7916L26.9764 29.2292C26.6054 29.6335 25.9315 29.3708 25.9315 28.8224L25.9437 17.0964C25.9443 16.6384 26.4363 16.3488 26.8367 16.5711L33.0066 19.9959V7.32049C33.0066 5.72341 34.3013 4.42871 35.8983 4.42871H30.838H10.5969C8.99978 4.42871 7.70508 5.72341 7.70508 7.32049V31.8993H26.1391C26.738 31.8993 27.2236 32.3849 27.2236 32.9839V34.0685C27.2236 35.6656 28.5183 36.9603 30.1154 36.9603C31.7125 36.9603 33.0072 35.6656 33.0072 34.0685V31.8289L30.1769 26.8986Z" stroke="white" stroke-miterlimit="10" stroke-linecap="round" stroke-linejoin="round"/>
<path d="M37.7437 10.2121H33.0076V7.22104C33.0076 5.67906 34.2574 4.4292 35.7994 4.4292H35.9986C37.5406 4.4292 38.7905 5.67906 38.7905 7.22104V9.16534C38.7905 9.74318 38.3216 10.2121 37.7437 10.2121ZM26.1394 31.8998H3.00645C2.40747 31.8998 1.92188 32.3848 1.92188 32.9838V34.0684C1.92188 35.6654 3.21658 36.9601 4.81366 36.9601H27.224H30.1158C28.5187 36.9601 27.224 35.6654 27.224 34.0684V32.9838C27.224 32.3848 26.7384 31.8998 26.1394 31.8998Z" stroke="white" stroke-miterlimit="10" stroke-linecap="round" stroke-linejoin="round"/>
<path d="M22.4221 8.54785H11.0479" stroke="white" stroke-miterlimit="10" stroke-linecap="round" stroke-linejoin="round"/>
<path d="M17.2971 11.8843H11.0479" stroke="white" stroke-miterlimit="10" stroke-linecap="round" stroke-linejoin="round"/>
<path d="M17.9378 15.4062H11.0479" stroke="white" stroke-miterlimit="10" stroke-linecap="round" stroke-linejoin="round"/>
<path d="M16.6565 18.8965H11.0479" stroke="white" stroke-miterlimit="10" stroke-linecap="round" stroke-linejoin="round"/>
<path d="M18.5784 22.3862H11.0479" stroke="white" stroke-miterlimit="10" stroke-linecap="round" stroke-linejoin="round"/>
<path d="M19.9192 29.3662H11.0479" stroke="white" stroke-miterlimit="10" stroke-linecap="round" stroke-linejoin="round"/>
<path d="M21.7815 25.876H11.0479" stroke="white" stroke-miterlimit="10" stroke-linecap="round" stroke-linejoin="round"/>
<path d="M25.9438 17.0963L25.9316 28.8223C25.931 29.3706 26.6056 29.6339 26.9765 29.229L29.2123 26.7915C29.4871 26.4917 29.9746 26.5455 30.1771 26.8985L33.318 32.3694C33.4833 32.6577 33.851 32.757 34.1387 32.5917L36.0759 31.4796C36.3642 31.3143 36.4635 30.9466 36.2982 30.6589L33.1496 25.1752C32.949 24.826 33.1419 24.3827 33.5333 24.2905L37.0817 23.4551C37.6166 23.3289 37.7166 22.6108 37.2361 22.3436L26.8368 16.5716C26.4365 16.3493 25.9445 16.6382 25.9438 17.0963Z" stroke="white" stroke-miterlimit="10" stroke-linecap="round" stroke-linejoin="round"/>
<path d="M21.1406 19.5371L23.3758 18.2539" stroke="white" stroke-miterlimit="10" stroke-linecap="round" stroke-linejoin="round"/>
<path d="M29.0723 14.9834L31.308 13.7002" stroke="white" stroke-miterlimit="10" stroke-linecap="round" stroke-linejoin="round"/>
<path d="M21.1543 13.6753L23.3837 14.9694" stroke="white" stroke-miterlimit="10" stroke-linecap="round" stroke-linejoin="round"/>
<path d="M26.2388 10.7573L26.2324 13.3346" stroke="white" stroke-miterlimit="10" stroke-linecap="round" stroke-linejoin="round"/>
</svg>
