<svg width="27" height="26" viewBox="0 0 27 26" fill="none" xmlns="http://www.w3.org/2000/svg">
<path d="M24.68 18.0688L18.11 15.5588C18 15.5188 17.87 15.4888 17.75 15.4888H8.27001C8.15001 15.4888 8.03001 15.5088 7.91001 15.5588L1.34001 18.0688C0.53001 18.3788 0.0100098 19.1288 0.0100098 19.9888C0.0100098 20.8488 0.53001 21.6088 1.34001 21.9088L11.12 25.6388C11.73 25.8688 12.37 25.9788 13.01 25.9788C13.65 25.9788 14.3 25.8688 14.91 25.6388L24.68 21.9088C25.49 21.5988 26.01 20.8488 26.01 19.9888C26.01 19.1288 25.49 18.3688 24.68 18.0688Z" fill="#FFC14B"/>
<path d="M24.68 11.0688L18.11 8.55877C18 8.51877 17.87 8.48877 17.75 8.48877H8.27001C8.15001 8.48877 8.03001 8.50877 7.91001 8.55877L1.34001 11.0688C0.53001 11.3788 0.0100098 12.1288 0.0100098 12.9888C0.0100098 13.8488 0.53001 14.6088 1.34001 14.9088L11.12 18.6388C11.73 18.8688 12.37 18.9788 13.01 18.9788C13.65 18.9788 14.3 18.8688 14.91 18.6388L24.68 14.9088C25.49 14.5988 26.01 13.8488 26.01 12.9888C26.01 12.1288 25.49 11.3688 24.68 11.0688Z" fill="#3A92FF"/>
<path d="M1.34 7.91876L11.12 11.6488C11.73 11.8788 12.37 11.9988 13.01 11.9988C13.65 11.9988 14.29 11.8788 14.9 11.6488L24.68 7.91876C25.49 7.60876 26.01 6.85876 26.01 5.99876C26.01 5.13876 25.49 4.37876 24.68 4.07876L14.9 0.34876C13.68 -0.11124 12.34 -0.12124 11.11 0.34876L1.33 4.07876C0.52 4.38876 0 5.13876 0 5.99876C0 6.85876 0.52 7.61876 1.33 7.92876L1.34 7.91876Z" fill="#FFC14B"/>
</svg>
