<svg width="42" height="42" viewBox="0 0 42 42" fill="none" xmlns="http://www.w3.org/2000/svg">
<path d="M21.0003 3.25684C11.2226 3.25684 3.26758 11.2164 3.26758 21.0001C3.26758 30.784 11.2226 38.7433 21.0003 38.7433C30.7783 38.7433 38.7336 30.784 38.7336 21.0001C38.7333 11.2164 30.7781 3.25684 21.0003 3.25684ZM21.0003 36.9933C12.1869 36.9933 5.01657 29.8189 5.01657 21.0001C5.01657 12.1815 12.1869 5.00684 21.0003 5.00684C29.8138 5.00684 36.9846 12.1815 36.9846 21.0001C36.9844 29.8189 29.8138 36.9933 21.0003 36.9933Z" fill="#0F172A"/>
<path d="M26.4655 10.5886H22.6189C22.6101 10.5886 22.6013 10.589 22.5926 10.5898C18.709 10.602 18.2018 13.3154 18.1997 15.687C18.1943 15.7094 18.1916 15.7324 18.1916 15.7555V17.4203H15.5337C15.4564 17.4203 15.3822 17.4511 15.3276 17.5058C15.2729 17.5605 15.2422 17.6346 15.2422 17.712V21.8178C15.2422 21.8952 15.2729 21.9693 15.3276 22.024C15.3822 22.0787 15.4564 22.1095 15.5337 22.1095H18.1916V31.1193C18.1916 31.1967 18.2223 31.2709 18.2769 31.3256C18.3316 31.3803 18.4058 31.411 18.4831 31.411H22.362C22.4394 31.411 22.5135 31.3803 22.5682 31.3256C22.6228 31.2709 22.6535 31.1967 22.6535 31.1193V22.1098H26.4652C26.5425 22.1098 26.6166 22.079 26.6713 22.0243C26.726 21.9696 26.7567 21.8954 26.7567 21.8181V17.7123C26.7567 17.6349 26.726 17.5608 26.6713 17.5061C26.6166 17.4514 26.5425 17.4206 26.4652 17.4206H22.362V15.2136H26.4652C26.5425 15.2136 26.6166 15.1829 26.6713 15.1282C26.726 15.0735 26.7567 14.9993 26.7567 14.9219V10.8803C26.7567 10.842 26.7492 10.8041 26.7346 10.7687C26.72 10.7333 26.6985 10.7012 26.6715 10.6741C26.6444 10.647 26.6123 10.6255 26.577 10.6108C26.5416 10.5962 26.5037 10.5886 26.4655 10.5886Z" stroke="#0F172A" stroke-width="1.5"/>
</svg>
