<svg width="32" height="32" viewBox="0 0 32 32" fill="none" xmlns="http://www.w3.org/2000/svg">
<path d="M10.6188 0.999756C10.6188 3.92328 7.9825 7.3835 4.69236 8.56841C3.95534 8.83298 3.1843 8.98228 2.40381 8.98228V12.365C2.40381 20.2946 10.6415 31.0363 16.0009 31.0363C21.3604 31.0363 29.598 20.2946 29.598 12.365V8.98228C28.8163 8.97707 28.0413 8.8364 27.3076 8.56652C24.0194 7.3835 21.3831 3.92328 21.3831 0.999756H10.6188Z" fill="#3A92FF"/>
<path d="M25.0115 15.948C25.0115 17.1313 24.7784 18.303 24.3256 19.3962C23.8728 20.4894 23.2091 21.4827 22.3724 22.3194C21.5357 23.1562 20.5423 23.8199 19.4491 24.2727C18.3559 24.7255 17.1842 24.9586 16.0009 24.9586C14.8175 24.9588 13.6456 24.7259 12.5521 24.2732C11.4587 23.8205 10.4652 23.1568 9.62827 22.3201C8.79136 21.4834 8.12748 20.49 7.67453 19.3966C7.22159 18.3033 6.98846 17.1315 6.98846 15.948C6.98822 14.7644 7.22116 13.5923 7.67399 12.4988C8.12682 11.4052 8.79067 10.4116 9.6276 9.57468C10.4645 8.73775 11.4582 8.0739 12.5517 7.62107C13.6453 7.16824 14.8173 6.9353 16.0009 6.93555C17.1844 6.93555 18.3562 7.16868 19.4496 7.62162C20.5429 8.07456 21.5363 8.73844 22.373 9.57535C23.2098 10.4123 23.8734 11.4058 24.3261 12.4992C24.7789 13.5927 25.0117 14.7646 25.0115 15.948Z" fill="#D1DCFF"/>
<path d="M22.3072 15.9479C22.3067 17.6201 21.6421 19.2237 20.4595 20.4059C19.2769 21.5882 17.6732 22.2523 16.001 22.2523C14.3291 22.2523 12.7256 21.5884 11.5431 20.4066C10.3606 19.2247 9.6957 17.6217 9.6947 15.9498C9.6947 14.2773 10.3591 12.6733 11.5418 11.4906C12.7244 10.308 14.3284 9.64355 16.001 9.64355C17.6735 9.64355 19.2775 10.308 20.4602 11.4906C21.6428 12.6733 22.3072 14.2754 22.3072 15.9479Z" fill="#FFC14B"/>
<path d="M20.699 16.6737C20.03 19.8637 16.6397 21.95 13.512 19.9638C13.3677 19.843 13.1922 19.7653 13.0057 19.7396C12.8193 19.7139 12.6293 19.7413 12.4577 19.8187C12.2861 19.896 12.1397 20.0201 12.0354 20.1768C11.9311 20.3335 11.873 20.5165 11.8679 20.7046C12.7802 21.4956 13.9004 22.008 15.0954 22.181C16.2904 22.3541 17.5099 22.1804 18.6091 21.6807C19.7083 21.1809 20.6409 20.3762 21.2961 19.362C21.9513 18.3478 22.3016 17.1667 22.3053 15.9593C21.6363 15.5247 20.7708 16.0274 20.699 16.6718V16.6737Z" fill="#FFAB61"/>
<path d="M27.1732 16.9751C25.6382 21.7362 21.2071 27.9992 16.0001 29.5777C15.0136 29.8422 14.0601 29.0217 13.0071 28.3677C12.3766 27.9357 11.5141 28.3412 11.4446 29.1027C13.0271 30.3102 14.6106 31.0367 16.0001 31.0367C20.4401 31.0367 26.8502 23.6657 28.9212 16.6286C28.2172 15.9751 27.3517 16.3201 27.1732 16.9741V16.9751Z" fill="#1B66E8"/>
</svg>
