<svg width="42" height="42" viewBox="0 0 42 42" fill="none" xmlns="http://www.w3.org/2000/svg">
<path d="M22.5885 36.2461H7.75851C7.49083 36.2461 7.22578 36.2988 6.97849 36.4013C6.7312 36.5037 6.50652 36.6539 6.31728 36.8432C6.12804 37.0326 5.97795 37.2573 5.87559 37.5046C5.77323 37.752 5.7206 38.017 5.7207 38.2847V40.3847H24.6264V38.2847C24.6265 38.017 24.5738 37.752 24.4715 37.5046C24.3691 37.2573 24.219 37.0326 24.0298 36.8432C23.8405 36.6539 23.6159 36.5037 23.3686 36.4013C23.1213 36.2988 22.8562 36.2461 22.5885 36.2461Z" stroke="white" stroke-width="2" stroke-miterlimit="10" stroke-linecap="round" stroke-linejoin="round"/>
<path d="M36.2788 15.2348C29.9465 5.3478 22.9309 27.3461 15.1738 15.2348V4.25176C22.9309 16.3623 29.9465 -5.6352 36.2788 4.25176V15.2348Z" fill="#075BF9" stroke="#075BF9" stroke-miterlimit="10" stroke-linecap="round" stroke-linejoin="round"/>
<path d="M15.1742 32.2793V1.61523M18.4268 32.2793H11.9216C11.3811 32.2793 10.8628 32.494 10.4806 32.8761C10.0985 33.2583 9.88379 33.7766 9.88379 34.3171V36.2458H20.4646V34.3171C20.4646 33.7766 20.2499 33.2583 19.8677 32.8761C19.4855 32.494 18.9672 32.2793 18.4268 32.2793ZM36.2792 15.2345C29.9469 5.34758 22.9313 27.3459 15.1742 15.2345V4.25154C22.9313 16.3621 29.9469 -5.63542 36.2792 4.25154V15.2345Z" stroke="white" stroke-width="2" stroke-miterlimit="10" stroke-linecap="round" stroke-linejoin="round"/>
</svg>
