<svg width="32" height="32" viewBox="0 0 32 32" fill="none" xmlns="http://www.w3.org/2000/svg">
<path d="M11.0516 11.7016C11.0516 13.0429 10.5188 14.3292 9.57037 15.2776C8.62198 16.2259 7.33568 16.7587 5.99445 16.7587C4.65323 16.7587 3.36693 16.2259 2.41854 15.2776C1.47015 14.3292 0.937347 13.0429 0.937347 11.7016C0.937347 10.3604 1.47015 9.07412 2.41854 8.12572C3.36693 7.17733 4.65323 6.64453 5.99445 6.64453C6.65856 6.64453 7.31617 6.77534 7.92973 7.02948C8.54328 7.28362 9.10077 7.65613 9.57037 8.12572C10.04 8.59532 10.4125 9.15281 10.6666 9.76637C10.9208 10.3799 11.0516 11.0375 11.0516 11.7016Z" fill="#FFC861"/>
<path d="M9.59073 12.0172C9.01434 14.5571 6.41586 16.1143 3.87408 14.5004C3.36005 14.0658 2.17893 14.6498 2.67972 15.5172C3.41131 16.1521 4.30985 16.5635 5.2685 16.7026C6.22716 16.8416 7.20558 16.7024 8.08741 16.3015C8.96924 15.9006 9.71738 15.2549 10.2428 14.4411C10.7683 13.6274 11.049 12.6798 11.0515 11.7111C10.5375 10.9061 9.80049 11.2386 9.59073 12.0172Z" fill="#FFA351"/>
<path d="M2.53801 25.3706C2.34098 25.3701 2.14579 25.4085 1.96364 25.4836C1.78149 25.5587 1.61596 25.6691 1.47655 25.8083C1.33714 25.9476 1.2266 26.1129 1.15126 26.295C1.07591 26.4771 1.03726 26.6722 1.03751 26.8692V31.0003H6.25147V26.8692C6.25172 26.6722 6.21306 26.4771 6.13772 26.295C6.06238 26.1129 5.95183 25.9476 5.81242 25.8083C5.67301 25.6691 5.50749 25.5587 5.32534 25.4836C5.14318 25.4085 4.948 25.3701 4.75097 25.3706H2.53801Z" fill="#EF6356"/>
<path d="M10.8021 18.7449C10.6051 18.7446 10.4099 18.7833 10.2279 18.8586C10.0458 18.934 9.88044 19.0445 9.74121 19.1839C9.60198 19.3233 9.49164 19.4889 9.41653 19.671C9.34141 19.8532 9.303 20.0484 9.3035 20.2454V30.9983H14.5175V20.2454C14.518 20.0482 14.4795 19.8528 14.4043 19.6706C14.329 19.4883 14.2185 19.3227 14.0791 19.1833C13.9397 19.0438 13.774 18.9333 13.5918 18.8581C13.4095 18.7829 13.2141 18.7444 13.017 18.7449H10.8021Z" fill="#FFC14B"/>
<path d="M19.0681 10.0576C18.8712 10.0574 18.6762 10.096 18.4943 10.1712C18.3124 10.2464 18.1471 10.3568 18.0079 10.496C17.8687 10.6352 17.7583 10.8005 17.6831 10.9825C17.6078 11.1644 17.5692 11.3594 17.5695 11.5562V31.0004H22.7816V11.5562C22.7818 11.3592 22.7432 11.1641 22.6678 10.982C22.5925 10.8 22.4819 10.6346 22.3425 10.4953C22.2031 10.3561 22.0376 10.2458 21.8554 10.1707C21.6733 10.0955 21.4781 10.0571 21.2811 10.0576H19.0681ZM27.3228 0.996035C27.1256 0.995537 26.9302 1.03401 26.7479 1.10924C26.5657 1.18447 26.4001 1.29498 26.2606 1.43441C26.1212 1.57384 26.0107 1.73946 25.9355 1.92173C25.8602 2.104 25.8218 2.29935 25.8222 2.49654V31.0004H31.0362V2.49465C31.0367 2.29746 30.9982 2.10212 30.923 1.91984C30.8478 1.73757 30.7373 1.57195 30.5978 1.43252C30.4584 1.29309 30.2928 1.18258 30.1105 1.10735C29.9282 1.03212 29.7329 0.993647 29.5357 0.994145L27.3228 0.996035Z" fill="#3A92FF"/>
<path d="M13.0529 9.97443L23.2502 2.90278C23.3364 2.84245 23.4015 2.75649 23.4361 2.6571C23.4707 2.55771 23.4731 2.44996 23.4429 2.34913C23.4128 2.2483 23.3517 2.1595 23.2683 2.09537C23.1848 2.03125 23.0833 1.99506 22.9781 1.99191L19.5235 1.89363C18.8243 1.83883 18.796 2.91033 19.4971 2.89332L21.4285 2.94817L12.4859 9.15237C11.9908 9.52277 12.5313 10.3127 13.0529 9.97443Z" fill="#4D4D4D"/>
<path d="M3.20889 30.9984H6.25147V29.4639H4.01394C3.08794 29.4639 2.84794 30.4088 3.20889 31.0003V30.9984Z" fill="#D85750"/>
<path d="M9.3035 29.4639V31.0003H14.5175V29.4639H9.3035Z" fill="#FFA351"/>
<path d="M17.5695 29.4638V31.0002H22.7816V29.4638H17.5695ZM29.5017 9.09175V29.4638H25.8222V31.0002H31.0362V8.23567C30.3332 7.85204 29.5111 8.47191 29.5017 9.09366V9.09175Z" fill="#1B66E8"/>
<path d="M5.99252 8.04188C5.74252 8.05088 5.49252 8.23838 5.49252 8.57688V8.77889C3.53701 9.36939 4.02501 12.2674 5.97252 12.2674C7.05853 12.2674 6.91753 13.8534 6.03152 13.8534C5.61052 13.8534 5.31902 13.6549 5.21202 13.2569C5.04702 12.5999 4.06051 12.8639 4.24551 13.5154C4.41251 14.1399 4.90302 14.5979 5.49252 14.7644V14.8514C5.47752 15.5329 6.50753 15.5329 6.49253 14.8514V14.7529C8.46104 13.9789 7.78254 11.2674 6.01302 11.2674C4.90702 11.2674 5.05152 9.66689 5.94852 9.66689C6.44003 9.66689 6.67553 9.91189 6.77353 10.2779C6.93603 10.9434 7.93604 10.6729 7.74053 10.0164C7.57303 9.39189 7.08253 8.93389 6.49253 8.76739V8.57738C6.49253 8.20238 6.24252 8.03238 5.99252 8.04188Z" fill="#4D4D4D"/>
</svg>
