<svg width="32" height="32" viewBox="0 0 32 32" fill="none" xmlns="http://www.w3.org/2000/svg">
<path d="M22.1107 26.6877H9.88931C9.88048 27.2535 9.98481 27.8153 10.1961 28.3401C10.4075 28.865 10.7216 29.3423 11.12 29.7441C11.5184 30.1458 11.9931 30.4639 12.5162 30.6796C13.0392 30.8954 13.6001 31.0044 14.1659 31.0003H17.834C18.3984 30.9993 18.957 30.8868 19.4778 30.6693C19.9985 30.4518 20.4712 30.1335 20.8686 29.7328C21.266 29.332 21.5803 28.8568 21.7934 28.3342C22.0066 27.8116 22.1144 27.2521 22.1107 26.6877Z" fill="#666666"/>
<path d="M14.1017 26.6897C13.6727 27.268 13.9373 28.4283 14.9011 28.4283H21.7535C21.9935 27.8576 22.1125 27.3152 22.1125 26.6897H14.1017Z" fill="#4D4D4D"/>
<path d="M16.001 0.999756C13.2594 0.999756 10.6301 2.08885 8.69146 4.02745C6.75285 5.96606 5.66376 8.59537 5.66376 11.337C5.66376 16.8287 8.96902 18.8716 8.96902 21.5381H23.0348C23.0348 19.0058 26.3382 16.6265 26.3382 11.337C26.3382 5.29527 22.0635 0.999756 16.001 0.999756Z" fill="#FFC14B"/>
<path d="M24.6336 10.1632C25.6597 13.9579 22.3961 16.6263 21.8726 19.7974H12.7467C11.9568 19.7974 11.4806 20.8595 11.9058 21.5247C15.6192 21.5247 19.327 21.5379 23.0348 21.5379C23.0348 19.0623 26.3382 16.5753 26.3382 11.3368C26.3382 10.5809 26.272 9.85517 26.1435 9.15973C25.3933 8.7572 24.5561 9.49045 24.6336 10.1632Z" fill="#FFA351"/>
<path d="M10.3681 9.84657L13.3116 21.4952H14.3476L11.5526 10.4191L15.8711 11.5596C15.9561 11.5821 16.0451 11.5821 16.1301 11.5596L20.4481 10.4191L17.6526 21.4952H18.6896L21.6332 9.84657C21.6565 9.7618 21.657 9.67238 21.6348 9.58732C21.6125 9.50226 21.5682 9.42458 21.5063 9.36211C21.4445 9.29964 21.3672 9.25458 21.2824 9.23148C21.1976 9.20839 21.1081 9.20807 21.0232 9.23057L16.0001 10.5596L10.9766 9.23057C10.5636 9.10757 10.2716 9.48407 10.3681 9.84657Z" fill="#4D4D4D"/>
<path d="M9.15419 21.3359H22.8477C23.511 21.3359 24.0458 21.8708 24.0458 22.536V25.6069C24.0461 25.7643 24.0153 25.9202 23.9551 26.0657C23.895 26.2112 23.8068 26.3433 23.6955 26.4547C23.5841 26.566 23.452 26.6542 23.3065 26.7143C23.161 26.7745 23.0051 26.8053 22.8477 26.805H9.15419C8.99678 26.8053 8.84087 26.7745 8.69539 26.7143C8.54991 26.6542 8.41773 26.566 8.30643 26.4547C8.19512 26.3433 8.10688 26.2112 8.04675 26.0657C7.98663 25.9202 7.95581 25.7643 7.95606 25.6069V22.536C7.95606 21.8708 8.48898 21.3378 9.15419 21.3378V21.3359Z" fill="#D1DCFF"/>
<path d="M7.95508 25.1572V25.6067C7.95475 25.7642 7.98552 25.9203 8.04563 26.0658C8.10574 26.2114 8.194 26.3437 8.30535 26.4551C8.4167 26.5665 8.54895 26.6548 8.69451 26.715C8.84007 26.7752 8.99608 26.806 9.15359 26.8057H13.1026C13.6551 26.1567 13.1941 25.1582 12.3421 25.1572H7.95508Z" fill="#BFD2FF"/>
</svg>
