<svg width="36" height="36" viewBox="0 0 36 36" fill="none" xmlns="http://www.w3.org/2000/svg">
<g clip-path="url(#clip0_1956_189)">
<path d="M25.875 34.875H10.125C7.73805 34.875 5.44887 33.9268 3.76104 32.239C2.07321 30.5511 1.125 28.2619 1.125 25.875V10.125C1.125 7.73805 2.07321 5.44887 3.76104 3.76104C5.44887 2.07321 7.73805 1.125 10.125 1.125H25.875C28.2619 1.125 30.5511 2.07321 32.239 3.76104C33.9268 5.44887 34.875 7.73805 34.875 10.125V25.875C34.875 28.2619 33.9268 30.5511 32.239 32.239C30.5511 33.9268 28.2619 34.875 25.875 34.875Z" stroke="#0F172A" stroke-width="2" stroke-miterlimit="10"/>
<path d="M18 11.125C21.797 11.125 24.875 14.203 24.875 18C24.875 21.797 21.797 24.875 18 24.875C14.203 24.875 11.125 21.797 11.125 18C11.125 14.203 14.203 11.125 18 11.125Z" stroke="#0F172A" stroke-width="2" stroke-miterlimit="10"/>
<path d="M28.125 9C28.7463 9 29.25 8.49632 29.25 7.875C29.25 7.25368 28.7463 6.75 28.125 6.75C27.5037 6.75 27 7.25368 27 7.875C27 8.49632 27.5037 9 28.125 9Z" stroke="#0F172A" stroke-width="2" stroke-miterlimit="10"/>
</g>
<defs>
<clipPath id="clip0_1956_189">
<rect width="36" height="36" fill="white"/>
</clipPath>
</defs>
</svg>
