<svg width="40" height="40" viewBox="0 0 40 40" fill="none" xmlns="http://www.w3.org/2000/svg">
<path d="M20.8334 5.00016V4.16683C20.8334 3.94582 20.7456 3.73385 20.5893 3.57757C20.433 3.42129 20.2211 3.3335 20.0001 3.3335C19.779 3.3335 19.5671 3.42129 19.4108 3.57757C19.2545 3.73385 19.1667 3.94582 19.1667 4.16683V5.00016C15.2217 5.19571 11.4744 6.78597 8.59282 9.48744C5.71126 12.1889 3.88278 15.826 3.43339 19.7502C3.40688 19.9896 3.44572 20.2317 3.54578 20.4508C3.64583 20.6699 3.80337 20.8578 4.00165 20.9945C4.19993 21.1313 4.43155 21.2118 4.67191 21.2274C4.91226 21.2431 5.15237 21.1933 5.36673 21.0835C6.54982 20.461 7.8497 20.0921 9.18339 20.0002C10.9696 19.9566 12.7224 20.4883 14.1834 21.5168C14.3229 21.6136 14.4886 21.6655 14.6584 21.6655C14.8282 21.6655 14.9939 21.6136 15.1334 21.5168C16.3307 20.6836 17.717 20.1623 19.1667 20.0002V33.3335C19.1667 34.2176 19.5179 35.0654 20.143 35.6905C20.7682 36.3156 21.616 36.6668 22.5001 36.6668C23.3841 36.6668 24.232 36.3156 24.8571 35.6905C25.4822 35.0654 25.8334 34.2176 25.8334 33.3335V32.5002C25.8334 32.2791 25.7456 32.0672 25.5893 31.9109C25.433 31.7546 25.2211 31.6668 25.0001 31.6668C24.779 31.6668 24.5671 31.7546 24.4108 31.9109C24.2545 32.0672 24.1667 32.2791 24.1667 32.5002V33.3335C24.1667 33.7755 23.9911 34.1994 23.6786 34.512C23.366 34.8246 22.9421 35.0002 22.5001 35.0002C22.058 35.0002 21.6341 34.8246 21.3215 34.512C21.009 34.1994 20.8334 33.7755 20.8334 33.3335V20.0002C22.2597 20.1398 23.626 20.645 24.8001 21.4668C24.9427 21.5638 25.1109 21.616 25.2834 21.6168C25.451 21.618 25.6146 21.5655 25.7501 21.4668C27.0964 20.5553 28.6748 20.0465 30.3001 20.0002C31.811 20.0356 33.2935 20.4176 34.6334 21.1168C34.8494 21.2236 35.09 21.2707 35.3304 21.2531C35.5707 21.2355 35.8019 21.1539 36.0001 21.0168C36.1964 20.877 36.3522 20.6876 36.4517 20.4681C36.5512 20.2486 36.5909 20.0066 36.5667 19.7668C36.121 15.8396 34.2942 12.1986 31.4122 9.49377C28.5303 6.78892 24.7809 5.19629 20.8334 5.00016ZM25.4167 15.6668C25.426 16.9911 25.2464 18.3099 24.8834 19.5835C23.3891 18.7567 21.7079 18.3263 20.0001 18.3335H19.7001C18.1413 18.3811 16.6162 18.7981 15.2501 19.5502C14.7839 18.327 14.5576 17.0255 14.5834 15.7168C14.7167 11.6668 17.3001 6.66683 20.0001 6.66683C22.7001 6.66683 25.4167 10.8002 25.4167 15.7002V15.6668ZM9.15006 18.3335C7.76994 18.4175 6.41827 18.7624 5.16673 19.3502C5.61272 16.495 6.87395 13.8295 8.79876 11.674C10.7236 9.5186 13.23 7.96504 16.0167 7.20016C14.1546 9.64593 13.0741 12.5969 12.9167 15.6668C12.8894 16.8418 13.0297 18.0148 13.3334 19.1502C12.019 18.564 10.5884 18.2848 9.15006 18.3335ZM30.2501 18.3335C29.0401 18.3795 27.8485 18.645 26.7334 19.1168C26.9688 17.9933 27.0861 16.8481 27.0834 15.7002C27.1882 12.7077 26.2713 9.76874 24.4834 7.36683C27.1546 8.20011 29.5394 9.76393 31.3684 11.8816C33.1974 13.9992 34.3976 16.5862 34.8334 19.3502C33.3956 18.6884 31.8328 18.3417 30.2501 18.3335Z" fill="white"/>
</svg>
