<svg width="43" height="43" viewBox="0 0 43 43" fill="none" xmlns="http://www.w3.org/2000/svg">
<path d="M22.2031 31.7734V42.1094C22.2031 42.5305 21.8586 42.875 21.4375 42.875H18.5741C17.6203 42.8773 16.8028 42.1641 16.683 41.2212C16.4568 39.9409 15.5827 38.8647 14.3631 38.3961C13.1764 37.9061 11.8213 38.0592 10.7724 38.8095C10.0275 39.3666 8.97317 39.2868 8.2994 38.6181L4.25688 34.5756C3.6054 33.9378 3.50693 32.8374 4.05782 32.1103C5.68942 29.9764 4.2568 26.5628 1.63834 26.1844C0.700282 26.0743 -0.001115 25.2417 2.80792e-06 24.3009V18.5741C-0.00162032 17.6336 0.700626 16.8078 1.63845 16.6906C3.39855 16.3923 4.76952 14.7604 4.75453 12.9544C4.75455 12.1658 4.50954 11.4078 4.05014 10.757C3.50658 10.0067 3.59078 8.9731 4.25688 8.29935L8.2994 4.25688C8.95017 3.61373 10.0297 3.52186 10.7647 4.05781C12.8979 5.6943 16.3776 4.24721 16.6906 1.60003C16.8438 0.673758 17.64 0 18.5741 0H21.4375C21.8586 0 22.2031 0.344539 22.2031 0.765625V11.1016C22.2031 11.5226 21.8586 11.8672 21.4375 11.8672C8.73628 12.3984 8.75051 30.4835 21.4376 31.0078C21.8586 31.0078 22.2031 31.3524 22.2031 31.7734ZM32.7305 30.5714L28.6573 26.4983C28.5119 26.3528 28.3128 26.2686 28.1137 26.2686H22.2031C21.782 26.2686 21.4375 26.6131 21.4375 27.0342C21.4375 27.463 21.782 27.7998 22.2031 27.7998H27.7922L31.651 31.6509C31.2911 32.2098 31.0768 32.8606 31.0768 33.5649C31.2267 38.2804 38.0621 38.2793 38.2123 33.565C38.2956 30.8277 34.971 29.0265 32.7305 30.5714ZM35.8313 20.6719H22.2032C21.1919 20.6917 21.2042 22.1859 22.2031 22.2031L35.8313 22.2031C36.8086 26.3129 42.7841 25.6984 42.875 21.4375C42.7879 17.1778 36.8052 16.5626 35.8313 20.6719ZM22.2032 15.0752C21.1937 15.0956 21.2015 16.5871 22.2031 16.6064H28.1137C28.3128 16.6064 28.5119 16.5222 28.6573 16.3767L32.7305 12.3036C33.2817 12.6634 33.9402 12.8701 34.6445 12.8701C39.3645 12.7182 39.3535 5.89173 34.6446 5.74225C31.8984 5.66172 30.0944 8.97761 31.651 11.224L27.7922 15.0751L22.2032 15.0752Z" fill="#FFC14B"/>
<path d="M22.2031 31.7734V42.1094C22.2031 42.5305 21.8586 42.875 21.4375 42.875H18.5741C17.6203 42.8773 16.8028 42.1641 16.683 41.2212C16.4568 39.9409 15.5827 38.8647 14.3631 38.3961C13.1764 37.9061 11.8213 38.0592 10.7724 38.8095C10.0275 39.3666 8.97317 39.2868 8.2994 38.6181L4.25688 34.5756C3.6054 33.9378 3.50693 32.8374 4.05782 32.1103C5.68942 29.9764 4.2568 26.5628 1.63834 26.1844C0.700282 26.0743 -0.001115 25.2417 2.80792e-06 24.3009V18.5741C-0.00162032 17.6336 0.700626 16.8078 1.63845 16.6906C3.39855 16.3923 4.76952 14.7604 4.75453 12.9544C4.75455 12.1658 4.50954 11.4078 4.05014 10.757C3.50658 10.0067 3.59078 8.9731 4.25688 8.29935L8.2994 4.25688C8.95017 3.61373 10.0297 3.52186 10.7647 4.05781C12.8979 5.6943 16.3776 4.24721 16.6906 1.60003C16.8438 0.673758 17.64 0 18.5741 0H21.4375C21.8586 0 22.2031 0.344539 22.2031 0.765625V11.1016C22.2031 11.5226 21.8586 11.8672 21.4375 11.8672C8.73628 12.3984 8.75051 30.4835 21.4376 31.0078C21.8586 31.0078 22.2031 31.3524 22.2031 31.7734ZM32.7305 30.5714L28.6573 26.4983C28.5119 26.3528 28.3128 26.2686 28.1137 26.2686H22.2031C21.782 26.2686 21.4375 26.6131 21.4375 27.0342C21.4375 27.463 21.782 27.7998 22.2031 27.7998H27.7922L31.651 31.6509C31.2911 32.2098 31.0768 32.8606 31.0768 33.5649C31.2267 38.2804 38.0621 38.2793 38.2123 33.565C38.2956 30.8277 34.971 29.0265 32.7305 30.5714ZM35.8313 20.6719H22.2032C21.1919 20.6917 21.2042 22.1859 22.2031 22.2031L35.8313 22.2031C36.8086 26.3129 42.7841 25.6984 42.875 21.4375C42.7879 17.1778 36.8052 16.5626 35.8313 20.6719ZM22.2032 15.0752C21.1937 15.0956 21.2015 16.5871 22.2031 16.6064H28.1137C28.3128 16.6064 28.5119 16.5222 28.6573 16.3767L32.7305 12.3036C33.2817 12.6634 33.9402 12.8701 34.6445 12.8701C39.3645 12.7182 39.3535 5.89173 34.6446 5.74225C31.8984 5.66172 30.0944 8.97761 31.651 11.224L27.7922 15.0751L22.2032 15.0752Z" fill="#FFC14B"/>
<path d="M32.7305 30.5714L28.6574 26.4983C28.5119 26.3528 28.3128 26.2686 28.1138 26.2686H22.2032C21.7821 26.2686 21.4375 26.6131 21.4375 27.0342C21.4375 27.463 21.7821 27.7998 22.2032 27.7998H27.7922L31.651 31.6509C31.2911 32.2098 31.0768 32.8606 31.0768 33.5649C31.2267 38.2804 38.0621 38.2793 38.2124 33.565C38.2956 30.8277 34.971 29.0265 32.7305 30.5714ZM35.8313 20.6719H22.2032C21.1919 20.6917 21.2043 22.1859 22.2032 22.2031L35.8313 22.203C36.8086 26.3129 42.7841 25.6984 42.875 21.4375C42.7879 17.1778 36.8053 16.5626 35.8313 20.6719ZM22.2032 15.0752C21.1937 15.0956 21.2015 16.5871 22.2032 16.6064H28.1138C28.3128 16.6064 28.5119 16.5222 28.6574 16.3767L32.7305 12.3036C33.2817 12.6634 33.9402 12.8701 34.6445 12.8701C39.3645 12.7182 39.3535 5.89173 34.6446 5.74225C31.8984 5.66172 30.0944 8.97761 31.651 11.224L27.7922 15.0751L22.2032 15.0752Z" fill="#3A92FF"/>
<path d="M32.7305 30.5714L28.6574 26.4983C28.5119 26.3528 28.3128 26.2686 28.1138 26.2686H22.2032C21.7821 26.2686 21.4375 26.6131 21.4375 27.0342C21.4375 27.463 21.7821 27.7998 22.2032 27.7998H27.7922L31.651 31.6509C31.2911 32.2098 31.0768 32.8606 31.0768 33.5649C31.2267 38.2804 38.0621 38.2793 38.2124 33.565C38.2956 30.8277 34.971 29.0265 32.7305 30.5714ZM35.8313 20.6719H22.2032C21.1919 20.6917 21.2043 22.1859 22.2032 22.2031L35.8313 22.203C36.8086 26.3129 42.7841 25.6984 42.875 21.4375C42.7879 17.1778 36.8053 16.5626 35.8313 20.6719ZM22.2032 15.0752C21.1937 15.0956 21.2015 16.5871 22.2032 16.6064H28.1138C28.3128 16.6064 28.5119 16.5222 28.6574 16.3767L32.7305 12.3036C33.2817 12.6634 33.9402 12.8701 34.6445 12.8701C39.3645 12.7182 39.3535 5.89173 34.6446 5.74225C31.8984 5.66172 30.0944 8.97761 31.651 11.224L27.7922 15.0751L22.2032 15.0752Z" fill="#3A92FF"/>
</svg>
