<svg width="22" height="22" viewBox="0 0 22 22" fill="none" xmlns="http://www.w3.org/2000/svg">
<path d="M11 0C8.82441 0 6.69767 0.645139 4.88873 1.85383C3.07979 3.06253 1.66989 4.78049 0.83733 6.79048C0.00476617 8.80047 -0.213071 11.0122 0.211367 13.146C0.635804 15.2798 1.68345 17.2398 3.22183 18.7782C4.76021 20.3166 6.72022 21.3642 8.85401 21.7886C10.9878 22.2131 13.1995 21.9952 15.2095 21.1627C17.2195 20.3301 18.9375 18.9202 20.1462 17.1113C21.3549 15.3023 22 13.1756 22 11C22 8.08262 20.8411 5.28473 18.7782 3.22183C16.7153 1.15893 13.9174 0 11 0ZM16 12C16 12.2652 15.8946 12.5196 15.7071 12.7071C15.5196 12.8946 15.2652 13 15 13C14.7348 13 14.4804 12.8946 14.2929 12.7071C14.1054 12.5196 14 12.2652 14 12V9.41L7.71 15.71C7.61704 15.8037 7.50644 15.8781 7.38458 15.9289C7.26272 15.9797 7.13202 16.0058 7 16.0058C6.86799 16.0058 6.73729 15.9797 6.61543 15.9289C6.49357 15.8781 6.38297 15.8037 6.29 15.71C6.19628 15.617 6.12188 15.5064 6.07111 15.3846C6.02034 15.2627 5.99421 15.132 5.99421 15C5.99421 14.868 6.02034 14.7373 6.07111 14.6154C6.12188 14.4936 6.19628 14.383 6.29 14.29L12.59 8H10C9.73479 8 9.48043 7.89464 9.2929 7.70711C9.10536 7.51957 9 7.26522 9 7C9 6.73478 9.10536 6.48043 9.2929 6.29289C9.48043 6.10536 9.73479 6 10 6H15C15.1307 6.00158 15.2598 6.02876 15.38 6.08C15.6244 6.18147 15.8185 6.37565 15.92 6.62C15.9712 6.74022 15.9984 6.86932 16 7V12Z" fill="white"/>
</svg>
