<svg width="24" height="24" viewBox="0 0 24 24" fill="none" xmlns="http://www.w3.org/2000/svg">
<path d="M12 1C9.82441 1 7.69767 1.64514 5.88873 2.85383C4.07979 4.06253 2.66989 5.78049 1.83733 7.79048C1.00477 9.80047 0.786929 12.0122 1.21137 14.146C1.6358 16.2798 2.68345 18.2398 4.22183 19.7782C5.76021 21.3166 7.72022 22.3642 9.85401 22.7886C11.9878 23.2131 14.1995 22.9952 16.2095 22.1627C18.2195 21.3301 19.9375 19.9202 21.1462 18.1113C22.3549 16.3023 23 14.1756 23 12C23 9.08262 21.8411 6.28473 19.7782 4.22183C17.7153 2.15893 14.9174 1 12 1ZM17 13C17 13.2652 16.8946 13.5196 16.7071 13.7071C16.5196 13.8946 16.2652 14 16 14C15.7348 14 15.4804 13.8946 15.2929 13.7071C15.1054 13.5196 15 13.2652 15 13V10.41L8.71 16.71C8.61704 16.8037 8.50644 16.8781 8.38458 16.9289C8.26272 16.9797 8.13202 17.0058 8 17.0058C7.86799 17.0058 7.73729 16.9797 7.61543 16.9289C7.49357 16.8781 7.38297 16.8037 7.29 16.71C7.19628 16.617 7.12188 16.5064 7.07111 16.3846C7.02034 16.2627 6.99421 16.132 6.99421 16C6.99421 15.868 7.02034 15.7373 7.07111 15.6154C7.12188 15.4936 7.19628 15.383 7.29 15.29L13.59 9H11C10.7348 9 10.4804 8.89464 10.2929 8.70711C10.1054 8.51957 10 8.26522 10 8C10 7.73478 10.1054 7.48043 10.2929 7.29289C10.4804 7.10536 10.7348 7 11 7H16C16.1307 7.00158 16.2598 7.02876 16.38 7.08C16.6244 7.18147 16.8185 7.37565 16.92 7.62C16.9712 7.74022 16.9984 7.86932 17 8V13Z" fill="#1E5EFF"/>
</svg>
