<svg width="44" height="44" viewBox="0 0 44 44" fill="none" xmlns="http://www.w3.org/2000/svg">
<path d="M3.52085 20.8757V37.2719C3.52085 37.4371 3.58645 37.5955 3.70322 37.7122C3.81999 37.829 3.97836 37.8946 4.14349 37.8946C4.30863 37.8946 4.467 37.829 4.58377 37.7122C4.70053 37.5955 4.76613 37.4371 4.76613 37.2719V35.4372C6.86236 35.4804 8.91376 35.883 10.8655 36.6609C12.2534 37.219 13.5646 37.9516 14.7674 38.841C16.2936 39.9635 18.1388 40.5686 20.0333 40.5678C21.7986 40.5705 23.5234 40.0391 24.9812 39.0436L38.7383 31.361C39.2729 31.0261 39.7133 30.5605 40.0179 30.008C40.3225 29.4556 40.4813 28.8346 40.4792 28.2038C40.4792 27.4093 40.231 26.6497 39.7619 26.0055C38.681 24.5252 36.3789 24.0977 34.7343 25.0698L27.8711 29.1261C27.8397 28.2595 27.4736 27.4388 26.8497 26.8366C26.2258 26.2343 25.3926 25.8974 24.5255 25.8967H16.5258L13.5935 23.6834C12.7703 23.065 11.769 22.7298 10.7393 22.7279H4.7653V20.8765C4.7653 20.7114 4.6997 20.553 4.58294 20.4363C4.46617 20.3195 4.3078 20.2539 4.14266 20.2539C3.97753 20.2539 3.81916 20.3195 3.70239 20.4363C3.58562 20.553 3.52002 20.7114 3.52002 20.8765L3.52085 20.8757ZM10.7393 23.9732C11.4948 23.9732 12.242 24.2239 12.8439 24.678L15.9421 27.0166C16.0501 27.0988 16.1812 27.142 16.3165 27.142H24.5255C24.9415 27.142 25.3483 27.2653 25.6943 27.4964C26.0403 27.7275 26.31 28.056 26.4694 28.4403C26.6288 28.8247 26.6707 29.2476 26.5898 29.6558C26.5089 30.0639 26.3088 30.4389 26.0148 30.7334C25.6183 31.1255 25.0832 31.3457 24.5255 31.3461H16.2701C16.1049 31.3461 15.9466 31.4117 15.8298 31.5284C15.713 31.6452 15.6474 31.8036 15.6474 31.9687C15.6474 32.1338 15.713 32.2922 15.8298 32.409C15.9466 32.5257 16.1049 32.5913 16.2701 32.5913H24.5255C25.4104 32.5913 26.2738 32.2344 26.8948 31.6142C27.1289 31.3809 27.329 31.107 27.4926 30.7965L35.3686 26.1416C36.4644 25.4916 38.0501 25.7713 38.7557 26.7402C39.0673 27.1645 39.2348 27.6774 39.2339 28.2038C39.2365 28.6187 39.1341 29.0276 38.9363 29.3924C38.7385 29.7571 38.4516 30.0659 38.1024 30.2901L24.3262 37.9859C23.022 38.8789 21.4725 39.3443 19.8921 39.3177C18.3118 39.291 16.7788 38.7737 15.5055 37.8373C12.3939 35.5287 8.63907 34.2496 4.7653 34.1787V23.9732H10.7393Z" fill="white"/>
<path d="M23.7003 23.0533C24.7685 23.0522 25.7927 22.6274 26.548 21.872C27.3033 21.1167 27.7281 20.0926 27.7292 19.0244V17.2719H29.4826C31.7033 17.2719 33.5107 15.4645 33.5107 13.243C33.5107 11.0214 31.7033 9.21488 29.4826 9.21488H27.7284V7.46069C27.7284 5.23994 25.9211 3.43262 23.6995 3.43262C21.4779 3.43262 19.6714 5.23994 19.6714 7.46069V9.21488H17.9181C15.6965 9.21488 13.8892 11.0222 13.8892 13.2438C13.8892 15.4654 15.6965 17.2727 17.9181 17.2727H19.6714V19.0252C19.6725 20.0933 20.0972 21.1173 20.8524 21.8726C21.6075 22.6279 22.6314 23.0528 23.6995 23.0541L23.7003 23.0533ZM17.9189 16.0266C17.1808 16.0259 16.4732 15.7324 15.9513 15.2105C15.4294 14.6887 15.1359 13.981 15.1353 13.243C15.1359 12.5049 15.4294 11.7973 15.9513 11.2754C16.4732 10.7535 17.1808 10.46 17.9189 10.4593H20.2949C20.46 10.4593 20.6184 10.3937 20.7352 10.277C20.8519 10.1602 20.9175 10.0018 20.9175 9.83669V7.46069C20.9175 5.9265 22.1661 4.6779 23.7003 4.6779C25.2345 4.6779 26.484 5.9265 26.484 7.46069V9.83669C26.484 10.1804 26.7629 10.4593 27.1066 10.4593H29.4826C30.2205 10.4602 30.9279 10.7538 31.4496 11.2757C31.9714 11.7975 32.2647 12.505 32.2654 13.243C32.2647 13.9809 31.9714 14.6884 31.4496 15.2103C30.9279 15.7321 30.2205 16.0257 29.4826 16.0266H27.1058C26.9406 16.0266 26.7823 16.0922 26.6655 16.2089C26.5487 16.3257 26.4831 16.4841 26.4831 16.6492V19.0244C26.4831 20.5594 25.2345 21.808 23.6995 21.808C22.1645 21.808 20.9167 20.5594 20.9167 19.0244V16.6492C20.9167 16.4841 20.8511 16.3257 20.7343 16.2089C20.6176 16.0922 20.4592 16.0266 20.2941 16.0266H17.9189Z" fill="white"/>
</svg>
