<svg width="42" height="42" viewBox="0 0 42 42" fill="none" xmlns="http://www.w3.org/2000/svg">
<path d="M32.8019 32.8598V4.85959C32.8012 4.26787 32.5658 3.70058 32.1474 3.28216C31.729 2.86375 31.1617 2.62838 30.5699 2.62769H11.4298C10.838 2.62838 10.2707 2.86375 9.85233 3.28216C9.43391 3.70058 9.19854 4.26787 9.19785 4.85959C9.19785 7.64537 9.19654 35.2814 9.19785 37.1432C9.19854 37.7349 9.43391 38.3022 9.85233 38.7206C10.2707 39.139 10.838 39.3744 11.4298 39.3751H30.5699C31.1616 39.3742 31.7287 39.1387 32.1469 38.7204C32.5652 38.302 32.8005 37.7348 32.8012 37.1432C32.8012 37.1432 32.8025 32.8651 32.8019 32.8598ZM26.5255 3.94019L25.1913 6.64197C25.1159 6.79614 24.9986 6.92594 24.8528 7.01648C24.707 7.10702 24.5387 7.15463 24.3671 7.15384H17.2776C17.1059 7.1546 16.9375 7.10698 16.7916 7.01646C16.6457 6.92593 16.5282 6.79614 16.4527 6.64197L15.1185 3.94019H26.5255ZM11.4291 3.94019H13.6544L15.2754 7.2234C15.4587 7.59758 15.7436 7.91259 16.0976 8.13239C16.4516 8.3522 16.8603 8.46793 17.2769 8.46634H24.3671C24.7838 8.46803 25.1926 8.35227 25.5466 8.13232C25.9007 7.91237 26.1855 7.59714 26.3686 7.22275L27.9889 3.94019H30.5693C30.6903 3.93896 30.8104 3.9619 30.9225 4.00768C31.0345 4.05346 31.1363 4.12114 31.2219 4.20677C31.3075 4.2924 31.3751 4.39425 31.4208 4.50635C31.4665 4.61845 31.4894 4.73854 31.488 4.85959V32.2187H10.511V4.86025C10.5097 4.73914 10.5326 4.619 10.5783 4.50685C10.624 4.39471 10.6917 4.29283 10.7774 4.20719C10.863 4.12155 10.9649 4.05388 11.077 4.00814C11.1892 3.9624 11.3093 3.93952 11.4304 3.94084L11.4291 3.94019ZM30.5699 38.0626H11.4298C11.3087 38.0639 11.1885 38.041 11.0764 37.9953C10.9642 37.9495 10.8623 37.8818 10.7767 37.7962C10.6911 37.7106 10.6234 37.6087 10.5776 37.4965C10.5319 37.3844 10.509 37.2643 10.5103 37.1432V33.5318H31.4894V37.1432C31.4907 37.2643 31.4678 37.3844 31.422 37.4965C31.3763 37.6087 31.3086 37.7106 31.223 37.7962C31.1374 37.8818 31.0355 37.9495 30.9233 37.9953C30.8112 38.041 30.691 38.0639 30.5699 38.0626Z" fill="#0F172A"/>
<path d="M20.8231 35.0109C20.6142 35.0109 20.4139 35.0939 20.2662 35.2416C20.1185 35.3893 20.0356 35.5896 20.0356 35.7984C20.0356 36.0073 20.1185 36.2076 20.2662 36.3553C20.4139 36.503 20.6142 36.5859 20.8231 36.5859C21.0319 36.5859 21.2322 36.503 21.3799 36.3553C21.5276 36.2076 21.6106 36.0073 21.6106 35.7984C21.6106 35.5896 21.5276 35.3893 21.3799 35.2416C21.2322 35.0939 21.0319 35.0109 20.8231 35.0109ZM20.6052 27.4943C20.7148 27.5712 20.8447 27.6142 20.9786 27.6177C21.1125 27.6212 21.2444 27.5851 21.3579 27.5139L28.1232 23.0357C28.2135 22.9758 28.2875 22.8944 28.3387 22.7989C28.3899 22.7034 28.4166 22.5967 28.4165 22.4884V15.5387C28.4128 15.4247 28.3811 15.3133 28.3243 15.2145C28.2674 15.1156 28.1871 15.0322 28.0904 14.9717L21.3271 11.0276C21.2322 10.9725 21.1251 10.942 21.0154 10.9388C20.9057 10.9355 20.797 10.9598 20.699 11.0093L13.943 14.4375C13.837 14.495 13.748 14.5793 13.685 14.6821C13.622 14.7848 13.5872 14.9024 13.584 15.0229V21.9627C13.584 22.0653 13.6081 22.1665 13.6542 22.2581C13.7004 22.3497 13.7673 22.4293 13.8498 22.4903L20.6052 27.4943ZM14.8958 16.3229L20.344 20.3536V25.6673L14.8965 21.6313L14.8958 16.3229ZM21.6565 25.7427V20.3753L27.104 16.7659V22.1353L21.6565 25.7427ZM20.974 12.3421L26.5213 15.5774L21.0213 19.2216L15.4858 15.1266L20.974 12.3421ZM27.5838 28.7201H14.9739C14.7999 28.7201 14.633 28.7893 14.5099 28.9123C14.3868 29.0354 14.3177 29.2023 14.3177 29.3764C14.3177 29.5504 14.3868 29.7173 14.5099 29.8404C14.633 29.9635 14.7999 30.0326 14.9739 30.0326H27.5838C27.7578 30.0326 27.9247 29.9635 28.0478 29.8404C28.1709 29.7173 28.24 29.5504 28.24 29.3764C28.24 29.2023 28.1709 29.0354 28.0478 28.9123C27.9247 28.7893 27.7578 28.7201 27.5838 28.7201Z" fill="#0F172A"/>
</svg>
