<svg width="58" height="58" viewBox="0 0 58 58" fill="none" xmlns="http://www.w3.org/2000/svg">
<path d="M18.6776 45.5693C20.2839 47.0012 22.7172 47.3999 25.1085 46.7339C32.533 44.6517 39.8351 40.5102 45.7257 34.6207C54.1222 26.2322 58.198 15.6483 57.9896 5.82233C57.9069 2.53718 55.4623 0.092566 52.1771 0.00760508C42.3511 -0.200832 31.7672 3.87503 23.3787 12.2714C17.4881 18.1621 13.3477 25.4664 11.2656 32.8886C10.5984 35.2811 10.9994 37.7133 12.4301 39.3196C14.3884 41.5234 16.4745 43.6102 18.6776 45.5693ZM12.9331 55.0714C14.2165 53.7551 14.9296 51.9861 14.918 50.1478C14.9064 48.3094 14.1709 46.5496 12.871 45.2497C11.571 43.9497 9.81125 43.2143 7.97288 43.2026C6.13451 43.191 4.36558 43.9042 3.04929 45.1876C1.10425 47.1315 0.339601 50.1436 0.0949137 52.8726C-0.0432542 54.4162 -0.0341506 55.9695 0.122101 57.5114C0.162882 57.8977 0.535578 57.9849 0.600148 57.9963H0.618273C0.774601 57.9963 3.00738 58.0461 3.69613 55.8711C3.81925 55.465 4.00049 55.0789 4.23421 54.7247C4.32957 54.5825 4.47044 54.477 4.63368 54.4255C4.79693 54.374 4.97285 54.3795 5.13254 54.4412C5.29223 54.5028 5.42621 54.617 5.51246 54.7648C5.59871 54.9127 5.63212 55.0855 5.60718 55.2549C5.49628 56.083 5.66789 56.9243 6.09429 57.6428C6.14098 57.723 6.21057 57.7875 6.29414 57.8278C6.3777 57.8682 6.47142 57.8827 6.56327 57.8694C8.89913 57.5103 11.2939 56.7094 12.9331 55.0714Z" fill="#FFC14B"/>
<path d="M12.9331 55.0713C14.2165 53.755 14.9297 51.9861 14.9181 50.1477C14.9064 48.3093 14.171 46.5496 12.871 45.2496C11.5711 43.9496 9.81131 43.2142 7.97294 43.2026C6.13457 43.191 4.36564 43.9041 3.04935 45.1875C1.10431 47.1314 0.339662 50.1436 0.0949747 52.8725C-0.0431932 54.4161 -0.0340896 55.9694 0.122162 57.5114C0.162943 57.8977 0.535639 57.9849 0.600209 57.9962H0.618334C0.774662 57.9962 3.00744 58.0461 3.69619 55.8711C3.81931 55.465 4.00055 55.0788 4.23427 54.7246C4.32963 54.5825 4.4705 54.477 4.63375 54.4254C4.79699 54.3739 4.97291 54.3794 5.1326 54.4411C5.29229 54.5028 5.42627 54.6169 5.51252 54.7648C5.59878 54.9126 5.63218 55.0854 5.60724 55.2548C5.49634 56.0829 5.66796 56.9242 6.09435 57.6428C6.14104 57.723 6.21063 57.7874 6.2942 57.8278C6.37776 57.8681 6.47149 57.8826 6.56334 57.8693C8.89919 57.5102 11.294 56.7093 12.9331 55.0713Z" fill="#3A92FF"/>
<path d="M52.1773 0.00760508C42.3513 -0.200832 31.7674 3.87503 23.379 12.2714C20.4978 15.16 17.9981 18.4054 15.9409 21.9287C16.2502 22.2685 16.564 22.5982 16.8902 22.9244C25.6876 31.7218 38.3921 34.2276 49.4178 30.4463C55.3152 22.8712 58.1665 14.0794 57.9921 5.82233C57.9071 2.53718 55.4625 0.092566 52.1773 0.00760508Z" fill="#FFC14B"/>
<path d="M35.8739 30.5256C33.9306 30.5244 32.0478 29.8494 30.5464 28.6156C29.0449 27.3819 28.0177 25.6657 27.6397 23.7595C27.2618 21.8533 27.5564 19.8751 28.4735 18.1618C29.3906 16.4485 30.8733 15.1061 32.6692 14.3635C34.465 13.6209 36.4627 13.5239 38.322 14.089C40.1813 14.6542 41.7872 15.8466 42.8659 17.463C43.9447 19.0794 44.4296 21.0198 44.238 22.9536C44.0465 24.8875 43.1904 26.6951 41.8155 28.0685C41.0356 28.8489 40.1092 29.4677 39.0896 29.8893C38.0701 30.311 36.9772 30.5272 35.8739 30.5256ZM28.1651 45.7562C27.2238 48.6245 25.6254 51.9142 24.2343 54.727C23.2872 56.5734 25.0759 58.4924 27.4277 57.8852C32.1335 56.6487 36.7003 54.9333 41.0565 52.7661C41.9141 52.3356 42.5224 51.5743 42.707 50.7497C43.3867 47.6911 44.2227 41.3009 44.302 35.9857C39.623 40.2788 34.1379 43.5999 28.1651 45.7562ZM22.0128 13.6988C16.6977 13.7781 10.3086 14.6129 7.25001 15.2926C6.42645 15.4761 5.66407 16.0856 5.23473 16.942C3.06664 21.2985 1.35053 25.8657 0.113287 30.572C-0.493901 32.9237 1.42508 34.7124 3.27157 33.7654C6.08434 32.3743 9.37403 30.7759 12.2423 29.8345C14.3985 23.862 17.7196 18.3773 22.0128 13.6988ZM49.6365 8.44818C47.3131 6.12478 45.445 3.45587 44.225 0.755249C43.1821 0.971994 42.1395 1.23632 41.0973 1.54822C42.4635 4.77447 44.6158 7.91916 47.3935 10.6968C50.1122 13.4156 53.2535 15.5679 56.4469 16.9409C56.7558 15.9055 57.0182 14.8671 57.2342 13.8256C54.5721 12.6011 51.9463 10.7614 49.6365 8.44818Z" fill="#3A92FF"/>
<path d="M35.8739 18.0295C34.9259 18.03 34.0074 18.3592 33.275 18.9609C32.5425 19.5627 32.0413 20.3998 31.8568 21.3296C31.6724 22.2594 31.816 23.2245 32.2633 24.0603C32.7106 24.8961 33.4339 25.5509 34.3099 25.9132C35.1859 26.2755 36.1604 26.3229 37.0674 26.0473C37.9744 25.7716 38.7577 25.19 39.284 24.4015C39.8102 23.613 40.0468 22.6665 39.9533 21.7231C39.8599 20.7798 39.4423 19.898 38.7716 19.2281C38.3912 18.8475 37.9394 18.5457 37.4422 18.34C36.9449 18.1344 36.412 18.0288 35.8739 18.0295Z" fill="white"/>
</svg>
