<svg width="68" height="68" viewBox="0 0 68 68" fill="none" xmlns="http://www.w3.org/2000/svg">
<path d="M64.2707 46.2372C63.0196 45.5891 59.5226 44.0285 57.1811 43.0723C54.8397 42.116 51.2152 40.7574 49.834 40.339C47.5894 39.6949 44.4418 40.3496 42.6076 42.0031C41.5265 43.0311 40.9701 43.6288 39.4347 45.8202L39.4082 45.8574C38.1053 47.7685 35.4025 48.317 33.0571 46.9902C27.3368 43.8585 24.148 40.6697 21.0163 34.9481C19.6882 32.604 20.238 29.9013 22.1492 28.5984L22.1864 28.5718C24.3711 27.0365 24.9754 26.48 25.9968 25.3989C27.6503 23.5648 28.305 20.4158 27.6609 18.1726C27.2425 16.7913 25.8879 13.1602 24.9276 10.8254C23.9674 8.49056 22.4108 4.98165 21.7627 3.73587C20.6736 1.72642 18.1874 0.062276 15.9588 -0.000145888C14.0981 -0.00523114 12.242 0.187095 10.4218 0.573604L10.2333 0.617432C4.89419 1.60157 0.603018 7.19431 0.0531739 17.2309C-0.459482 27.0086 2.6045 40.7388 14.9468 53.0531C27.2572 65.3954 40.9913 68.4594 50.769 67.9467C60.8056 67.3969 66.3983 63.1057 67.3825 57.7667L67.4263 57.5781C67.8128 55.7579 68.0051 53.9019 68 52.0411C67.9376 49.8125 66.2735 47.3263 64.2707 46.2372Z" fill="#FFA351"/>
<path d="M43.3925 27.791C43.8115 27.792 44.2266 27.7105 44.614 27.5509C45.0014 27.3914 45.3536 27.1571 45.6503 26.8613L61.6171 10.8906V19.6363C61.6171 20.4817 61.9529 21.2925 62.5507 21.8902C63.1484 22.488 63.9592 22.8238 64.8046 22.8238C65.6499 22.8238 66.4607 22.488 67.0585 21.8902C67.6562 21.2925 67.9921 20.4817 67.9921 19.6363V3.1875C67.9921 2.34212 67.6562 1.53137 67.0585 0.933597C66.4607 0.335825 65.6499 0 64.8046 0L48.365 0C47.5196 0 46.7089 0.335825 46.1111 0.933597C45.5133 1.53137 45.1775 2.34212 45.1775 3.1875C45.1775 4.03288 45.5133 4.84363 46.1111 5.4414C46.7089 6.03918 47.5196 6.375 48.365 6.375H57.1094L41.1387 22.3497C40.6913 22.7955 40.3865 23.3642 40.2629 23.9835C40.1392 24.6028 40.2023 25.245 40.4442 25.8284C40.6861 26.4118 41.0959 26.9102 41.6215 27.2603C42.1472 27.6105 42.7649 27.7966 43.3965 27.795L43.3925 27.791Z" fill="#3A92FF"/>
<path d="M10.2333 0.617432C4.89419 1.60157 0.603018 7.19431 0.0531739 17.2309C-0.459482 27.0086 2.6045 40.7388 14.9468 53.0531L15.1181 53.2231C15.4156 53.2302 15.7135 53.2338 16.0119 53.2338C22.8844 53.2441 29.6222 51.3283 35.461 47.7034C34.615 47.6517 33.7923 47.4054 33.0571 46.9836C27.3368 43.8519 24.148 40.6631 21.0163 34.9415C19.6882 32.5974 20.238 29.8946 22.1492 28.5917L22.1864 28.5652C24.3711 27.0299 24.9754 26.4734 25.9968 25.3923C27.6503 23.5581 28.305 20.4091 27.6609 18.1659C27.2425 16.7847 25.8879 13.1536 24.9276 10.8188C23.9674 8.48392 22.4108 4.97501 21.7627 3.72923C20.6736 1.72642 18.1874 0.062276 15.9588 -0.000145888C14.0981 -0.00523114 12.242 0.187095 10.4218 0.573604L10.2333 0.617432Z" fill="#FFC14B"/>
</svg>
