<svg width="48" height="48" viewBox="0 0 48 48" fill="none" xmlns="http://www.w3.org/2000/svg">
<g clip-path="url(#clip0_1950_262)">
<path d="M34.5901 19.7251C27.4426 19.7251 21.6301 25.5376 21.6301 32.6851C21.6301 39.8326 27.4426 45.6451 34.5901 45.6451C41.7376 45.6451 47.5501 39.8326 47.5501 32.6851C47.5501 25.5376 41.7376 19.7251 34.5901 19.7251Z" fill="#075BF9"/>
<path d="M19.86 6.74253C16.995 8.68503 12.315 11.19 6.28502 12.105C5.73752 12.1875 5.33252 12.66 5.33252 13.215V22.5225C5.33252 23.145 5.83502 23.6475 6.45752 23.6475C7.08002 23.6475 7.58252 23.145 7.58252 22.5225V14.175C13.5675 13.0875 18.225 10.575 21.1275 8.61003C21.645 8.26503 21.78 7.56003 21.4275 7.05003C21.075 6.53253 20.3775 6.39753 19.86 6.74253ZM39.48 27.93C38.955 27.6 38.2575 27.7575 37.9275 28.2825L33.6975 34.9725L30.7875 32.0625C30.6836 31.9573 30.5598 31.8738 30.4233 31.8168C30.2868 31.7597 30.1404 31.7304 29.9925 31.7304C29.8446 31.7304 29.6982 31.7597 29.5617 31.8168C29.4253 31.8738 29.3015 31.9573 29.1975 32.0625C29.0923 32.1665 29.0088 32.2903 28.9517 32.4267C28.8947 32.5632 28.8654 32.7096 28.8654 32.8575C28.8654 33.0054 28.8947 33.1519 28.9517 33.2883C29.0088 33.4248 29.0923 33.5486 29.1975 33.6525L33.105 37.56C33.315 37.77 33.6075 37.89 33.9 37.89C33.945 37.89 33.9825 37.89 34.0275 37.8825C34.365 37.845 34.6725 37.6575 34.8525 37.365L39.8325 29.4825C40.1625 28.9575 40.005 28.26 39.48 27.93Z" fill="#F2F7FF"/>
<path d="M20.19 47.58C20.2875 47.61 20.3925 47.6175 20.49 47.6175C20.5949 47.6175 20.6924 47.6025 20.79 47.58C22.0218 47.2364 23.2315 46.8181 24.4125 46.3275C24.6865 46.2116 24.9036 45.9919 25.016 45.7164C25.1285 45.4409 25.1272 45.132 25.0125 44.8575C24.8966 44.5834 24.6769 44.3663 24.4014 44.2539C24.1258 44.1414 23.817 44.1427 23.5424 44.2575C22.5525 44.67 21.525 45.0375 20.49 45.3375C2.99245 40.26 2.70745 23.2575 2.69995 22.5375V9.81746C11.94 9.46496 18.3375 4.81496 20.49 3.00746C22.6425 4.81496 29.04 9.46496 38.28 9.81746V16.92C38.28 17.5425 38.7825 18.045 39.405 18.045C40.0275 18.045 40.53 17.5425 40.53 16.92V8.71496C40.53 8.09246 40.0275 7.58996 39.405 7.58996C28.4625 7.58996 21.345 0.764956 21.2775 0.697456C20.8425 0.269956 20.1375 0.269956 19.7025 0.697456C19.635 0.764956 12.5175 7.58996 1.57495 7.58996C0.952451 7.58996 0.449951 8.09246 0.449951 8.71496V22.545C0.449951 22.7325 0.72745 42.1575 20.19 47.58Z" fill="#0F172A"/>
<path d="M34.5899 19.725C27.4424 19.725 21.6299 25.5375 21.6299 32.685C21.6299 39.8325 27.4424 45.645 34.5899 45.645C41.7374 45.645 47.5499 39.8325 47.5499 32.685C47.5499 25.5375 41.7374 19.725 34.5899 19.725ZM34.5899 43.395C28.6874 43.395 23.8799 38.5875 23.8799 32.685C23.8799 26.7825 28.6799 21.975 34.5899 21.975C40.4999 21.975 45.2999 26.775 45.2999 32.685C45.2999 38.595 40.4924 43.395 34.5899 43.395Z" fill="#0F172A"/>
</g>
<defs>
<clipPath id="clip0_1950_262">
<rect width="48" height="48" fill="white"/>
</clipPath>
</defs>
</svg>
