<svg width="48" height="48" viewBox="0 0 48 48" fill="none" xmlns="http://www.w3.org/2000/svg">
<path d="M45.75 22.7025V17.7975L42 16.545C41.6641 15.2285 41.144 13.966 40.455 12.795L42.2325 9.2475L38.7375 5.7825L35.1975 7.56C34.0265 6.87103 32.764 6.35089 31.4475 6.015L30.2025 2.25H25.2975L24.045 6C22.7285 6.33589 21.466 6.85603 20.295 7.545L16.755 5.7825L13.2825 9.255L15.06 12.8025C14.371 13.9735 13.8509 15.236 13.515 16.5525L9.76501 17.805V22.71L13.515 23.9625C13.8509 25.279 14.371 26.5415 15.06 27.7125L13.2825 31.26L16.7625 34.7325L20.3025 32.955C21.4735 33.644 22.736 34.1641 24.0525 34.5L25.305 38.25H30.21L31.4625 34.5C32.779 34.1641 34.0415 33.644 35.2125 32.955L38.76 34.7325L42.2325 31.26L40.455 27.7125C41.144 26.5415 41.6641 25.279 42 23.9625L45.75 22.7025ZM27.75 30.75C25.6733 30.75 23.6432 30.1342 21.9165 28.9804C20.1898 27.8267 18.844 26.1868 18.0493 24.2682C17.2546 22.3496 17.0466 20.2384 17.4518 18.2016C17.8569 16.1648 18.8569 14.2938 20.3254 12.8254C21.7938 11.3569 23.6648 10.3569 25.7016 9.95175C27.7384 9.54661 29.8496 9.75454 31.7682 10.5493C33.6868 11.344 35.3267 12.6898 36.4804 14.4165C37.6342 16.1432 38.25 18.1733 38.25 20.25C38.25 23.0348 37.1438 25.7055 35.1746 27.6746C33.2055 29.6438 30.5348 30.75 27.75 30.75Z" fill="#075BF9"/>
<path d="M28.8526 35.6625L27.9976 38.25H30.2026L31.1851 35.295C30.4157 35.4644 29.6368 35.5871 28.8526 35.6625ZM30.2026 2.25H27.9976L28.8526 4.8375C29.6368 4.9129 30.4157 5.03562 31.1851 5.205L30.2026 2.25ZM45.7501 22.7025V17.7975L42.0001 16.545C41.6642 15.2285 41.144 13.966 40.4551 12.795L42.2326 9.2475L38.7376 5.7825L37.4476 6.4275L39.7501 8.7225C39.8626 8.8339 39.937 8.97807 39.9626 9.13435C39.9882 9.29064 39.9637 9.45101 39.8926 9.5925L38.2876 12.75C38.8471 13.7563 39.29 14.8232 39.6076 15.93L42.9901 17.055C43.139 17.1053 43.2684 17.2012 43.3599 17.329C43.4514 17.4569 43.5005 17.6103 43.5001 17.7675V22.6725C43.5005 22.8297 43.4514 22.9831 43.3599 23.111C43.2684 23.2388 43.139 23.3347 42.9901 23.385L39.6076 24.51C39.2929 25.6369 38.85 26.724 38.2876 27.75L39.8851 30.9375C39.9503 31.0747 39.9723 31.2285 39.9482 31.3785C39.9241 31.5285 39.855 31.6676 39.7501 31.7775L37.4551 34.0725L38.7526 34.7175L42.2251 31.245L40.4476 27.6975C41.1365 26.5265 41.6567 25.264 41.9926 23.9475L45.7501 22.7025Z" fill="#075BF9"/>
<path d="M34.5 20.25C34.5 22.0402 33.7888 23.7571 32.523 25.023C31.2571 26.2888 29.5402 27 27.75 27C27.0865 27.0023 26.4264 26.9036 25.7925 26.7075L15.4575 37.0425C15.6536 37.6764 15.7523 38.3365 15.75 39C15.75 40.7902 15.0388 42.5071 13.773 43.773C12.5071 45.0388 10.7902 45.75 9.00001 45.75C8.13888 45.7513 7.28567 45.5857 6.48751 45.2625L10.5 41.25L9.75001 38.25L6.75001 37.5L2.73751 41.5125C2.41428 40.7143 2.24873 39.8611 2.25001 39C2.25001 37.2098 2.96117 35.4929 4.22704 34.227C5.49291 32.9612 7.2098 32.25 9.00001 32.25C9.66356 32.2478 10.3236 32.3464 10.9575 32.5425L21.2925 22.2075C21.0964 21.5736 20.9978 20.9136 21 20.25C21 18.4598 21.7112 16.7429 22.977 15.477C24.2429 14.2112 25.9598 13.5 27.75 13.5C28.6111 13.4987 29.4643 13.6643 30.2625 13.9875L26.25 18L27 21L30 21.75L34.0125 17.7375C34.3357 18.5357 34.5013 19.3889 34.5 20.25Z" fill="white"/>
<path d="M31.4401 34.5L30.2026 38.25H27.9976L29.1076 34.86C29.8916 34.7871 30.6705 34.6669 31.4401 34.5ZM31.5001 6C30.7307 5.83062 29.9518 5.7079 29.1676 5.6325L27.9976 2.25H30.2026L31.5001 6ZM42.0001 23.955C41.6642 25.2715 41.144 26.534 40.4551 27.705L42.2326 31.2525L38.7601 34.725L37.4626 34.08L39.7501 31.7775C39.8626 31.6661 39.937 31.5219 39.9626 31.3656C39.9882 31.2094 39.9637 31.049 39.8926 30.9075L38.2876 27.75C38.8458 26.743 39.2886 25.6763 39.6076 24.57L42.9901 23.445C43.139 23.3947 43.2684 23.2988 43.3599 23.171C43.4514 23.0431 43.5005 22.8897 43.5001 22.7325V17.7975C43.5005 17.6403 43.4514 17.4869 43.3599 17.359C43.2684 17.2312 43.139 17.1353 42.9901 17.085L39.6076 15.96C39.2921 14.8429 38.8492 13.7658 38.2876 12.75L39.8851 9.5625C39.9503 9.42529 39.9723 9.2715 39.9482 9.12151C39.9241 8.97151 39.855 8.83237 39.7501 8.7225L37.4476 6.4275L38.7376 5.7825L42.2176 9.255L40.4401 12.8025C41.129 13.9735 41.6492 15.236 41.9851 16.5525L45.7351 17.805V22.71L42.0001 23.955Z" fill="#075BF9"/>
<path d="M45.99 17.085L42.6075 15.96C42.2921 14.843 41.8492 13.7659 41.2875 12.75L42.885 9.56253C42.9503 9.42532 42.9723 9.27154 42.9482 9.12154C42.9241 8.97154 42.855 8.8324 42.75 8.72253L41.4225 7.40253C41.3528 7.33223 41.2699 7.27644 41.1785 7.23836C41.0871 7.20029 40.989 7.18068 40.89 7.18068C40.791 7.18068 40.693 7.20029 40.6016 7.23836C40.5102 7.27644 40.4273 7.33223 40.3575 7.40253C40.2178 7.54305 40.1394 7.73314 40.1394 7.93128C40.1394 8.12942 40.2178 8.31951 40.3575 8.46003L41.3025 9.40503L39.8025 12.4725C39.7435 12.582 39.7125 12.7044 39.7125 12.8288C39.7125 12.9532 39.7435 13.0756 39.8025 13.185C40.4504 14.2931 40.9378 15.4875 41.25 16.7325C41.2817 16.8546 41.3437 16.9667 41.4302 17.0585C41.5168 17.1502 41.625 17.2187 41.745 17.2575L45 18.3375V22.1625L41.7525 23.25C41.6325 23.2889 41.5243 23.3573 41.4377 23.4491C41.3512 23.5409 41.2892 23.653 41.2575 23.775C40.9406 25.0208 40.4481 26.2153 39.795 27.3225C39.7292 27.4365 39.6945 27.5659 39.6945 27.6975C39.6945 27.8292 39.7292 27.9585 39.795 28.0725L41.295 31.1325L38.5875 33.84L35.5275 32.34C35.4135 32.2742 35.2842 32.2396 35.1525 32.2396C35.0209 32.2396 34.8915 32.2742 34.7775 32.34C33.6791 32.9716 32.4976 33.4462 31.2675 33.75C31.1455 33.7817 31.0334 33.8437 30.9416 33.9302C30.8498 34.0168 30.7814 34.125 30.7425 34.245L29.6625 37.5H25.8375L24.75 34.2525C24.7112 34.1325 24.6427 34.0243 24.551 33.9377C24.4592 33.8512 24.3471 33.7892 24.225 33.7575C23.1194 33.4705 22.0538 33.0473 21.0525 32.4975L23.085 30.465C24.5468 31.1437 26.1384 31.4968 27.75 31.5C29.9751 31.5 32.1501 30.8402 34.0002 29.6041C35.8503 28.3679 37.2922 26.6109 38.1437 24.5552C38.9952 22.4995 39.2179 20.2376 38.7839 18.0553C38.3498 15.873 37.2783 13.8684 35.705 12.2951C34.1316 10.7217 32.1271 9.65028 29.9448 9.2162C27.7625 8.78211 25.5005 9.0049 23.4448 9.85639C21.3892 10.7079 19.6322 12.1498 18.396 13.9999C17.1598 15.8499 16.5 18.025 16.5 20.25C16.5043 21.8591 16.8574 23.4481 17.535 24.9075L15.5025 26.94C14.9554 25.9384 14.5347 24.8728 14.25 23.7675C14.2183 23.6455 14.1563 23.5334 14.0698 23.4416C13.9833 23.3498 13.875 23.2814 13.755 23.2425L10.5 22.1625V18.3375L13.7475 17.25C13.8675 17.2112 13.9758 17.1427 14.0623 17.051C14.1488 16.9592 14.2108 16.8471 14.2425 16.725C14.5713 15.4772 15.0764 14.2827 15.7425 13.1775C15.8016 13.0681 15.8325 12.9457 15.8325 12.8213C15.8325 12.6969 15.8016 12.5745 15.7425 12.465L14.2425 9.39753L16.95 6.69003L20.01 8.19003C20.124 8.25586 20.2534 8.29051 20.385 8.29051C20.5167 8.29051 20.646 8.25586 20.76 8.19003C21.8451 7.55122 23.0138 7.06657 24.2325 6.75003C24.3546 6.71832 24.4667 6.65634 24.5585 6.56982C24.6502 6.48329 24.7187 6.37503 24.7575 6.25503L25.8375 3.00003H29.6625L30.75 6.24753C30.7889 6.36753 30.8573 6.47579 30.9491 6.56231C31.0409 6.64884 31.153 6.71082 31.275 6.74253C32.5208 7.05951 33.7153 7.55193 34.8225 8.20503C34.9365 8.27086 35.0659 8.30551 35.1975 8.30551C35.3292 8.30551 35.4585 8.27086 35.5725 8.20503L39.075 6.45753C39.1635 6.41302 39.2422 6.35145 39.3067 6.27635C39.3712 6.20126 39.4202 6.11414 39.4509 6.02001C39.4816 5.92589 39.4933 5.82662 39.4855 5.72793C39.4776 5.62925 39.4503 5.5331 39.405 5.44503C39.3151 5.26839 39.1589 5.13452 38.9706 5.07268C38.7823 5.01085 38.5772 5.02607 38.4 5.11503L35.25 6.75003C34.2437 6.1905 33.1768 5.74763 32.07 5.43003L30.945 2.04753C30.9 1.88659 30.8024 1.74531 30.6679 1.64612C30.5334 1.54693 30.3696 1.49551 30.2025 1.50003H25.2975C25.1403 1.49962 24.9869 1.54864 24.8591 1.64016C24.7312 1.73168 24.6353 1.86106 24.585 2.01003L23.46 5.39253C22.3413 5.71991 21.2642 6.17543 20.25 6.75003L17.0925 5.11503C16.9518 5.04295 16.7919 5.0172 16.6356 5.04144C16.4794 5.06569 16.3348 5.13869 16.2225 5.25003L12.75 8.72253C12.6375 8.83393 12.5631 8.9781 12.5375 9.13438C12.5119 9.29067 12.5364 9.45104 12.6075 9.59253L14.25 12.75C13.6905 13.7564 13.2476 14.8233 12.93 15.93L9.54753 17.055C9.39857 17.1053 9.26918 17.2012 9.17766 17.3291C9.08615 17.4569 9.03713 17.6103 9.03753 17.7675V22.6725C9.03713 22.8298 9.08615 22.9831 9.17766 23.111C9.26918 23.2389 9.39857 23.3347 9.54753 23.385L12.93 24.51C13.2828 25.7352 13.7867 26.9118 14.43 28.0125L10.77 31.6725C10.1892 31.5436 9.59484 31.4857 9.00003 31.5C8.01512 31.5 7.03985 31.694 6.12991 32.0709C5.21996 32.4478 4.39317 33.0003 3.69673 33.6967C2.29021 35.1033 1.50003 37.0109 1.50003 39C1.49719 39.9587 1.68058 40.9088 2.04003 41.7975C2.08713 41.9119 2.16176 42.0128 2.25728 42.0913C2.3528 42.1698 2.46625 42.2235 2.58753 42.2475C2.70917 42.273 2.83521 42.2678 2.95434 42.2324C3.07347 42.1971 3.18195 42.1327 3.27003 42.045L7.02003 38.295L9.17253 38.8275L9.70503 40.98L5.99253 44.73C5.90392 44.8175 5.83845 44.9256 5.80205 45.0446C5.76564 45.1636 5.75944 45.2899 5.78399 45.4119C5.80855 45.5339 5.86309 45.6479 5.94271 45.7436C6.02232 45.8393 6.1245 45.9137 6.24003 45.96C7.11707 46.3147 8.05398 46.4981 9.00003 46.5C9.85111 46.4969 10.6955 46.3498 11.4975 46.065C11.5906 46.0325 11.6764 45.982 11.7499 45.9164C11.8235 45.8507 11.8834 45.7712 11.9262 45.6824C11.969 45.5936 11.994 45.4973 11.9995 45.3988C12.0051 45.3004 11.9913 45.2019 11.9588 45.1088C11.9263 45.0157 11.8758 44.9299 11.8101 44.8564C11.7445 44.7828 11.665 44.7229 11.5762 44.6801C11.4874 44.6373 11.391 44.6124 11.2926 44.6068C11.1942 44.6012 11.0956 44.615 11.0025 44.6475C10.0127 45.0018 8.94709 45.0897 7.91253 44.9025L11.0325 41.7825C11.1302 41.6871 11.2 41.5668 11.2344 41.4347C11.2688 41.3025 11.2664 41.1634 11.2275 41.0325L10.4775 38.0325C10.4447 37.9001 10.3764 37.7791 10.2799 37.6827C10.1834 37.5862 10.0625 37.5179 9.93003 37.485L6.93003 36.735C6.79911 36.6962 6.66007 36.6938 6.5279 36.7282C6.39573 36.7625 6.27545 36.8323 6.18003 36.93L3.09753 40.0875C3.03129 39.7289 2.99865 39.3648 3.00003 39C2.99994 38.0639 3.21891 37.1407 3.63941 36.3043C4.05992 35.4679 4.6703 34.7416 5.42174 34.1833C6.17319 33.625 7.04485 33.2502 7.96701 33.0891C8.88918 32.9279 9.83626 32.9847 10.7325 33.255C10.8621 33.2958 11.0004 33.3005 11.1324 33.2688C11.2645 33.2371 11.3855 33.1701 11.4825 33.075L21.825 22.74C21.9201 22.643 21.9871 22.522 22.0188 22.3899C22.0505 22.2578 22.0458 22.1196 22.005 21.99C21.7333 21.0933 21.6754 20.1454 21.8359 19.2222C21.9964 18.2991 22.3709 17.4264 22.9293 16.674C23.4878 15.9216 24.2147 15.3105 25.0518 14.8895C25.889 14.4686 26.813 14.2496 27.75 14.25C28.1146 14.2524 28.4784 14.285 28.8375 14.3475L25.7175 17.4675C25.6263 17.5594 25.5604 17.6733 25.5262 17.7981C25.4921 17.923 25.4908 18.0545 25.5225 18.18L26.2725 21.18C26.3054 21.3125 26.3737 21.4334 26.4702 21.5299C26.5666 21.6264 26.6876 21.6947 26.82 21.7275L29.82 22.4775C29.951 22.5164 30.09 22.5188 30.2222 22.4844C30.3543 22.45 30.4746 22.3802 30.57 22.2825L33.69 19.1625C33.7441 19.5223 33.7642 19.8865 33.75 20.25C33.7501 21.1862 33.5312 22.1094 33.1106 22.9457C32.6901 23.7821 32.0798 24.5085 31.3283 25.0668C30.5769 25.6251 29.7052 25.9998 28.7831 26.161C27.8609 26.3222 26.9138 26.2653 26.0175 25.995C25.8879 25.9543 25.7497 25.9495 25.6176 25.9812C25.4855 26.0129 25.3645 26.0799 25.2675 26.175L14.925 36.51C14.8299 36.607 14.7629 36.728 14.7312 36.8601C14.6995 36.9922 14.7043 37.1304 14.745 37.26C14.915 37.8244 15.001 38.4107 15 39C15.0033 40.367 14.5314 41.6926 13.665 42.75C13.603 42.8269 13.5567 42.9151 13.5287 43.0099C13.5008 43.1046 13.4918 43.2039 13.5023 43.3021C13.5127 43.4003 13.5424 43.4955 13.5896 43.5822C13.6369 43.6689 13.7007 43.7455 13.7775 43.8075C13.8544 43.8696 13.9426 43.9159 14.0374 43.9438C14.1321 43.9717 14.2314 43.9807 14.3296 43.9703C14.4278 43.9599 14.523 43.9302 14.6097 43.8829C14.6964 43.8357 14.773 43.7719 14.835 43.695C15.9087 42.3654 16.4962 40.709 16.5 39C16.5015 38.4165 16.4336 37.8349 16.2975 37.2675L19.9575 33.6075C21.0583 34.2509 22.2348 34.7548 23.46 35.1075L24.585 38.49C24.6353 38.639 24.7312 38.7684 24.8591 38.8599C24.9869 38.9514 25.1403 39.0004 25.2975 39H30.2025C30.3598 39.0004 30.5131 38.9514 30.641 38.8599C30.7689 38.7684 30.8647 38.639 30.915 38.49L32.04 35.1075C33.1566 34.7907 34.2336 34.3479 35.25 33.7875L38.4375 35.385C38.5747 35.4503 38.7285 35.4723 38.8785 35.4482C39.0285 35.4241 39.1677 35.355 39.2775 35.25L42.75 31.7775C42.8626 31.6661 42.937 31.522 42.9626 31.3657C42.9882 31.2094 42.9637 31.049 42.8925 30.9075L41.2875 27.75C41.8458 26.7431 42.2886 25.6763 42.6075 24.57L45.99 23.445C46.139 23.3947 46.2684 23.2989 46.3599 23.171C46.4514 23.0431 46.5004 22.8898 46.5 22.7325V17.7975C46.5004 17.6403 46.4514 17.4869 46.3599 17.3591C46.2684 17.2312 46.139 17.1353 45.99 17.085ZM26.0175 27.5475C26.5849 27.6836 27.1665 27.7515 27.75 27.75C29.7392 27.75 31.6468 26.9599 33.0533 25.5533C34.4599 24.1468 35.25 22.2392 35.25 20.25C35.2529 19.2914 35.0695 18.3413 34.71 17.4525C34.6637 17.337 34.5893 17.2348 34.4936 17.1552C34.3979 17.0756 34.2839 17.021 34.1619 16.9965C34.0399 16.9719 33.9136 16.9781 33.7946 17.0145C33.6756 17.051 33.5675 17.1164 33.48 17.205L29.73 20.9175L27.5775 20.385L27.045 18.2325L30.795 14.52C30.8836 14.4326 30.9491 14.3245 30.9855 14.2055C31.0219 14.0864 31.0281 13.9602 31.0036 13.8382C30.979 13.7161 30.9245 13.6021 30.8449 13.5064C30.7652 13.4107 30.6631 13.3364 30.5475 13.29C29.659 12.9298 28.7088 12.7464 27.75 12.75C25.7609 12.75 23.8533 13.5402 22.4467 14.9467C21.0402 16.3533 20.25 18.2609 20.25 20.25C20.2485 20.8335 20.3165 21.4151 20.4525 21.9825L18.6675 23.7675C18.2245 22.6478 17.998 21.4542 18 20.25C18 18.3217 18.5719 16.4366 19.6432 14.8332C20.7145 13.2298 22.2373 11.9802 24.0189 11.2422C25.8004 10.5043 27.7608 10.3112 29.6522 10.6874C31.5435 11.0636 33.2808 11.9922 34.6443 13.3557C36.0079 14.7193 36.9365 16.4566 37.3127 18.3479C37.6889 20.2392 37.4958 22.1996 36.7579 23.9812C36.0199 25.7628 34.7702 27.2855 33.1668 28.3569C31.5635 29.4282 29.6784 30 27.75 30C26.5459 30.0021 25.3522 29.7755 24.2325 29.3325L26.0175 27.5475Z" fill="#0F172A"/>
</svg>
