<svg width="34" height="37" viewBox="0 0 34 37" fill="none" xmlns="http://www.w3.org/2000/svg">
<path d="M32.25 6.04688C29.4684 6.04688 27.1773 3.93047 26.9019 1.22281C26.8347 0.530781 26.2569 0 25.5648 0H16.7969H8.02891C7.33688 0 6.75906 0.530781 6.69187 1.22281C6.41641 3.93719 4.12531 6.04688 1.34375 6.04688C0.604688 6.04688 0 6.65156 0 7.39062V14.1094C0 27.688 12.4498 34.5209 15.4733 35.9789C15.8898 36.1805 16.34 36.2812 16.7969 36.2812C17.2537 36.2812 17.7106 36.1805 18.1205 35.9789C21.1439 34.5209 33.5938 27.688 33.5938 14.1094V7.39062C33.5938 6.65156 32.9891 6.04688 32.25 6.04688Z" fill="#FDC42E"/>
<path d="M16.7969 32.8883C14.2505 31.6319 3.35938 25.5917 3.35938 14.1094V9.17109C4.92484 8.80156 6.35594 8.00875 7.51828 6.84641C8.51266 5.85203 9.23828 4.66281 9.65484 3.35938H23.9322C24.3487 4.66281 25.0744 5.85203 26.0688 6.84641C27.2311 8.00875 28.6689 8.80828 30.2277 9.17109V14.1094C30.2277 25.5917 19.3366 31.6386 16.7902 32.8883H16.7969Z" fill="#3A92FF"/>
<path d="M14.7813 22.1719C14.4319 22.1719 14.096 22.0375 13.8474 21.7889L10.488 18.5236C9.95721 18.0063 9.94377 17.153 10.4611 16.6222C10.9785 16.0914 11.8317 16.078 12.3625 16.5953L14.7275 18.8932L21.1842 11.8519C21.6881 11.3077 22.5347 11.2674 23.0856 11.7713C23.6299 12.2752 23.6702 13.1217 23.1663 13.6727L15.7756 21.7352C15.5271 22.0039 15.1844 22.1585 14.8216 22.1719C14.8081 22.1719 14.7947 22.1719 14.7813 22.1719Z" fill="white"/>
</svg>
