<svg width="48" height="48" viewBox="0 0 48 48" fill="none" xmlns="http://www.w3.org/2000/svg">
<path d="M31.5001 42.75C31.4046 42.7502 31.3101 42.7318 31.2217 42.6958C28.8638 41.7618 26.842 40.139 25.42 38.0389C23.998 35.9388 23.2418 33.459 23.2501 30.9229V28.5C23.25 28.3501 23.2949 28.2037 23.379 28.0797C23.4631 27.9556 23.5825 27.8596 23.7217 27.8042L31.2217 24.8042C31.4001 24.731 31.6001 24.731 31.7784 24.8042L39.2784 27.8042C39.4176 27.8596 39.537 27.9556 39.6211 28.0797C39.7052 28.2037 39.7501 28.3501 39.7501 28.5V30.9229C39.7583 33.459 39.0021 35.9388 37.5801 38.0389C36.1581 40.139 34.1363 41.7618 31.7784 42.6958C31.69 42.7318 31.5955 42.7502 31.5001 42.75ZM24.7501 29.0083V30.9229C24.7428 33.1077 25.3791 35.2464 26.5795 37.072C27.7798 38.8976 29.4912 40.3293 31.5001 41.1885C33.5089 40.3293 35.2203 38.8976 36.4207 37.072C37.6211 35.2464 38.2573 33.1077 38.2501 30.9229V29.0083L31.5001 26.3071L24.7501 29.0083Z" fill="#0F172A"/>
<path d="M31.5001 42.75C31.4046 42.7502 31.3101 42.7318 31.2217 42.6958C28.8638 41.7618 26.842 40.139 25.42 38.0389C23.998 35.9388 23.2418 33.459 23.2501 30.9229V28.5C23.25 28.3501 23.2949 28.2037 23.379 28.0797C23.4631 27.9556 23.5825 27.8596 23.7217 27.8042L31.2217 24.8042C31.4001 24.731 31.6001 24.731 31.7784 24.8042L39.2784 27.8042C39.4176 27.8596 39.537 27.9556 39.6211 28.0797C39.7052 28.2037 39.7501 28.3501 39.7501 28.5V30.9229C39.7583 33.459 39.0021 35.9388 37.5801 38.0389C36.1581 40.139 34.1363 41.7618 31.7784 42.6958C31.69 42.7318 31.5955 42.7502 31.5001 42.75Z" fill="#075BF9"/>
<path d="M31.5 36.75C31.4015 36.7501 31.3039 36.7307 31.2129 36.693C31.1219 36.6554 31.0392 36.6001 30.9695 36.5305C30.8999 36.4608 30.8446 36.3781 30.807 36.2871C30.7693 36.1961 30.7499 36.0985 30.75 36V30C30.75 29.8011 30.829 29.6103 30.9697 29.4697C31.1103 29.329 31.3011 29.25 31.5 29.25C31.6989 29.25 31.8897 29.329 32.0303 29.4697C32.171 29.6103 32.25 29.8011 32.25 30V36C32.2501 36.0985 32.2307 36.1961 32.193 36.2871C32.1554 36.3781 32.1001 36.4608 32.0305 36.5305C31.9608 36.6001 31.8781 36.6554 31.7871 36.693C31.6961 36.7307 31.5985 36.7501 31.5 36.75Z" fill="#0F172A"/>
<path d="M31.5 36.75C31.4015 36.7501 31.3039 36.7307 31.2129 36.693C31.1219 36.6554 31.0392 36.6001 30.9695 36.5305C30.8999 36.4608 30.8446 36.3781 30.807 36.2871C30.7693 36.1961 30.7499 36.0985 30.75 36V30C30.75 29.8011 30.829 29.6103 30.9697 29.4697C31.1103 29.329 31.3011 29.25 31.5 29.25C31.6989 29.25 31.8897 29.329 32.0303 29.4697C32.171 29.6103 32.25 29.8011 32.25 30V36C32.2501 36.0985 32.2307 36.1961 32.193 36.2871C32.1554 36.3781 32.1001 36.4608 32.0305 36.5305C31.9608 36.6001 31.8781 36.6554 31.7871 36.693C31.6961 36.7307 31.5985 36.7501 31.5 36.75Z" fill="white"/>
<path d="M34.5001 33.75H28.5001C28.3012 33.75 28.1105 33.671 27.9698 33.5303C27.8291 33.3897 27.7501 33.1989 27.7501 33C27.7501 32.8011 27.8291 32.6103 27.9698 32.4697C28.1105 32.329 28.3012 32.25 28.5001 32.25H34.5001C34.699 32.25 34.8898 32.329 35.0305 32.4697C35.1711 32.6103 35.2501 32.8011 35.2501 33C35.2501 33.1989 35.1711 33.3897 35.0305 33.5303C34.8898 33.671 34.699 33.75 34.5001 33.75ZM45.7501 21C45.745 19.3072 45.1028 17.6784 43.9513 16.4377C42.7997 15.197 41.2233 14.4353 39.5356 14.3041C39.1674 12.8715 38.2834 11.6252 37.0531 10.8041C35.8228 9.98301 34.3327 9.64488 32.8685 9.85454C32.2573 8.59882 31.3351 7.5203 30.1895 6.72152C29.0439 5.92275 27.7131 5.43026 26.3235 5.29088C24.9339 5.1515 23.5317 5.36987 22.2503 5.92522C20.9689 6.48057 19.8509 7.35445 19.0025 8.46377C18.0293 8.23046 17.0196 8.1919 16.0314 8.35032C15.8352 8.38295 15.66 8.49219 15.5444 8.65399C15.4287 8.8158 15.3821 9.01692 15.4147 9.21311C15.4473 9.40931 15.5566 9.5845 15.7184 9.70016C15.8802 9.81581 16.0813 9.86245 16.2775 9.82982C16.8938 9.74085 17.5201 9.7475 18.1343 9.84951C17.8075 10.482 17.5654 11.1548 17.4143 11.8505C17.3754 12.0453 17.4152 12.2475 17.5251 12.4129C17.635 12.5783 17.8061 12.6934 18.0007 12.733C18.1953 12.7725 18.3977 12.7333 18.5634 12.6239C18.7292 12.5145 18.8448 12.3438 18.885 12.1493C19.1967 10.625 20.0253 9.255 21.2307 8.27115C22.4361 7.2873 23.9443 6.74993 25.5002 6.74993C27.0562 6.74993 28.5643 7.2873 29.7697 8.27115C30.9751 9.255 31.8037 10.625 32.1155 12.1493C32.1556 12.3438 32.2712 12.5145 32.437 12.6239C32.6028 12.7333 32.8051 12.7725 32.9998 12.733C33.1944 12.6934 33.3654 12.5783 33.4753 12.4129C33.5852 12.2475 33.6251 12.0453 33.5861 11.8505C33.5461 11.6538 33.4709 11.4728 33.4172 11.2818C34.5556 11.1973 35.6834 11.5489 36.5721 12.2652C37.4609 12.9814 38.044 14.0088 38.2033 15.1391C38.2376 15.3409 38.2532 15.5454 38.2501 15.75C38.2517 16.4167 38.1036 17.0752 37.8165 17.677C37.7741 17.7659 37.7496 17.8622 37.7444 17.9606C37.7393 18.0589 37.7535 18.1573 37.7864 18.2501C37.8192 18.343 37.87 18.4284 37.9359 18.5016C38.0018 18.5748 38.0814 18.6343 38.1703 18.6767C38.2592 18.7192 38.3555 18.7437 38.4539 18.7488C38.5522 18.754 38.6506 18.7398 38.7434 18.7069C38.8363 18.6741 38.9217 18.6233 38.9949 18.5574C39.0681 18.4915 39.1276 18.4119 39.17 18.323C39.5408 17.5421 39.736 16.6894 39.7419 15.825C40.99 16.0015 42.1327 16.6217 42.9606 17.5722C43.7886 18.5226 44.2464 19.7395 44.2501 21C44.2533 21.7806 44.0802 22.5519 43.7436 23.2563C43.407 23.9607 42.9157 24.5799 42.3063 25.0679C42.0907 25.2428 41.862 25.401 41.6222 25.541C41.4799 25.6241 41.369 25.7517 41.3065 25.9041C41.244 26.0565 41.2335 26.2253 41.2765 26.3843C41.3195 26.5434 41.4136 26.6838 41.5444 26.784C41.6752 26.8841 41.8354 26.9384 42.0001 26.9385C42.1331 26.939 42.2637 26.9036 42.3781 26.8359C42.3958 26.8257 42.4105 26.8119 42.4281 26.8014C42.755 27.6711 42.8355 28.6142 42.6607 29.5267C42.486 30.4392 42.0627 31.2858 41.4377 31.9732C41.306 32.1224 41.239 32.3178 41.2513 32.5164C41.2637 32.715 41.3544 32.9006 41.5036 33.0323C41.6528 33.164 41.8482 33.231 42.0468 33.2186C42.2454 33.2063 42.431 33.1155 42.5627 32.9663C43.4112 32.0096 43.9682 30.8301 44.1679 29.5671C44.3677 28.304 44.2019 27.0102 43.6902 25.8383C44.3436 25.2136 44.8631 24.4625 45.2172 23.6308C45.5714 22.799 45.7527 21.904 45.7501 21Z" fill="#0F172A"/>
<path d="M28.5001 33.75H34.5001C34.699 33.75 34.8898 33.671 35.0305 33.5303C35.1711 33.3897 35.2501 33.1989 35.2501 33C35.2501 32.8011 35.1711 32.6103 35.0305 32.4697C34.8898 32.329 34.699 32.25 34.5001 32.25H28.5001C28.3012 32.25 28.1105 32.329 27.9698 32.4697C27.8291 32.6103 27.7501 32.8011 27.7501 33C27.7501 33.1989 27.8291 33.3897 27.9698 33.5303C28.1105 33.671 28.3012 33.75 28.5001 33.75Z" fill="white"/>
<path d="M22.5001 15.75C21.7667 15.7549 21.0607 16.0294 20.5165 16.5212C19.774 16.0177 18.8973 15.749 18.0001 15.75C17.8012 15.75 17.6104 15.829 17.4698 15.9697C17.3291 16.1103 17.2501 16.3011 17.2501 16.5C17.2501 16.6989 17.3291 16.8897 17.4698 17.0303C17.6104 17.171 17.8012 17.25 18.0001 17.25C18.7955 17.2509 19.558 17.5673 20.1204 18.1297C20.6828 18.6921 20.9992 19.4546 21.0001 20.25C21.0001 20.4489 21.0791 20.6397 21.2198 20.7803C21.3604 20.921 21.5512 21 21.7501 21C21.949 21 22.1398 20.921 22.2804 20.7803C22.4211 20.6397 22.5001 20.4489 22.5001 20.25C22.4971 19.2834 22.1799 18.3439 21.5965 17.5733C21.8532 17.3678 22.1713 17.254 22.5001 17.25C22.699 17.25 22.8898 17.171 23.0304 17.0303C23.1711 16.8897 23.2501 16.6989 23.2501 16.5C23.2501 16.3011 23.1711 16.1103 23.0304 15.9697C22.8898 15.829 22.699 15.75 22.5001 15.75ZM33.6813 18.819C33.5222 17.9583 33.0671 17.1804 32.3948 16.6199C31.7225 16.0594 30.8754 15.7517 30.0001 15.75C29.8012 15.75 29.6104 15.829 29.4698 15.9697C29.3291 16.1103 29.2501 16.3011 29.2501 16.5C29.2501 16.6989 29.3291 16.8897 29.4698 17.0303C29.6104 17.171 29.8012 17.25 30.0001 17.25C30.483 17.2517 30.9525 17.4089 31.3389 17.6985C31.7253 17.988 32.0081 18.3944 32.1454 18.8574C31.3231 19.0499 30.5899 19.5142 30.0645 20.1753C29.539 20.8364 29.2521 21.6555 29.2501 22.5C29.2501 22.6989 29.3291 22.8897 29.4698 23.0303C29.6104 23.171 29.8012 23.25 30.0001 23.25C30.199 23.25 30.3898 23.171 30.5304 23.0303C30.6711 22.8897 30.7501 22.6989 30.7501 22.5C30.7501 21.9033 30.9872 21.331 31.4091 20.909C31.8311 20.4871 32.4034 20.25 33.0001 20.25C33.5968 20.25 34.1691 20.4871 34.5911 20.909C35.0131 21.331 35.2501 21.9033 35.2501 22.5C35.2501 22.6989 35.3291 22.8897 35.4698 23.0303C35.6104 23.171 35.8012 23.25 36.0001 23.25C36.199 23.25 36.3898 23.171 36.5304 23.0303C36.6711 22.8897 36.7501 22.6989 36.7501 22.5C36.7484 21.6248 36.4407 20.7777 35.8803 20.1054C35.3198 19.4332 34.5419 18.9781 33.6813 18.819ZM21.649 37.8223C21.5998 37.7369 21.5341 37.6621 21.4558 37.6021C21.3776 37.5422 21.2882 37.4983 21.193 37.473C21.0977 37.4477 20.9983 37.4414 20.9006 37.4546C20.8029 37.4678 20.7088 37.5001 20.6236 37.5498C19.6819 38.0654 18.608 38.2888 17.5387 38.1917C16.4695 38.0945 15.4534 37.6811 14.6201 37.0042C15.4335 36.4124 16.0957 35.6368 16.5527 34.7407C17.0097 33.8445 17.2487 32.8531 17.2501 31.8472V30.6742C18.0965 30.5004 18.8572 30.04 19.4037 29.3707C19.9502 28.7014 20.2491 27.8641 20.2501 27C20.2501 26.8011 20.1711 26.6103 20.0304 26.4697C19.8898 26.329 19.699 26.25 19.5001 26.25C19.3012 26.25 19.1104 26.329 18.9698 26.4697C18.8291 26.6103 18.7501 26.8011 18.7501 27C18.7501 27.5967 18.5131 28.169 18.0911 28.591C17.6691 29.0129 17.0968 29.25 16.5001 29.25C15.9034 29.25 15.3311 29.0129 14.9091 28.591C14.4872 28.169 14.2501 27.5967 14.2501 27C14.2501 26.8011 14.1711 26.6103 14.0304 26.4697C13.8898 26.329 13.699 26.25 13.5001 26.25C13.3012 26.25 13.1104 26.329 12.9698 26.4697C12.8291 26.6103 12.7501 26.8011 12.7501 27C12.7511 27.8641 13.05 28.7014 13.5965 29.3707C14.1431 30.0401 14.9037 30.5004 15.7501 30.6742V31.8472C15.7489 33.1471 15.2319 34.3934 14.3127 35.3126C13.3935 36.2318 12.1472 36.7488 10.8473 36.75H10.5001C10.3427 36.7501 10.1893 36.7997 10.0616 36.8917C9.93384 36.9837 9.83821 37.1135 9.78819 37.2627L8.45958 41.25H4.21299L8.01354 33.6503C8.33947 33.708 8.66923 33.7413 9.00011 33.75C9.19902 33.75 9.38979 33.671 9.53044 33.5303C9.67109 33.3897 9.75011 33.1989 9.75011 33C9.75011 32.8011 9.67109 32.6103 9.53044 32.4697C9.38979 32.329 9.19902 32.25 9.00011 32.25C8.15062 32.2501 7.31378 32.0441 6.56142 31.6497C5.80907 31.2552 5.16367 30.6841 4.68062 29.9853C4.19757 29.2865 3.89131 28.481 3.78812 27.6378C3.68492 26.7946 3.78788 25.9389 4.08816 25.1443C4.38843 24.3496 4.87705 23.6397 5.51208 23.0754C6.1471 22.5112 6.90957 22.1095 7.73402 21.9047C8.55848 21.7 9.42029 21.6984 10.2455 21.9001C11.0707 22.1017 11.8347 22.5006 12.4718 23.0625C12.5457 23.1277 12.6316 23.1777 12.7248 23.2097C12.818 23.2417 12.9166 23.255 13.015 23.2489C13.1133 23.2428 13.2095 23.2173 13.298 23.174C13.3865 23.1308 13.4657 23.0705 13.5309 22.9966C13.5961 22.9227 13.6461 22.8367 13.6781 22.7435C13.7101 22.6503 13.7234 22.5517 13.7172 22.4534C13.7111 22.355 13.6857 22.2589 13.6424 22.1704C13.5991 22.0818 13.5388 22.0027 13.4649 21.9375C12.2323 20.8493 10.6444 20.2492 9.00011 20.25C8.24208 20.258 7.49096 20.3951 6.77904 20.6556C6.84692 19.5466 7.26769 18.4884 7.97986 17.6356C8.69204 16.7828 9.65828 16.1801 10.7374 15.9156C11.1485 15.8015 11.5735 15.7457 12.0001 15.75C12.199 15.75 12.3898 15.671 12.5304 15.5303C12.6711 15.3897 12.7501 15.1989 12.7501 15C12.7501 14.8011 12.6711 14.6103 12.5304 14.4697C12.3898 14.329 12.199 14.25 12.0001 14.25C11.8115 14.25 11.6343 14.2702 11.4537 14.2849C11.5645 13.8028 11.7373 13.3371 11.9679 12.8994C12.0151 12.813 12.0449 12.7182 12.0554 12.6203C12.066 12.5225 12.0572 12.4235 12.0295 12.329C12.0018 12.2345 11.9558 12.1464 11.8941 12.0697C11.8324 11.9931 11.7561 11.9293 11.6698 11.8821C11.5834 11.8348 11.4885 11.8051 11.3907 11.7945C11.2928 11.7839 11.1938 11.7927 11.0993 11.8204C11.0049 11.8481 10.9168 11.8941 10.8401 11.9558C10.7634 12.0176 10.6996 12.0938 10.6524 12.1802C10.2497 12.9432 9.98656 13.772 9.87521 14.6275C8.52985 15.0647 7.35759 15.9169 6.52665 17.0618C5.69572 18.2067 5.24883 19.5854 5.25011 21C5.25011 21.1319 5.26613 21.2538 5.27253 21.3805C4.24327 22.0601 3.4205 23.0094 2.89405 24.1247C2.3676 25.2401 2.15771 26.4787 2.28729 27.7052C2.41687 28.9318 2.88095 30.0991 3.62885 31.0799C4.37675 32.0606 5.37973 32.817 6.52827 33.2665L2.3292 41.6646C2.2719 41.7789 2.24481 41.906 2.2505 42.0338C2.25619 42.1615 2.29448 42.2857 2.36172 42.3945C2.42897 42.5033 2.52293 42.5931 2.63467 42.6553C2.74641 42.7175 2.87221 42.7501 3.00011 42.75H9.00011C9.15752 42.7499 9.31091 42.7003 9.43865 42.6083C9.56638 42.5163 9.662 42.3866 9.71202 42.2373L11.0421 38.2471C11.8062 38.2197 12.5589 38.0542 13.264 37.7585C14.3041 38.8138 15.6655 39.4935 17.134 39.6906C18.6025 39.8878 20.095 39.5912 21.3766 38.8477C21.5485 38.7477 21.6738 38.5836 21.7249 38.3913C21.776 38.1991 21.7487 37.9944 21.649 37.8223Z" fill="#0F172A"/>
<path d="M13.3171 11.0085C13.7314 11.0085 14.0671 10.6728 14.0671 10.2585C14.0671 9.84433 13.7314 9.50854 13.3171 9.50854C12.9029 9.50854 12.5671 9.84433 12.5671 10.2585C12.5671 10.6728 12.9029 11.0085 13.3171 11.0085Z" fill="#0F172A"/>
</svg>
