<svg width="55" height="55" viewBox="0 0 55 55" fill="none" xmlns="http://www.w3.org/2000/svg">
<path d="M26.1022 22.2905H20.5189C18.5916 22.2905 17.0293 23.8529 17.0293 25.7801V50.9051C17.0293 52.8324 18.5916 54.3947 20.5189 54.3947H26.1022C28.0295 54.3947 29.5918 52.8324 29.5918 50.9051V25.7801C29.5918 23.8529 28.0295 22.2905 26.1022 22.2905Z" fill="#FFA351"/>
<path d="M9.07292 30.6655H3.48958C1.56234 30.6655 0 32.2279 0 34.1551V50.9051C0 52.8324 1.56234 54.3947 3.48958 54.3947H9.07292C11.0002 54.3947 12.5625 52.8324 12.5625 50.9051V34.1551C12.5625 32.2279 11.0002 30.6655 9.07292 30.6655Z" fill="#FFC14B"/>
<path d="M53.9913 14.6971L42.8246 0.738795C42.6177 0.506439 42.364 0.320488 42.0801 0.193157C41.7962 0.0658274 41.4886 0 41.1775 0C40.8664 0 40.5588 0.0658274 40.2749 0.193157C39.991 0.320488 39.7373 0.506439 39.5304 0.738795L28.3638 14.6971C28.1223 15.0057 27.9711 15.3751 27.9267 15.7644C27.8824 16.1536 27.9467 16.5476 28.1125 16.9025C28.2849 17.2602 28.5542 17.5623 28.8898 17.7746C29.2254 17.9868 29.6138 18.1005 30.0108 18.103H34.8963V50.905C34.8963 51.8305 35.2639 52.7181 35.9183 53.3726C36.5728 54.027 37.4604 54.3946 38.3858 54.3946H43.9692C44.8947 54.3946 45.7823 54.027 46.4367 53.3726C47.0911 52.7181 47.4588 51.8305 47.4588 50.905V18.103H52.3442C52.7412 18.1005 53.1296 17.9868 53.4652 17.7746C53.8008 17.5623 54.0701 17.2602 54.2425 16.9025C54.4083 16.5476 54.4726 16.1536 54.4283 15.7644C54.384 15.3751 54.2327 15.0057 53.9913 14.6971Z" fill="#3A92FF"/>
</svg>
