<svg width="42" height="42" viewBox="0 0 42 42" fill="none" xmlns="http://www.w3.org/2000/svg">
<path d="M8.45117 21.2949C8.72541 21.2949 8.94727 21.5168 8.94727 21.791V27.9863C8.94727 28.9025 8.56175 29.7845 7.88867 30.4062H7.8877L4.94922 33.1182C4.85422 33.2062 4.73351 33.2499 4.61328 33.25C4.51319 33.25 4.41236 33.2202 4.32715 33.1602L4.24805 33.0898C4.06248 32.8883 4.07485 32.5747 4.27637 32.3887L7.21484 29.6777C7.68504 29.2431 7.95508 28.6263 7.95508 27.9863V21.791C7.95508 21.5169 8.17707 21.2951 8.45117 21.2949Z" fill="white" stroke="white" stroke-width="0.2"/>
<path d="M4.61242 34.8337C5.76127 34.8337 6.6926 33.9024 6.6926 32.7535C6.6926 31.6047 5.76127 30.6733 4.61242 30.6733C3.46356 30.6733 2.53223 31.6047 2.53223 32.7535C2.53223 33.9024 3.46356 34.8337 4.61242 34.8337Z" fill="#19AAE9"/>
<path d="M13.7461 23.7056C14.0202 23.7057 14.2422 23.9275 14.2422 24.2017V31.981C14.2422 32.8979 13.8561 33.7799 13.1826 34.4009L10.2441 37.1128C10.149 37.2011 10.0277 37.2446 9.90723 37.2446C9.77391 37.2446 9.63998 37.1912 9.54199 37.0845V37.0835C9.35726 36.8819 9.37014 36.57 9.57129 36.3843L12.5098 33.6724C12.9798 33.2386 13.25 32.6217 13.25 31.981V24.2017C13.25 23.9274 13.4719 23.7056 13.7461 23.7056ZM4.6123 30.1772C6.03257 30.1773 7.18841 31.3332 7.18848 32.7534C7.18848 34.1737 6.03257 35.3295 4.6123 35.3296C3.1916 35.3296 2.03613 34.1738 2.03613 32.7534C2.0362 31.3331 3.1916 30.1772 4.6123 30.1772ZM4.6123 31.1694C3.73892 31.1694 3.02839 31.8801 3.02832 32.7534C3.02832 33.626 3.73885 34.3364 4.6123 34.3364C5.48529 34.3363 6.19531 33.626 6.19531 32.7534C6.19524 31.8801 5.48522 31.1695 4.6123 31.1694Z" fill="white" stroke="white" stroke-width="0.2"/>
<path d="M9.90831 38.8288C11.0572 38.8288 11.9885 37.8975 11.9885 36.7486C11.9885 35.5998 11.0572 34.6685 9.90831 34.6685C8.75946 34.6685 7.82812 35.5998 7.82812 36.7486C7.82812 37.8975 8.75946 38.8288 9.90831 38.8288Z" fill="#19AAE9"/>
<path d="M9.90723 34.1724C11.328 34.1724 12.4844 35.3282 12.4844 36.7485C12.4843 38.1688 11.3279 39.3247 9.90723 39.3247C8.48711 39.3245 7.33211 38.1687 7.33203 36.7485C7.33203 35.3284 8.48706 34.1726 9.90723 34.1724ZM9.90723 35.1646C9.0344 35.1648 8.32422 35.8752 8.32422 36.7485C8.3243 37.6218 9.03445 38.3323 9.90723 38.3325C10.7806 38.3325 11.4911 37.6219 11.4912 36.7485C11.4912 35.8751 10.7807 35.1646 9.90723 35.1646Z" fill="white" stroke="white" stroke-width="0.2"/>
<path d="M30.6592 21.2949C30.9333 21.2951 31.1553 21.5169 31.1553 21.791V27.9863C31.1553 28.6271 31.4254 29.244 31.8955 29.6777L34.834 32.3887C35.0103 32.5515 35.0421 32.8122 34.9229 33.0098L34.8623 33.0898C34.7643 33.1965 34.6304 33.25 34.4971 33.25C34.3768 33.2499 34.2561 33.2062 34.1611 33.1182L31.2227 30.4062C30.549 29.7852 30.1631 28.9034 30.1631 27.9863V21.791C30.1631 21.5168 30.3849 21.2949 30.6592 21.2949Z" fill="white" stroke="white" stroke-width="0.2"/>
<path d="M34.4972 34.8337C35.646 34.8337 36.5774 33.9024 36.5774 32.7535C36.5774 31.6047 35.646 30.6733 34.4972 30.6733C33.3483 30.6733 32.417 31.6047 32.417 32.7535C32.417 33.9024 33.3483 34.8337 34.4972 34.8337Z" fill="#19AAE9"/>
<path d="M34.498 30.1777C35.9187 30.1778 37.0742 31.3336 37.0742 32.7539C37.0741 34.1742 35.9186 35.329 34.498 35.3291C33.0774 35.3291 31.922 34.1742 31.9219 32.7539C31.9219 31.3336 33.0773 30.1777 34.498 30.1777ZM34.498 31.1699C33.6246 31.1699 32.9141 31.8805 32.9141 32.7539C32.9141 33.6265 33.6246 34.3369 34.498 34.3369C35.3714 34.3368 36.082 33.6264 36.082 32.7539C36.082 31.8805 35.3714 31.17 34.498 31.1699Z" fill="white" stroke="white" stroke-width="0.2"/>
<path d="M25.3643 23.7056C25.6384 23.7057 25.8604 23.9275 25.8604 24.2017V31.981C25.8604 32.6217 26.1305 33.2386 26.6006 33.6724L29.5391 36.3843C29.7151 36.5471 29.747 36.807 29.6279 37.0044L29.5674 37.0845C29.4694 37.1912 29.3355 37.2446 29.2021 37.2446C29.0819 37.2446 28.9612 37.2009 28.8662 37.1128L25.9277 34.4009C25.2541 33.7799 24.8682 32.898 24.8682 31.981V24.2017C24.8682 23.9274 25.09 23.7056 25.3643 23.7056Z" fill="white" stroke="white" stroke-width="0.2"/>
<path d="M29.2023 38.8283C30.3511 38.8283 31.2824 37.897 31.2824 36.7482C31.2824 35.5993 30.3511 34.668 29.2023 34.668C28.0534 34.668 27.1221 35.5993 27.1221 36.7482C27.1221 37.897 28.0534 38.8283 29.2023 38.8283Z" fill="#19AAE9"/>
<path d="M29.2021 34.1724C30.6229 34.1724 31.7793 35.3282 31.7793 36.7485C31.7792 38.1688 30.6228 39.3247 29.2021 39.3247C27.782 39.3245 26.627 38.1687 26.627 36.7485C26.627 35.3284 27.782 34.1726 29.2021 34.1724ZM29.2021 35.1646C28.3293 35.1648 27.6191 35.8752 27.6191 36.7485C27.6192 37.6218 28.3294 38.3323 29.2021 38.3325C30.0755 38.3325 30.7861 37.6219 30.7861 36.7485C30.7861 35.8751 30.0756 35.1646 29.2021 35.1646Z" fill="white" stroke="white" stroke-width="0.2"/>
<path d="M19.707 21.2949C19.9811 21.2951 20.2031 21.5169 20.2031 21.791V33.7383C20.2029 34.0123 19.981 34.2342 19.707 34.2344C19.4329 34.2344 19.2111 34.0123 19.2109 33.7383V21.791C19.2109 21.5168 19.4328 21.2949 19.707 21.2949Z" fill="white" stroke="white" stroke-width="0.2"/>
<path d="M19.7071 35.8181C20.856 35.8181 21.7873 34.8868 21.7873 33.7379C21.7873 32.589 20.856 31.6577 19.7071 31.6577C18.5583 31.6577 17.627 32.589 17.627 33.7379C17.627 34.8868 18.5583 35.8181 19.7071 35.8181Z" fill="#19AAE9"/>
<path d="M19.707 31.1621C21.1273 31.1622 22.2832 32.318 22.2832 33.7383C22.2831 35.1585 21.1273 36.3144 19.707 36.3145C18.2863 36.3145 17.1309 35.1586 17.1309 33.7383C17.1309 32.3179 18.2863 31.1621 19.707 31.1621ZM19.707 32.1543C18.8336 32.1543 18.123 32.8649 18.123 33.7383C18.1231 34.6116 18.8337 35.3223 19.707 35.3223C20.5799 35.3222 21.29 34.6116 21.29 33.7383C21.29 32.8649 20.58 32.1544 19.707 32.1543Z" fill="white" stroke="white" stroke-width="0.2"/>
<path d="M15.0645 2.67529C18.2187 2.67546 21.0549 4.47525 22.4121 7.29736C22.9322 7.16064 23.47 7.09035 24.0176 7.09033C26.6845 7.09033 29.0864 8.78417 30.0029 11.2583C30.2486 11.2338 30.4918 11.2192 30.7295 11.2192C34.6995 11.2194 37.9295 14.4484 37.9297 18.4185C37.9297 22.3932 34.6998 25.6273 30.7295 25.6274H8.1748C4.48621 25.6274 1.48535 22.6256 1.48535 18.937C1.48553 15.6665 3.89257 12.8744 7.0625 12.3433C6.9693 11.847 6.92092 11.3393 6.9209 10.8267C6.9209 6.33178 10.574 2.67529 15.0645 2.67529ZM15.0645 3.66748C11.1215 3.66748 7.91309 6.87928 7.91309 10.8267C7.91311 11.4458 7.99124 12.0561 8.14453 12.6411V12.6421C8.18103 12.7838 8.15294 12.934 8.06836 13.0532C7.98344 13.1736 7.85022 13.2495 7.7041 13.2612C4.77387 13.4962 2.47773 15.9895 2.47754 18.937C2.47754 22.0787 5.03352 24.6343 8.1748 24.6343H30.7295C34.1522 24.6342 36.9375 21.8457 36.9375 18.4185C36.9373 14.9961 34.1522 12.2115 30.7295 12.2114C30.4104 12.2114 30.0769 12.2389 29.7393 12.2915C29.4933 12.3303 29.2568 12.1793 29.1865 11.9409C28.5153 9.66974 26.3893 8.08252 24.0176 8.08252C23.4256 8.08254 22.8474 8.17731 22.2998 8.36475C22.051 8.45009 21.7813 8.32645 21.6807 8.08643C20.5632 5.4021 17.9668 3.66766 15.0645 3.66748Z" fill="white" stroke="white" stroke-width="0.2"/>
<path d="M10.5867 11.2227C10.3676 11.2227 10.1904 11.0455 10.1904 10.8265C10.1904 8.1349 12.377 5.94482 15.0643 5.94482C15.2833 5.94482 15.4606 6.12204 15.4606 6.34105C15.4606 6.56006 15.2833 6.73728 15.0643 6.73728C12.8139 6.73728 10.9829 8.57137 10.9829 10.8265C10.9829 11.0455 10.8057 11.2227 10.5867 11.2227Z" fill="white"/>
<path d="M5.15111 19.3338C4.9321 19.3338 4.75488 19.1566 4.75488 18.9376C4.75488 17.1693 6.13007 15.6733 7.88561 15.5325C8.10926 15.5193 8.295 15.6772 8.31241 15.8955C8.32982 16.1137 8.16731 16.3048 7.94907 16.3219C6.60213 16.4302 5.54734 17.5794 5.54734 18.9376C5.54734 19.1566 5.37012 19.3338 5.15111 19.3338Z" fill="white"/>
</svg>
