<svg width="32" height="32" viewBox="0 0 32 32" fill="none" xmlns="http://www.w3.org/2000/svg">
<g clip-path="url(#clip0_937_4131)">
<path d="M31.4232 5.24526V22.4645C31.4232 23.3064 30.7407 23.9888 29.8989 23.9888H2.46099C1.61911 23.9888 0.936676 23.3064 0.936676 22.4645V5.24526C0.936676 4.40338 1.61911 3.72095 2.46099 3.72095H29.8989C30.7407 3.72095 31.4232 4.40345 31.4232 5.24526Z" fill="#F3F4FB"/>
<path d="M0.936676 20.2214V22.4646C0.936676 23.3065 1.61911 23.9889 2.46099 23.9889H29.8989C30.7407 23.9889 31.4232 23.3065 31.4232 22.4646V20.2214H0.936676Z" fill="#F3F4FB"/>
<path d="M18.3479 23.989H14.012V28.4716H18.3479V23.989Z" fill="#F3F4FB"/>
<path d="M21.261 30.5719H11.0988C11.0988 29.412 12.0391 28.4717 13.199 28.4717H19.1608C20.3207 28.4717 21.261 29.4119 21.261 30.5719Z" fill="#F3F4FB"/>
<path d="M23.0635 7.31585H22.1931C22.0384 6.65541 21.7779 6.03735 21.4302 5.47735L22.0466 4.86097C22.2381 4.66947 22.2381 4.35904 22.0466 4.1676L20.7414 2.86235C20.5499 2.67091 20.2394 2.67091 20.048 2.86235L19.4316 3.47872C18.8716 3.13116 18.2536 2.87066 17.5931 2.71597V1.84554C17.5931 1.57472 17.3736 1.35522 17.1028 1.35522H15.2569C14.9861 1.35522 14.7666 1.57472 14.7666 1.84554V2.71597C14.1062 2.87066 13.4881 3.13116 12.9281 3.47872L12.3118 2.86235C12.1203 2.67091 11.8098 2.67091 11.6184 2.86235L10.3132 4.1676C10.1217 4.3591 10.1217 4.66954 10.3132 4.86097L10.9296 5.47735C10.582 6.03735 10.3215 6.65541 10.1667 7.31585H9.29631C9.0255 7.31585 8.806 7.53541 8.806 7.80616V9.65204C8.806 9.92285 9.0255 10.1423 9.29631 10.1423H10.1667C10.3214 10.8028 10.5819 11.4208 10.9296 11.9809L10.3132 12.5972C10.1217 12.7887 10.1217 13.0992 10.3132 13.2906L11.6184 14.5958C11.8099 14.7873 12.1204 14.7873 12.3118 14.5958L12.9282 13.9795C13.4882 14.327 14.1062 14.5875 14.7667 14.7422V15.6126C14.7667 15.8834 14.9862 16.1029 15.257 16.1029H17.1029C17.3737 16.1029 17.5932 15.8834 17.5932 15.6126V14.7422C18.2536 14.5875 18.8717 14.327 19.4317 13.9794L20.0481 14.5958C20.2396 14.7872 20.55 14.7872 20.7414 14.5958L22.0467 13.2905C22.2382 13.099 22.2382 12.7886 22.0467 12.5972L21.4303 11.9808C21.7779 11.4208 22.0384 10.8027 22.1931 10.1423H23.0636C23.3344 10.1423 23.5539 9.92279 23.5539 9.65197V7.8061C23.5537 7.53535 23.3342 7.31585 23.0635 7.31585Z" fill="#075BF9"/>
<path d="M19.3621 8.72687C19.3621 10.4877 17.9386 11.9112 16.1777 11.9112C14.4213 11.9112 12.9977 10.4877 12.9977 8.72687C12.9977 6.97044 14.4213 5.54688 16.1777 5.54688C17.9386 5.54681 19.3621 6.97037 19.3621 8.72687Z" fill="#F3F4FB"/>
<path d="M29.8989 3.33987H21.7578L21.0108 2.59287C20.6711 2.25256 20.1176 2.25318 19.7786 2.59287L19.3707 3.00043C18.928 2.75331 18.4602 2.55918 17.9744 2.42106V1.84556C17.9744 1.36506 17.5835 0.974121 17.1029 0.974121H15.2571C14.7766 0.974121 14.3856 1.36506 14.3856 1.84556V2.42106C13.8997 2.55918 13.432 2.75331 12.989 3.00043L12.5811 2.59287C12.2414 2.25256 11.6879 2.25318 11.3489 2.59287L10.6019 3.33987H2.46106C1.41043 3.33987 0.555618 4.19462 0.555618 5.24531C0.555618 7.85125 0.555618 20.3906 0.555618 22.4646C0.555618 23.5152 1.41037 24.37 2.46106 24.37H13.6309V28.0906H13.1989C11.9608 28.0906 10.9344 29.0034 10.7501 30.1907H10.3879C10.1774 30.1907 10.0068 30.3613 10.0068 30.5718C10.0068 30.7823 10.1774 30.9529 10.3879 30.9529C15.4632 30.9529 13.1573 30.9529 21.9722 30.9529C22.1827 30.9529 22.3532 30.7823 22.3532 30.5718C22.3532 30.3613 22.1826 30.1907 21.9722 30.1907H21.6096C21.4253 29.0034 20.3989 28.0906 19.1608 28.0906H18.7288V24.37H29.899C30.9496 24.37 31.8044 23.5152 31.8044 22.4646C31.8044 20.3986 31.8044 7.85125 31.8044 5.24531C31.8044 4.19462 30.9496 3.33987 29.8989 3.33987ZM11.8878 3.13175C11.9307 3.0895 11.9994 3.0895 12.0423 3.13175L12.6589 3.748C12.7845 3.87362 12.9789 3.89537 13.1292 3.8025C13.6642 3.47056 14.2445 3.22968 14.8536 3.08675C15.026 3.04656 15.1477 2.89262 15.1477 2.71581V1.84562C15.1477 1.7855 15.1969 1.73637 15.257 1.73637H17.1029C17.163 1.73637 17.2121 1.7855 17.2121 1.84562V2.71587C17.2121 2.89275 17.3339 3.04662 17.5062 3.08681C18.1154 3.22968 18.6956 3.47056 19.2306 3.80256C19.381 3.89543 19.5754 3.87368 19.701 3.74806L20.3173 3.13181C20.3605 3.08956 20.4292 3.08956 20.4718 3.13181L21.777 4.437C21.8196 4.47956 21.8196 4.54893 21.777 4.5915L21.1607 5.20806C21.0354 5.33337 21.0131 5.52812 21.1062 5.67843C21.4382 6.21312 21.6791 6.79337 21.822 7.40281C21.8622 7.57518 22.0161 7.69693 22.1929 7.69693H23.0635C23.1236 7.69693 23.1724 7.74606 23.1724 7.80618V9.65206C23.1724 9.71218 23.1236 9.76131 23.0635 9.76131H22.1929C22.0161 9.76131 21.8622 9.88306 21.822 10.0554C21.6791 10.6646 21.4382 11.2448 21.1062 11.7798C21.0131 11.9302 21.0357 12.1252 21.1607 12.2502L21.777 12.8664C21.8196 12.909 21.8196 12.9784 21.777 13.0209L20.4718 14.3261C20.4292 14.3681 20.3604 14.3687 20.3173 14.3261L19.701 13.7099C19.5754 13.5846 19.3809 13.5625 19.2306 13.6554C18.6956 13.9873 18.1154 14.2282 17.5062 14.3711C17.3339 14.4113 17.2121 14.5652 17.2121 14.7421V15.6126C17.2121 15.6727 17.163 15.7216 17.1029 15.7216H15.257C15.1969 15.7216 15.1477 15.6727 15.1477 15.6126V14.7421C15.1477 14.5652 15.026 14.4113 14.8536 14.3711C14.2445 14.2282 13.6642 13.9874 13.1292 13.6554C12.977 13.5614 12.7829 13.5858 12.6589 13.7099L12.0423 14.3261C11.9997 14.3681 11.9309 14.3687 11.8878 14.3261L10.5826 13.0209C10.5401 12.9784 10.5401 12.909 10.5826 12.8664L11.1989 12.2502C11.3239 12.1251 11.3466 11.9301 11.2534 11.7798C10.9214 11.2448 10.6806 10.6646 10.5377 10.0554C10.4975 9.88306 10.3436 9.76131 10.1667 9.76131H9.29649C9.23637 9.76131 9.18724 9.71218 9.18724 9.65206V7.80618C9.18724 7.74606 9.23637 7.69693 9.29649 7.69693H10.1667C10.3436 7.69693 10.4975 7.57518 10.5377 7.40281C10.6806 6.79337 10.9214 6.21312 11.2534 5.67843C11.3466 5.52806 11.3242 5.33337 11.1989 5.20806L10.5826 4.5915C10.5401 4.54893 10.5401 4.47956 10.5826 4.437L11.8878 3.13175ZM2.46106 4.10206H9.89681C9.71899 4.43212 9.76531 4.85206 10.0437 5.13037L10.4512 5.53825C10.2041 5.98093 10.01 6.44868 9.87187 6.93487H9.29637C8.81587 6.93487 8.42493 7.32581 8.42493 7.80631V9.65218C8.42493 10.1327 8.81587 10.5236 9.29637 10.5236H9.87187C10.01 11.0095 10.2041 11.4772 10.4512 11.9199L10.0437 12.3278C9.70399 12.6675 9.70399 13.2204 10.0437 13.5601L11.3489 14.8652C11.6886 15.2049 12.2408 15.2056 12.5811 14.8652L12.989 14.4577C13.432 14.7048 13.8997 14.8989 14.3856 15.0371V15.6129C14.3856 16.0931 14.7766 16.484 15.2571 16.484H17.1029C17.5834 16.484 17.9744 16.0931 17.9744 15.6129V15.0371C18.4602 14.8989 18.928 14.7048 19.3707 14.4577L19.7786 14.8652C20.1177 15.2049 20.6711 15.2056 21.0108 14.8652L22.316 13.5601C22.6557 13.2204 22.6557 12.6675 22.316 12.3278L21.9084 11.9199C22.1556 11.4772 22.3497 11.0095 22.4878 10.5236H23.0636C23.5439 10.5236 23.9347 10.1327 23.9347 9.65218V7.80631C23.9347 7.32581 23.5439 6.93487 23.0636 6.93487H22.4878C22.3497 6.44868 22.1556 5.981 21.9084 5.53825L22.316 5.13037C22.5944 4.852 22.6407 4.43206 22.4629 4.10206H29.8989C30.5292 4.10206 31.0422 4.61506 31.0422 5.24531V19.8404H1.31781V5.24525C1.31781 4.615 1.83081 4.10206 2.46106 4.10206ZM20.8372 30.1906H11.5225C11.6964 29.4255 12.382 28.8527 13.1989 28.8527C15.1268 28.8527 17.3485 28.8527 19.1607 28.8527C19.9777 28.8527 20.6634 29.4255 20.8372 30.1906ZM17.9666 28.0905H14.3931V24.3699H17.9667V28.0905H17.9666ZM31.0422 22.4645C31.0422 23.0947 30.5292 23.6077 29.8989 23.6077C24.5442 23.6077 8.63099 23.6077 2.46106 23.6077C1.83081 23.6077 1.31781 23.0947 1.31781 22.4645V20.6026H31.0422V22.4645Z" fill="#0F172A" stroke="#0F172A" stroke-width="0.3"/>
<path d="M23.9383 22.4862H24.6689C24.8794 22.4862 25.05 22.3156 25.05 22.1051C25.05 21.8946 24.8794 21.7241 24.6689 21.7241H23.9383C23.7278 21.7241 23.5572 21.8946 23.5572 22.1051C23.5572 22.3156 23.7278 22.4862 23.9383 22.4862ZM26.2453 22.4862H26.9759C27.1864 22.4862 27.357 22.3156 27.357 22.1051C27.357 21.8946 27.1864 21.7241 26.9759 21.7241H26.2453C26.0348 21.7241 25.8642 21.8946 25.8642 22.1051C25.8642 22.3156 26.0349 22.4862 26.2453 22.4862ZM28.5524 22.4862H29.2827C29.4932 22.4862 29.6637 22.3156 29.6637 22.1051C29.6637 21.8946 29.4932 21.7241 29.2827 21.7241H28.5524C28.3419 21.7241 28.1713 21.8946 28.1713 22.1051C28.1713 22.3156 28.3419 22.4862 28.5524 22.4862ZM16.1776 12.2923C18.1437 12.2923 19.7431 10.6929 19.7431 8.72677C19.7431 6.76333 18.1437 5.16577 16.1776 5.16577C14.2142 5.16577 12.6166 6.76333 12.6166 8.72677C12.6166 10.6929 14.2142 12.2923 16.1776 12.2923ZM16.1776 5.9279C17.7234 5.9279 18.9809 7.1834 18.9809 8.72677C18.9809 10.2725 17.7234 11.5301 16.1776 11.5301C14.6342 11.5301 13.3787 10.2725 13.3787 8.72677C13.3787 7.1834 14.6342 5.9279 16.1776 5.9279Z" fill="#0F172A" stroke="#0F172A" stroke-width="0.3"/>
</g>
<defs>
<clipPath id="clip0_937_4131">
<rect width="32" height="32" fill="white"/>
</clipPath>
</defs>
</svg>
