<svg width="40" height="40" viewBox="0 0 40 40" fill="none" xmlns="http://www.w3.org/2000/svg">
<path d="M24.5609 14.1314C24.5608 14.4842 24.6831 14.8262 24.9068 15.099C25.1306 15.3718 25.442 15.5585 25.788 15.6274C26.1341 15.6964 26.4933 15.6432 26.8045 15.4769C27.1157 15.3107 27.3596 15.0417 27.4947 14.7158C27.6298 14.3898 27.6477 14.0271 27.5454 13.6895C27.443 13.3518 27.2268 13.0601 26.9335 12.864C26.6401 12.6679 26.2879 12.5796 25.9368 12.6141C25.5856 12.6486 25.2573 12.8038 25.0078 13.0533C24.866 13.1947 24.7534 13.3627 24.6768 13.5477C24.6001 13.7328 24.5607 13.9311 24.5609 14.1314ZM24.5609 25.8689C24.5608 26.2217 24.6831 26.5637 24.9068 26.8365C25.1306 27.1093 25.442 27.296 25.788 27.3649C26.1341 27.4339 26.4933 27.3807 26.8045 27.2144C27.1157 27.0482 27.3596 26.7792 27.4947 26.4533C27.6298 26.1273 27.6477 25.7646 27.5454 25.427C27.443 25.0893 27.2268 24.7976 26.9335 24.6015C26.6401 24.4054 26.2879 24.3171 25.9368 24.3516C25.5856 24.3861 25.2573 24.5413 25.0078 24.7908C24.866 24.9322 24.7534 25.1002 24.6768 25.2852C24.6001 25.4703 24.5607 25.6686 24.5609 25.8689ZM24.9031 20.0001C24.903 20.353 25.0253 20.6949 25.249 20.9677C25.4728 21.2405 25.7842 21.4273 26.1302 21.4962C26.4762 21.5651 26.8355 21.5119 27.1467 21.3457C27.4579 21.1794 27.7018 20.9104 27.8369 20.5845C27.972 20.2586 27.9899 19.8959 27.8876 19.5582C27.7852 19.2206 27.569 18.9288 27.2756 18.7328C26.9823 18.5367 26.6301 18.4484 26.279 18.4829C25.9278 18.5174 25.5995 18.6726 25.35 18.922C25.2081 19.0634 25.0956 19.2315 25.0189 19.4165C24.9423 19.6015 24.9029 19.7999 24.9031 20.0001ZM34.4922 8.08452V18.4001C34.4922 27.908 29.2023 32.2041 20.9305 36.215L20 36.6666L19.0688 36.215C10.7977 32.2041 5.50781 27.908 5.50781 18.4001V8.08452H8.3C12.6508 8.08452 16.693 6.41421 19.9367 3.39233L20 3.33374L20.0625 3.39233C23.307 6.41421 27.3492 8.08452 31.7 8.08452H34.4922ZM19.9992 31.3322L20 8.66734L19.957 8.70718C17.7516 10.7626 15.0023 11.8978 12.0445 11.8978H10.1461V18.9126C10.1461 25.3775 13.7422 28.2986 19.3664 31.0259L19.9992 31.3322Z" fill="#EFF3F9"/>
<path d="M24.9031 20.0001C24.903 19.6473 25.0252 19.3054 25.249 19.0326C25.4728 18.7598 25.7842 18.573 26.1302 18.5041C26.4762 18.4352 26.8354 18.4884 27.1466 18.6546C27.4578 18.8208 27.7018 19.0898 27.8369 19.4158C27.972 19.7417 27.9899 20.1044 27.8875 20.4421C27.7852 20.7797 27.5689 21.0714 27.2756 21.2675C26.9823 21.4636 26.6301 21.5519 26.2789 21.5174C25.9278 21.4829 25.5995 21.3277 25.35 21.0783C25.2081 20.9369 25.0956 20.7688 25.0189 20.5838C24.9422 20.3988 24.9029 20.2004 24.9031 20.0001ZM24.5609 14.1314C24.5608 13.7786 24.6831 13.4366 24.9068 13.1638C25.1306 12.891 25.442 12.7043 25.788 12.6353C26.134 12.5664 26.4933 12.6196 26.8045 12.7859C27.1157 12.9521 27.3596 13.2211 27.4947 13.547C27.6298 13.873 27.6477 14.2357 27.5453 14.5733C27.443 14.911 27.2268 15.2027 26.9334 15.3988C26.6401 15.5948 26.2879 15.6832 25.9368 15.6486C25.5856 15.6141 25.2573 15.4589 25.0078 15.2095C24.8659 15.0681 24.7534 14.9001 24.6767 14.7151C24.6 14.53 24.5607 14.3317 24.5609 14.1314ZM24.5609 25.8689C24.5608 25.5161 24.6831 25.1741 24.9068 24.9013C25.1306 24.6285 25.442 24.4418 25.788 24.3728C26.134 24.3039 26.4933 24.3571 26.8045 24.5234C27.1157 24.6896 27.3596 24.9586 27.4947 25.2845C27.6298 25.6105 27.6477 25.9732 27.5453 26.3108C27.443 26.6485 27.2268 26.9402 26.9334 27.1363C26.6401 27.3323 26.2879 27.4207 25.9368 27.3861C25.5856 27.3516 25.2573 27.1964 25.0078 26.947C24.8659 26.8056 24.7534 26.6376 24.6767 26.4526C24.6 26.2675 24.5607 26.0692 24.5609 25.8689Z" fill="#CFE0F3"/>
<path d="M20 8.66724L19.9992 31.3321L19.3664 31.0258C13.7422 28.2985 10.1461 25.3774 10.1461 18.9125V11.8977H12.0446C15.0024 11.8977 17.7516 10.7625 19.9571 8.70708L20 8.66724Z" fill="#075BF9"/>
<path d="M34.4922 7.42196H31.7C27.5438 7.42196 23.6666 5.87618 20.49 2.91759L20.4275 2.86837C20.3116 2.76086 20.1592 2.70129 20.001 2.70166C19.8429 2.70204 19.6908 2.76234 19.5754 2.8704L19.5107 2.91384C16.3334 5.87384 12.4568 7.42196 8.3 7.42196H5.50781C5.33419 7.42892 5.16952 7.50091 5.04651 7.62364C4.92349 7.74636 4.85112 7.91085 4.84375 8.08446V18.4001C4.84375 28.0847 10.187 32.6119 18.7765 36.7773L19.7175 37.2288C19.8042 37.2701 19.8991 37.2914 19.9952 37.2913C20.0905 37.2914 20.1845 37.27 20.2705 37.2288L21.1824 36.7774C29.7725 32.612 35.0781 28.0849 35.0781 18.4001V8.08446C35.0781 7.73931 34.8373 7.42196 34.4922 7.42196ZM33.8281 18.4001C33.8281 22.7829 32.7262 26.1391 30.3181 28.9633C28.2852 31.3478 25.4 33.3484 20.6478 35.6527L19.995 35.9718L19.3387 35.6526C14.5871 33.3484 11.6741 31.3479 9.64117 28.9634C7.23352 26.139 6.09375 22.7824 6.09375 18.4001V8.67196H8.3C12.6216 8.67196 16.6571 7.10704 20 4.1422C23.3438 7.10751 27.3793 8.67196 31.7 8.67196H33.8281V18.4001Z" fill="#0F172A"/>
<path d="M24.37 20.6252C24.4727 20.9634 24.6575 21.2709 24.9081 21.5203C25.2404 21.8515 25.6721 22.0646 26.1371 22.1271C26.6021 22.1897 27.0748 22.0981 27.4828 21.8664C27.8908 21.6347 28.2116 21.2757 28.3961 20.8444C28.5807 20.413 28.6188 19.9331 28.5046 19.478C28.3905 19.0229 28.1303 18.6178 27.764 18.3246C27.3977 18.0315 26.9454 17.8664 26.4764 17.8548C26.0074 17.8431 25.5474 17.9855 25.167 18.2601C24.7866 18.5347 24.5066 18.9263 24.37 19.3752H20.625V17.8908H22.3734C22.7186 17.8908 22.9687 17.5829 22.9687 17.2377V14.7658H24.0278C24.1357 15.1004 24.3199 15.4052 24.5658 15.6564V15.6541C24.8664 15.9553 25.2496 16.1607 25.6668 16.244C26.0841 16.3274 26.5168 16.2851 26.91 16.1225C27.3033 15.9599 27.6394 15.6843 27.8759 15.3305C28.1125 14.9768 28.2387 14.5608 28.2387 14.1353C28.2387 13.7097 28.1125 13.2938 27.8759 12.94C27.6394 12.5863 27.3033 12.3106 26.91 12.148C26.5168 11.9854 26.0841 11.9431 25.6668 12.0265C25.2496 12.1099 24.8664 12.3152 24.5658 12.6164C24.3197 12.8709 24.1356 13.1786 24.0278 13.5158H22.3734C22.0282 13.5158 21.7187 13.7862 21.7187 14.1314V16.6408H20.625V8.68144C20.6251 8.5589 20.5898 8.43895 20.5232 8.33605C20.4567 8.23314 20.3618 8.15169 20.25 8.10152C20.1389 8.05232 20.0158 8.03664 19.8958 8.0564C19.7759 8.07616 19.6644 8.13051 19.5749 8.21277L19.531 8.24043C17.409 10.218 14.8203 11.2502 12.0445 11.2502H10.1461C9.97908 11.2558 9.82099 11.3268 9.70594 11.448C9.5909 11.5692 9.52815 11.7308 9.53124 11.8978V18.9127C9.53124 25.6025 13.1889 28.7225 19.0992 31.5886L19.7295 31.8948C19.8245 31.9409 19.9296 31.9621 20.035 31.9563C20.1404 31.9505 20.2425 31.918 20.3319 31.8618C20.4219 31.8026 20.4959 31.7219 20.547 31.627C20.5981 31.5321 20.6247 31.4259 20.6245 31.3182V23.3596H21.7187V25.8689C21.7187 26.2142 22.0282 26.4846 22.3734 26.4846H24.0278C24.1356 26.8219 24.3197 27.1298 24.5658 27.3843C24.8662 27.6852 25.249 27.8901 25.6658 27.9733C26.0827 28.0565 26.5148 28.0142 26.9076 27.8517C27.3004 27.6892 27.6362 27.4138 27.8724 27.0604C28.1086 26.707 28.2347 26.2915 28.2347 25.8664C28.2347 25.4414 28.1086 25.0258 27.8724 24.6725C27.6362 24.3191 27.3004 24.0437 26.9076 23.8812C26.5148 23.7187 26.0827 23.6764 25.6658 23.7596C25.249 23.8427 24.8662 24.0477 24.5658 24.3485V24.3439C24.32 24.5952 24.1358 24.9 24.0278 25.2346H22.9687V22.7627C22.9687 22.4175 22.7187 22.1096 22.3734 22.1096H20.625V20.6252H24.37ZM25.7919 19.3643C25.9177 19.2385 26.078 19.1527 26.2525 19.118C26.427 19.0832 26.608 19.101 26.7724 19.1691C26.9368 19.2372 27.0773 19.3525 27.1762 19.5005C27.2751 19.6484 27.3279 19.8224 27.3279 20.0003C27.3279 20.1783 27.2751 20.3523 27.1762 20.5002C27.0773 20.6482 26.9368 20.7635 26.7724 20.8316C26.608 20.8997 26.427 20.9175 26.2525 20.8827C26.078 20.848 25.9177 20.7622 25.7919 20.6364C25.7083 20.5529 25.642 20.4537 25.5967 20.3446C25.5515 20.2355 25.5282 20.1185 25.5282 20.0003C25.5282 19.8822 25.5515 19.7652 25.5967 19.6561C25.642 19.547 25.7083 19.4478 25.7919 19.3643ZM25.45 13.4953C25.5758 13.3694 25.7361 13.2838 25.9106 13.249C26.0852 13.2143 26.2661 13.2321 26.4305 13.3002C26.5949 13.3683 26.7354 13.4836 26.8342 13.6316C26.9331 13.7796 26.9859 13.9535 26.9859 14.1314C26.9859 14.3094 26.9331 14.4833 26.8342 14.6313C26.7354 14.7792 26.5949 14.8946 26.4305 14.9626C26.2661 15.0307 26.0852 15.0486 25.9106 15.0138C25.7361 14.9791 25.5758 14.8934 25.45 14.7676C25.3664 14.6841 25.3 14.585 25.2547 14.4758C25.2095 14.3666 25.1862 14.2496 25.1862 14.1314C25.1862 14.0133 25.2095 13.8962 25.2547 13.7871C25.3 13.6779 25.3664 13.5788 25.45 13.4953ZM19.3797 30.3343C13.9255 27.6518 10.7812 24.8811 10.7812 18.9127V12.5002H12.0445C14.6983 12.5074 17.2787 11.6296 19.3775 10.0056L19.3797 30.3343ZM25.45 25.2327C25.5971 25.0858 25.7907 24.9944 25.9976 24.9742C26.2046 24.954 26.4121 25.0061 26.5849 25.1218C26.7578 25.2374 26.8851 25.4094 26.9454 25.6084C27.0057 25.8074 26.9951 26.0211 26.9154 26.2132C26.8357 26.4053 26.692 26.5638 26.5086 26.6618C26.3251 26.7597 26.1134 26.7911 25.9095 26.7505C25.7056 26.7098 25.522 26.5998 25.3901 26.439C25.2582 26.2783 25.1862 26.0768 25.1862 25.8689C25.1863 25.6303 25.2811 25.4015 25.4497 25.2328L25.45 25.2327Z" fill="#0F172A"/>
</svg>
