<svg width="68" height="63" viewBox="0 0 68 63" fill="none" xmlns="http://www.w3.org/2000/svg">
<path d="M37.0693 59.9641C36.5762 59.9641 36.1033 59.7682 35.7546 59.4195C35.4059 59.0708 35.21 58.5979 35.21 58.1048C35.21 57.6116 35.4059 57.1387 35.7546 56.79C36.1033 56.4413 36.5762 56.2454 37.0693 56.2454C43.1176 56.2454 48.8897 54.4498 53.3136 51.1892C57.3989 48.1797 59.7418 44.2989 59.7418 40.543C59.7418 40.0498 59.9377 39.5769 60.2864 39.2282C60.6351 38.8795 61.108 38.6836 61.6011 38.6836C62.0943 38.6836 62.5672 38.8795 62.9159 39.2282C63.2646 39.5769 63.4605 40.0498 63.4605 40.543C63.4605 45.4942 60.5665 50.4654 55.5183 54.1828C50.4701 57.9002 43.9052 59.9641 37.0693 59.9641Z" fill="#FFA351"/>
<path d="M37.2275 62.465C38.1678 62.2831 39.0763 61.4238 39.2848 60.4861C39.5982 58.9011 39.5982 57.27 39.2848 55.6849C39.0763 54.7473 38.1678 53.888 37.2275 53.706C35.0883 53.3802 32.912 53.3802 30.7728 53.706C29.8325 53.888 28.9241 54.7473 28.7156 55.6849C28.4021 57.27 28.4021 58.9011 28.7156 60.4861C28.9241 61.4238 29.8325 62.2831 30.7728 62.465C32.912 62.7909 35.0883 62.7909 37.2275 62.465Z" fill="#FFA351"/>
<path d="M53.5102 22.9614C52.7439 19.4989 49.393 16.3274 45.916 15.6567C43.8016 15.2343 37.9021 14.7124 34 14.7549C30.098 14.7124 24.1985 15.2343 22.0841 15.6567C18.6124 16.33 15.2562 19.5016 14.4899 22.9614C14.0529 25.0625 13.6253 27.9219 13.6173 31.8253C13.6093 35.7286 14.0529 38.5881 14.4899 40.6905C14.769 41.8709 15.288 42.9812 16.0146 43.9524C15.1929 46.4377 14.4305 48.9404 13.7275 51.4603C13.2082 53.3037 14.8657 54.6478 16.5604 53.7526C19.7205 52.1031 22.8243 50.3491 25.8719 48.4906C28.4392 48.7376 31.5974 48.9249 34 48.8996C37.9021 48.9421 43.8016 48.4202 45.916 47.9965C49.3877 47.3232 52.7439 44.145 53.5102 40.6918C53.9471 38.5894 54.3761 35.73 54.3828 31.8266C54.3894 27.9232 53.9471 25.0625 53.5102 22.9614Z" fill="#3A92FF"/>
<path d="M53.89 25.0718C53.7718 24.2948 53.6417 23.5935 53.5102 22.9614C52.7439 19.4989 49.393 16.3274 45.916 15.6567C43.8016 15.2343 37.9021 14.7124 34 14.7549C30.098 14.7124 24.1985 15.2343 22.0841 15.6567C18.6124 16.33 15.2562 19.5016 14.4899 22.9614C14.0529 25.0625 13.6253 27.9219 13.6173 31.8253C13.6093 35.7286 14.0529 38.5881 14.4899 40.6905C14.5138 40.7981 14.543 40.9057 14.5709 41.0132C21.9566 43.3178 29.913 42.9889 37.0832 40.0825C44.2535 37.1761 50.1934 31.8724 53.89 25.0757V25.0718Z" fill="#3A92FF"/>
<path d="M26.6104 33.7057C26.5336 34.0766 26.3498 34.4168 26.0816 34.6843C25.8134 34.9517 25.4727 35.1347 25.1016 35.2105C24.0124 35.3787 22.9038 35.3787 21.8145 35.2105C21.4438 35.1338 21.1037 34.9501 20.8363 34.6822C20.5688 34.4143 20.3858 34.0739 20.3098 33.7031C20.1415 32.6138 20.1415 31.5052 20.3098 30.4159C20.3864 30.0452 20.5701 29.7051 20.838 29.4377C21.1059 29.1702 21.4463 28.9872 21.8172 28.9112C22.3597 28.8212 22.9088 28.7768 23.4587 28.7784C24.0096 28.7769 24.5595 28.8213 25.103 28.9112C25.4737 28.9878 25.8138 29.1715 26.0812 29.4394C26.3487 29.7073 26.5317 30.0478 26.6077 30.4186C26.7759 31.5078 26.7759 32.6165 26.6077 33.7057H26.6104ZM37.1491 33.7057C37.0725 34.0762 36.889 34.4162 36.6214 34.6836C36.3537 34.9511 36.0136 35.1342 35.643 35.2105C34.5533 35.3787 33.4442 35.3787 32.3545 35.2105C31.984 35.1333 31.6442 34.9495 31.3768 34.6817C31.1095 34.4139 30.9263 34.0737 30.8498 33.7031C30.6807 32.6139 30.6807 31.5051 30.8498 30.4159C30.9263 30.0454 31.1098 29.7054 31.3774 29.438C31.6451 29.1706 31.9853 28.9874 32.3559 28.9112C32.8988 28.8212 33.4484 28.7768 33.9987 28.7784C34.55 28.7769 35.1004 28.8213 35.6443 28.9112C36.0148 28.9883 36.3546 29.1721 36.622 29.44C36.8894 29.7078 37.0726 30.048 37.1491 30.4186C37.2355 30.9619 37.2777 31.5113 37.2752 32.0615C37.2783 32.6121 37.2361 33.162 37.1491 33.7057ZM47.6891 33.7057C47.6124 34.0764 47.4287 34.4165 47.1608 34.684C46.8929 34.9514 46.5525 35.1345 46.1816 35.2105C45.0924 35.3787 43.9838 35.3787 42.8945 35.2105C42.5238 35.1338 42.1837 34.9501 41.9163 34.6822C41.6488 34.4143 41.4658 34.0739 41.3898 33.7031C41.2215 32.6138 41.2215 31.5052 41.3898 30.4159C41.4665 30.0451 41.6504 29.7048 41.9185 29.4374C42.1867 29.1699 42.5274 28.987 42.8985 28.9112C43.441 28.8212 43.9901 28.7768 44.5401 28.7784C45.0909 28.7769 45.6409 28.8213 46.1843 28.9112C46.555 28.9878 46.8951 29.1715 47.1625 29.4394C47.43 29.7073 47.613 30.0478 47.6891 30.4186C47.8573 31.5078 47.8573 32.6165 47.6891 33.7057Z" fill="white"/>
<path d="M61.4437 32.4918C60.7745 32.4918 60.1326 32.226 59.6594 31.7527C59.1861 31.2795 58.9203 30.6377 58.9203 29.9684C58.9203 16.2276 47.7414 5.04879 34.0007 5.04879C20.2599 5.04879 9.08106 16.2276 9.08106 29.9684C9.08106 30.6377 8.81519 31.2795 8.34196 31.7527C7.86872 32.226 7.22687 32.4918 6.55762 32.4918C5.88836 32.4918 5.24651 32.226 4.77328 31.7527C4.30004 31.2795 4.03418 30.6377 4.03418 29.9684C4.03378 24.0415 5.79104 18.2476 9.08371 13.3194C12.3764 8.39125 17.0566 4.55023 22.5323 2.28213C28.0081 0.0140268 34.0335 -0.579277 39.8465 0.577254C45.6595 1.73378 50.9989 4.5882 55.1896 8.77949C57.9812 11.5554 60.1944 14.8575 61.7011 18.4946C63.2078 22.1317 63.978 26.0316 63.9671 29.9684C63.9671 30.6377 63.7013 31.2795 63.2281 31.7527C62.7548 32.226 62.113 32.4918 61.4437 32.4918Z" fill="#FFA351"/>
<path d="M52.9397 13.7932C52.8617 11.1265 52.4952 8.47609 51.8467 5.88825C47.3864 2.58417 42.0962 0.583597 36.5658 0.109525C31.0353 -0.364547 25.4818 0.706503 20.5243 3.2033C15.5668 5.70009 11.4 9.52453 8.48844 14.2504C5.57684 18.9762 4.0348 24.4177 4.03418 29.9685C4.03418 30.6377 4.30004 31.2796 4.77328 31.7528C5.24651 32.2261 5.88836 32.4919 6.55762 32.4919C7.22687 32.4919 7.86872 32.2261 8.34196 31.7528C8.81519 31.2796 9.08105 30.6377 9.08105 29.9685C9.08105 16.2277 20.2599 5.04887 34.0007 5.04887C37.6024 5.04811 41.1613 5.82965 44.4313 7.33945C47.7013 8.84925 50.6044 11.0513 52.9397 13.7932Z" fill="#FFA351"/>
<path d="M67.4517 30.343C67.2153 29.3522 66.2816 28.4385 65.3134 28.2804C64.4989 28.1598 63.6738 28.1273 62.8524 28.1835C62.705 28.1941 62.5655 28.2047 62.4287 28.218C60.9509 28.0741 59.4593 28.1964 58.0247 28.5792C57.083 28.8528 56.2649 29.8343 56.1281 30.8025C56.0325 31.3935 56.1586 32.456 56.1653 38.762C56.1719 45.0679 56.0325 46.4253 56.1334 47.0176C56.2662 47.9845 57.0897 48.966 58.0313 49.2396C58.5543 49.3824 59.087 49.4876 59.625 49.5543C59.544 49.5862 59.5865 49.6141 59.8907 49.634C60.9678 49.6978 64.733 49.626 65.32 49.5357C66.2882 49.3764 67.2206 48.4639 67.4583 47.4718C67.5911 46.8702 67.9962 45.3468 68.0002 38.7593C68.0042 32.1718 67.5911 30.9446 67.4517 30.343ZM0.548714 30.343C0.78512 29.3522 1.71879 28.4385 2.68699 28.2804C3.50147 28.1598 4.32657 28.1273 5.14801 28.1835C5.29543 28.1941 5.43489 28.2047 5.57168 28.218C6.22748 28.1523 6.88758 28.1407 7.54528 28.1835C8.36702 28.232 9.18152 28.3655 9.97575 28.5819C10.9174 28.8555 11.7355 29.837 11.8723 30.8052C11.9679 31.3962 11.8418 32.4587 11.8351 38.7646C11.8285 45.0706 11.9679 46.4279 11.867 47.0203C11.7342 47.9871 10.9107 48.9686 9.9691 49.2422C9.44606 49.3851 8.91344 49.4903 8.37535 49.557C8.45637 49.5889 8.41387 49.6167 8.10973 49.6367C7.03262 49.7004 3.26739 49.6287 2.68035 49.5384C1.71215 49.379 0.779807 48.4666 0.542073 47.4745C0.409261 46.8728 0.0108231 45.3495 0.000198117 38.762C-0.0104269 32.1745 0.409261 30.9446 0.548714 30.343Z" fill="#FFC14B"/>
</svg>
