<svg width="36" height="36" viewBox="0 0 36 36" fill="none" xmlns="http://www.w3.org/2000/svg">
<path d="M18 11.8125C19.2426 11.8125 20.25 10.8051 20.25 9.5625C20.25 8.31986 19.2426 7.3125 18 7.3125C16.7574 7.3125 15.75 8.31986 15.75 9.5625C15.75 10.8051 16.7574 11.8125 18 11.8125Z" fill="#4294FF"/>
<path d="M27.3982 33.1875L20.7807 14.4377C20.7418 14.328 20.6699 14.2331 20.5749 14.1659C20.4799 14.0987 20.3664 14.0626 20.25 14.0625H18.5625V12.3182C19.2454 12.1788 19.8522 11.7908 20.2653 11.2294C20.6784 10.668 20.8683 9.97327 20.7983 9.27982C20.7282 8.58637 20.4032 7.94363 19.8861 7.47621C19.3691 7.00879 18.697 6.75 18 6.75C17.303 6.75 16.6309 7.00879 16.1139 7.47621C15.5968 7.94363 15.2718 8.58637 15.2017 9.27982C15.1317 9.97327 15.3216 10.668 15.7347 11.2294C16.1478 11.7908 16.7546 12.1788 17.4375 12.3182V14.0625H15.75C15.6336 14.0626 15.5201 14.0987 15.4251 14.1659C15.3301 14.2331 15.2582 14.328 15.2193 14.4377L8.60181 33.1875H1.125V34.3125H34.875V33.1875H27.3982ZM16.3125 9.56254C16.3125 9.22879 16.4115 8.90253 16.5969 8.62502C16.7823 8.34751 17.0459 8.13122 17.3542 8.0035C17.6626 7.87577 18.0019 7.84236 18.3292 7.90747C18.6566 7.97258 18.9572 8.1333 19.1932 8.3693C19.4292 8.6053 19.59 8.90599 19.6551 9.23333C19.7202 9.56067 19.6868 9.89997 19.559 10.2083C19.4313 10.5167 19.215 10.7802 18.9375 10.9657C18.66 11.1511 18.3338 11.25 18 11.25C17.5526 11.2496 17.1237 11.0716 16.8073 10.7552C16.4909 10.4389 16.313 10.0099 16.3125 9.56254ZM14.9231 18.6577L17.0787 20.3188L13.3125 23.2213L14.9231 18.6577ZM22.6878 23.2211L18.9216 20.3186L21.0769 18.6577L22.6878 23.2211ZM25.9492 32.4625L19.0924 28.3427L23.55 25.6644L25.9492 32.4625ZM22.8544 24.7698L18 27.6863L13.1456 24.7697L18 21.0289L22.8544 24.7698ZM12.4501 25.6642L16.9077 28.3425L10.0507 32.4625L12.4501 25.6642ZM18 28.9989L24.9716 33.1875H11.0284L18 28.9989ZM16.1477 15.1875H19.8523L20.6831 17.5412L18 19.6088L15.3169 17.5413L16.1477 15.1875Z" fill="white"/>
<path d="M22.8995 13.3255C23.7345 12.2487 24.1876 10.9249 24.1876 9.56234C24.1876 8.1998 23.7345 6.87595 22.8995 5.79922L22.0107 6.48547C22.6926 7.3662 23.0626 8.4485 23.0626 9.56234C23.0626 10.6762 22.6926 11.7585 22.0107 12.6392L22.8995 13.3255ZM25.577 15.3786C26.8643 13.713 27.5626 11.6674 27.5626 9.56234C27.5626 7.45728 26.8643 5.41169 25.577 3.74609L24.6826 4.43234C25.8203 5.90044 26.4376 7.70505 26.4376 9.56234C26.4376 11.4196 25.8203 13.2242 24.6826 14.6923L25.577 15.3786Z" fill="white"/>
<path d="M27.3544 16.7456L28.2544 17.4375C29.994 15.1809 30.9375 12.4118 30.9375 9.5625C30.9375 6.71319 29.994 3.94408 28.2544 1.6875L27.3544 2.37937C28.9478 4.43484 29.8125 6.96176 29.8125 9.5625C29.8125 12.1632 28.9478 14.6902 27.3544 16.7456ZM13.9894 12.6394C13.3075 11.7586 12.9375 10.6763 12.9375 9.5625C12.9375 8.44865 13.3075 7.36636 13.9894 6.48562L13.1006 5.79938C12.2657 6.87611 11.8125 8.19996 11.8125 9.5625C11.8125 10.925 12.2657 12.2489 13.1006 13.3256L13.9894 12.6394ZM10.4231 15.3787L11.3175 14.6925C10.1799 13.2244 9.56249 11.4198 9.56249 9.5625C9.56249 7.70521 10.1799 5.9006 11.3175 4.4325L10.4231 3.74625C9.13585 5.41185 8.4375 7.45744 8.4375 9.5625C8.4375 11.6676 9.13585 13.7132 10.4231 15.3787Z" fill="white"/>
<path d="M8.64564 16.7456C7.05224 14.6902 6.18751 12.1632 6.18751 9.5625C6.18751 6.96176 7.05224 4.43484 8.64564 2.37937L7.74564 1.6875C6.00598 3.94408 5.0625 6.71319 5.0625 9.5625C5.0625 12.4118 6.00598 15.1809 7.74564 17.4375L8.64564 16.7456Z" fill="white"/>
</svg>
