<svg width="47" height="47" viewBox="0 0 47 47" fill="none" xmlns="http://www.w3.org/2000/svg">
<path d="M14.07 21.2H2.11C0.94 21.2 0 22.1499 0 23.3099V44.8899C0 46.0599 0.95 47 2.11 47H14.07C15.24 47 16.18 46.0499 16.18 44.8899V23.3099C16.19 22.1399 15.24 21.2 14.07 21.2ZM8.09 43.47C7.32 43.47 6.7 42.85 6.7 42.08C6.7 41.31 7.32 40.6899 8.09 40.6899C8.86 40.6899 9.48 41.31 9.48 42.08C9.48 42.85 8.86 43.47 8.09 43.47Z" fill="#3A92FF"/>
<path d="M40.51 3.55945e-06H6.48999C5.20999 3.55945e-06 4.17999 1.03 4.17999 2.31V18.2H14.07C16.89 18.2 19.18 20.49 19.18 23.31V26H42.81V2.31C42.8118 2.00698 42.7537 1.70658 42.6389 1.42614C42.5241 1.14569 42.3549 0.89075 42.1411 0.676008C41.9273 0.461267 41.673 0.290975 41.3931 0.174952C41.1132 0.058929 40.813 -0.00053001 40.51 3.55945e-06ZM30.44 14.16L27.95 20.2L24.99 7.81L36.78 12.62L30.44 14.16ZM30.18 28.57V29.88H19.18V34.15H41.42C44.5 34.15 47 31.65 47 28.57H30.18Z" fill="#FFC14B"/>
</svg>
