<svg width="36" height="36" viewBox="0 0 36 36" fill="none" xmlns="http://www.w3.org/2000/svg">
<path d="M33.12 1.43994H2.88C2.11618 1.43994 1.38364 1.74337 0.843533 2.28347C0.303428 2.82358 0 3.55612 0 4.31994L0 30.2399C0 31.0038 0.303428 31.7363 0.843533 32.2764C1.38364 32.8165 2.11618 33.1199 2.88 33.1199H33.12C33.8838 33.1199 34.6164 32.8165 35.1565 32.2764C35.6966 31.7363 36 31.0038 36 30.2399V4.31994C36 3.55612 35.6966 2.82358 35.1565 2.28347C34.6164 1.74337 33.8838 1.43994 33.12 1.43994ZM34.56 30.2399C34.56 30.6219 34.4083 30.9881 34.1382 31.2582C33.8682 31.5282 33.5019 31.6799 33.12 31.6799H2.88C2.49809 31.6799 2.13182 31.5282 1.86177 31.2582C1.59171 30.9881 1.44 30.6219 1.44 30.2399V10.0799H34.56V30.2399ZM34.56 8.63994H1.44V4.31994C1.44 3.93803 1.59171 3.57176 1.86177 3.30171C2.13182 3.03166 2.49809 2.87994 2.88 2.87994H33.12C33.5019 2.87994 33.8682 3.03166 34.1382 3.30171C34.4083 3.57176 34.56 3.93803 34.56 4.31994V8.63994ZM6.48 18.7199H29.52C29.711 18.7199 29.8941 18.6441 30.0291 18.5091C30.1641 18.374 30.24 18.1909 30.24 17.9999V13.6799C30.24 13.489 30.1641 13.3059 30.0291 13.1708C29.8941 13.0358 29.711 12.9599 29.52 12.9599H6.48C6.28904 12.9599 6.10591 13.0358 5.97088 13.1708C5.83586 13.3059 5.76 13.489 5.76 13.6799V17.9999C5.76 18.1909 5.83586 18.374 5.97088 18.5091C6.10591 18.6441 6.28904 18.7199 6.48 18.7199ZM7.2 14.3999H28.8V17.2799H7.2V14.3999ZM6.48 28.7999H13.68C13.871 28.7999 14.0541 28.7241 14.1891 28.5891C14.3241 28.454 14.4 28.2709 14.4 28.0799V22.3199C14.4 22.129 14.3241 21.9459 14.1891 21.8108C14.0541 21.6758 13.871 21.5999 13.68 21.5999H6.48C6.28904 21.5999 6.10591 21.6758 5.97088 21.8108C5.83586 21.9459 5.76 22.129 5.76 22.3199V28.0799C5.76 28.2709 5.83586 28.454 5.97088 28.5891C6.10591 28.7241 6.28904 28.7999 6.48 28.7999ZM7.2 23.0399H12.96V27.3599H7.2V23.0399ZM5.76 5.03994V6.47994C5.76 6.6709 5.68414 6.85403 5.54912 6.98906C5.41409 7.12408 5.23096 7.19994 5.04 7.19994H3.6C3.40904 7.19994 3.22591 7.12408 3.09088 6.98906C2.95586 6.85403 2.88 6.6709 2.88 6.47994V5.03994C2.88 4.84899 2.95586 4.66585 3.09088 4.53082C3.22591 4.3958 3.40904 4.31994 3.6 4.31994H5.04C5.23096 4.31994 5.41409 4.3958 5.54912 4.53082C5.68414 4.66585 5.76 4.84899 5.76 5.03994ZM10.08 5.03994V6.47994C10.08 6.6709 10.0041 6.85403 9.86912 6.98906C9.73409 7.12408 9.55096 7.19994 9.36 7.19994H7.92C7.72904 7.19994 7.54591 7.12408 7.41088 6.98906C7.27586 6.85403 7.2 6.6709 7.2 6.47994V5.03994C7.2 4.84899 7.27586 4.66585 7.41088 4.53082C7.54591 4.3958 7.72904 4.31994 7.92 4.31994H9.36C9.55096 4.31994 9.73409 4.3958 9.86912 4.53082C10.0041 4.66585 10.08 4.84899 10.08 5.03994ZM14.4 5.03994V6.47994C14.4 6.6709 14.3241 6.85403 14.1891 6.98906C14.0541 7.12408 13.871 7.19994 13.68 7.19994H12.24C12.049 7.19994 11.8659 7.12408 11.7309 6.98906C11.5959 6.85403 11.52 6.6709 11.52 6.47994V5.03994C11.52 4.84899 11.5959 4.66585 11.7309 4.53082C11.8659 4.3958 12.049 4.31994 12.24 4.31994H13.68C13.871 4.31994 14.0541 4.3958 14.1891 4.53082C14.3241 4.66585 14.4 4.84899 14.4 5.03994Z" fill="#0F172A"/>
</svg>
