<svg width="36" height="36" viewBox="0 0 36 36" fill="none" xmlns="http://www.w3.org/2000/svg">
<g clip-path="url(#clip0_1956_183)">
<path d="M26.7386 21.3264L23.9767 19.2135C23.5196 18.8654 22.9519 18.6944 22.3786 18.7323C21.8052 18.7701 21.265 19.0143 20.8577 19.4195L19.7784 20.4988C18.9541 20.2943 18.1874 19.9042 17.5368 19.3584L17.4426 19.2789C17.1804 19.0585 16.9378 18.8157 16.7177 18.5533L16.641 18.4619C16.0946 17.811 15.7043 17.0438 15.4998 16.2189L16.5784 15.1403C16.9835 14.7334 17.2276 14.1937 17.2659 13.6208C17.3041 13.0479 17.1339 12.4806 16.7866 12.0234L14.6737 9.26431C14.3363 8.82181 13.8598 8.50568 13.321 8.3668C12.7821 8.22791 12.2122 8.27434 11.703 8.49861L11.3894 8.63923C10.4855 9.03747 9.7138 9.68514 9.16486 10.5063C8.61591 11.3275 8.31244 12.2881 8.29 13.2756C8.22161 16.6149 9.36823 19.8653 11.5166 22.4226L11.6573 22.5864C12.1915 23.2219 12.7796 23.81 13.4151 24.3442L13.5789 24.4849C16.0629 26.5691 19.2013 27.7124 22.4439 27.7143C22.5377 27.7143 22.6335 27.7143 22.7315 27.7143C23.7194 27.6911 24.6801 27.3867 25.5011 26.8367C26.3221 26.2868 26.9692 25.5141 27.3665 24.6093L27.5071 24.2957C27.7305 23.7863 27.7761 23.2166 27.6368 22.6781C27.4974 22.1396 27.1811 21.6635 26.7386 21.3264ZM25.8295 23.5631L25.6888 23.8767C25.4313 24.4614 25.0124 24.9606 24.4813 25.3158C23.9501 25.6709 23.3288 25.8673 22.69 25.882C22.6063 25.882 22.5227 25.882 22.4397 25.882C19.6282 25.8806 16.9068 24.8899 14.7524 23.0835L14.5886 22.9429C14.0337 22.4765 13.5201 21.9629 13.0537 21.408L12.913 21.2435C11.0485 19.024 10.0539 16.2026 10.1146 13.3045C10.1292 12.6656 10.3256 12.0441 10.6807 11.5129C11.0359 10.9816 11.5351 10.5626 12.1199 10.3049L12.4335 10.1643C12.5688 10.1057 12.72 10.0944 12.8625 10.1323C13.005 10.1702 13.1306 10.255 13.2189 10.3731L15.3318 13.1322C15.4117 13.2369 15.451 13.3671 15.4423 13.4986C15.4337 13.63 15.3777 13.7539 15.2847 13.8473L13.8588 15.2739C13.7563 15.3764 13.6796 15.5017 13.6351 15.6396C13.5906 15.7775 13.5796 15.924 13.6028 16.067C13.8175 17.3835 14.3838 18.6176 15.2418 19.6389L15.3184 19.7296C15.6062 20.0721 15.9231 20.389 16.2655 20.6767L16.3598 20.7562C17.3808 21.613 18.614 22.1785 19.9295 22.3931C20.0727 22.4164 20.2193 22.4054 20.3573 22.3609C20.4954 22.3164 20.6208 22.2397 20.7234 22.1371L22.15 20.7105C22.2434 20.6176 22.3673 20.5617 22.4987 20.5531C22.6302 20.5444 22.7603 20.5836 22.8651 20.6634L25.627 22.7812C25.7432 22.8703 25.8264 22.9958 25.8631 23.1376C25.8998 23.2794 25.8879 23.4294 25.8295 23.5638V23.5631Z" fill="#0F172A"/>
<path d="M17.9998 5.90681e-05C13.5928 -0.00014121 9.33894 1.61637 6.04431 4.54322C2.74967 7.47007 0.643236 11.5039 0.124216 15.8801C-0.319636 19.6808 0.451788 23.5244 2.32781 26.8594L0.80906 32.0886C0.684167 32.5189 0.677091 32.9748 0.788571 33.4088C0.900052 33.8427 1.126 34.2388 1.44282 34.5556C1.75964 34.8724 2.1557 35.0984 2.58966 35.2098C3.02362 35.3213 3.47955 35.3142 3.90984 35.1894L9.14039 33.672C11.8518 35.1984 14.9108 36.0002 18.0223 36.0001C21.58 35.9951 25.0565 34.9359 28.0126 32.9563C30.9688 30.9767 33.272 28.1654 34.6313 24.8776C35.9907 21.5898 36.3453 17.9729 35.6502 14.4837C34.9552 10.9945 33.2418 7.78948 30.7263 5.2735C29.059 3.59674 27.0757 2.2673 24.8912 1.36211C22.7067 0.45693 20.3644 -0.00601833 17.9998 5.90681e-05ZM29.4347 29.4357C26.8753 32.0142 23.5146 33.6451 19.9052 34.0601C16.3674 34.4744 12.7914 33.7155 9.72679 31.9001C9.61912 31.8359 9.49938 31.7945 9.37504 31.7786C9.25069 31.7626 9.12439 31.7724 9.00398 31.8073L3.40008 33.4351C3.28417 33.4686 3.16137 33.4705 3.04449 33.4405C2.92762 33.4104 2.82095 33.3495 2.73562 33.2642C2.65029 33.1789 2.58942 33.0722 2.55937 32.9553C2.52932 32.8385 2.53118 32.7157 2.56476 32.5997L4.1925 26.9951C4.22742 26.8747 4.23721 26.7484 4.22124 26.6241C4.20527 26.4997 4.1639 26.38 4.09968 26.2723C2.28428 23.2077 1.52542 19.6317 1.93968 16.0939C2.40634 12.1624 4.299 8.53861 7.25899 5.90934C10.219 3.28007 14.0406 1.82795 17.9998 1.82818C21.1983 1.82817 24.325 2.77665 26.9845 4.55369C29.644 6.33072 31.7168 8.85648 32.9408 11.8116C34.1648 14.7667 34.485 18.0183 33.8609 21.1554C33.2368 24.2925 31.6965 27.174 29.4347 29.4357Z" fill="#0F172A"/>
</g>
<defs>
<clipPath id="clip0_1956_183">
<rect width="36" height="36" fill="white"/>
</clipPath>
</defs>
</svg>
